<?xml version="1.0" encoding="UTF-8"?>
<svg id="_レイヤー_2" data-name="レイヤー 2" xmlns="http://www.w3.org/2000/svg" xmlns:xlink="http://www.w3.org/1999/xlink" viewBox="0 0 626.99 842.89">
  <defs>
    <style>
      .cls-1 {
        fill: url(#_名称未設定グラデーション_90-2);
      }

      .cls-1, .cls-2, .cls-3, .cls-4, .cls-5, .cls-6, .cls-7, .cls-8, .cls-9, .cls-10, .cls-11, .cls-12, .cls-13, .cls-14, .cls-15, .cls-16, .cls-17, .cls-18, .cls-19 {
        stroke-width: 0px;
      }

      .cls-20 {
        clip-path: url(#clippath);
      }

      .cls-2, .cls-21, .cls-22, .cls-23 {
        fill: none;
      }

      .cls-3 {
        fill: url(#_名称未設定グラデーション_90);
      }

      .cls-21, .cls-22, .cls-24, .cls-23 {
        stroke-miterlimit: 10;
      }

      .cls-21, .cls-22, .cls-23 {
        stroke-linecap: round;
      }

      .cls-21, .cls-24, .cls-23 {
        stroke: #231815;
      }

      .cls-22 {
        stroke: #040000;
      }

      .cls-25 {
        clip-path: url(#clippath-1);
      }

      .cls-26 {
        clip-path: url(#clippath-2);
      }

      .cls-24 {
        fill: #fff;
      }

      .cls-23 {
        stroke-width: .97px;
      }

      .cls-4, .cls-5, .cls-6 {
        opacity: .3;
      }

      .cls-4, .cls-10 {
        fill: #19478c;
      }

      .cls-5, .cls-11 {
        fill: #231815;
      }

      .cls-6, .cls-18 {
        fill: #e83818;
      }

      .cls-7 {
        fill: #f3d2e4;
      }

      .cls-8 {
        fill: #62bb7e;
      }

      .cls-9 {
        fill: #1c4ea0;
      }

      .cls-12 {
        fill: #c4e1b9;
      }

      .cls-13 {
        fill: #cd362c;
      }

      .cls-14 {
        fill: #a6519b;
      }

      .cls-15 {
        fill: #a0865c;
      }

      .cls-16 {
        fill: #fcf8d1;
      }

      .cls-17 {
        fill: #eabed8;
      }

      .cls-19 {
        fill: #ea5874;
      }
    </style>
    <clipPath id="clippath">
      <rect class="cls-2" x="162.29" y="565.7" width="278.58" height="36.32"/>
    </clipPath>
    <radialGradient id="_名称未設定グラデーション_90" data-name="名称未設定グラデーション 90" cx="105.84" cy="578.51" fx="105.84" fy="578.51" r="7.72" gradientTransform="translate(-64.91 -705.06) scale(1.68 2.21)" gradientUnits="userSpaceOnUse">
      <stop offset="0" stop-color="#ef8fa6" stop-opacity=".5"/>
      <stop offset="1" stop-color="#231815" stop-opacity="0"/>
    </radialGradient>
    <radialGradient id="_名称未設定グラデーション_90-2" data-name="名称未設定グラデーション 90" cx="157.31" cy="579.03" fx="157.31" fy="579.03" r="7.72" xlink:href="#_名称未設定グラデーション_90"/>
    <clipPath id="clippath-1">
      <rect class="cls-2" x="124.16" y="685.03" width="60.66" height="7.91" transform="translate(308.98 1377.97) rotate(-180)"/>
    </clipPath>
    <clipPath id="clippath-2">
      <rect class="cls-2" x="64.56" y="676.14" width="180.66" height="54.85"/>
    </clipPath>
    <image id="image" width="1754" height="1240" xlink:href="../../../../../1年後期/Illustrator演習/AI_後期06週〜/カレンダー/リボン.png"/>
  </defs>
  <g id="_2月" data-name="2月">
    <g>
      <rect class="cls-24" x=".5" y=".5" width="595.28" height="841.89"/>
      <g>
        <path class="cls-14" d="M144.69,59.62h23.58v10.5h-10.8v4.44h10.62v9.96h-10.62v15.12h-12.78v-40.02ZM152.25,94.84v-14.58h11.4v-1.44h-11.4v-12.96h12v-1.44h-13.56v30.42h1.56Z"/>
        <path class="cls-14" d="M177.57,59.62h23.58v10.5h-10.8v4.44h10.62v9.96h-10.62v4.62h11.22v10.5h-24v-40.02ZM197.13,94.84v-1.44h-12v-13.14h11.4v-1.44h-11.4v-12.96h12v-1.44h-13.56v30.42h13.56Z"/>
        <path class="cls-14" d="M211.17,59.62h15.66c2,0,3.83.23,5.49.69,1.66.46,3.08,1.14,4.26,2.04,1.18.9,2.1,2.02,2.76,3.36.66,1.34.99,2.91.99,4.71,0,1.28-.16,2.37-.48,3.27-.32.9-.66,1.65-1.02,2.25-.44.72-.94,1.32-1.5,1.8.88.56,1.68,1.28,2.4,2.16.6.76,1.15,1.72,1.65,2.88.5,1.16.75,2.58.75,4.26,0,1.92-.34,3.66-1.02,5.22-.68,1.56-1.65,2.89-2.91,3.99-1.26,1.1-2.8,1.94-4.62,2.52-1.82.58-3.85.87-6.09.87h-16.32v-40.02ZM225.81,94.84c3.52,0,6.12-.76,7.8-2.28,1.68-1.52,2.52-3.54,2.52-6.06,0-1.64-.35-2.95-1.05-3.93-.7-.98-1.45-1.75-2.25-2.31-1-.64-2.1-1.08-3.3-1.32.96-.28,1.82-.72,2.58-1.32.68-.52,1.29-1.23,1.83-2.13s.81-2.05.81-3.45c0-2.52-.8-4.42-2.4-5.7-1.6-1.28-3.78-1.92-6.54-1.92h-8.64v30.42h8.64ZM218.73,78.22v-12.36h7.08c2.6,0,4.47.57,5.61,1.71,1.14,1.14,1.71,2.63,1.71,4.47s-.57,3.33-1.71,4.47c-1.14,1.14-3.01,1.71-5.61,1.71h-7.08ZM218.73,93.4v-13.74h7.02c1.24,0,2.39.13,3.45.39,1.06.26,1.99.66,2.79,1.2.8.54,1.43,1.25,1.89,2.13.46.88.69,1.92.69,3.12,0,2.44-.81,4.2-2.43,5.28-1.62,1.08-3.75,1.62-6.39,1.62h-7.02ZM227.97,71.8c0-1.84-1-2.76-3-2.76h-1.44v5.52h1.44c2,0,3-.92,3-2.76ZM224.97,90.22c3.04,0,4.56-1.16,4.56-3.48s-1.52-3.48-4.56-3.48h-1.44v6.96h1.44Z"/>
        <path class="cls-14" d="M250.83,59.62h13.8c2.56,0,4.93.34,7.11,1.02,2.18.68,4.07,1.68,5.67,3s2.85,2.95,3.75,4.89c.9,1.94,1.35,4.17,1.35,6.69,0,2-.28,3.7-.84,5.1-.56,1.4-1.18,2.56-1.86,3.48-.8,1.04-1.7,1.92-2.7,2.64l7.5,13.2h-15l-6-10.14v10.14h-12.78v-40.02ZM263.31,85.72c1.56,0,3.08-.16,4.56-.48l5.7,9.6h1.86l-6-10.08c2.16-.76,3.88-1.93,5.16-3.51,1.28-1.58,1.92-3.63,1.92-6.15,0-1.76-.34-3.3-1.02-4.62-.68-1.32-1.61-2.43-2.79-3.33-1.18-.9-2.57-1.58-4.17-2.04-1.6-.46-3.34-.69-5.22-.69h-6.48v30.42h1.56v-9.12h4.92ZM258.39,84.28v-18.42h4.92c3.64,0,6.49.8,8.55,2.4,2.06,1.6,3.09,3.88,3.09,6.84s-1.03,5.23-3.09,6.81c-2.06,1.58-4.91,2.37-8.55,2.37h-4.92ZM263.61,79.3h.66c1.52,0,2.81-.34,3.87-1.02,1.06-.68,1.59-1.82,1.59-3.42s-.53-2.74-1.59-3.42c-1.06-.68-2.35-1.02-3.87-1.02h-.66v8.88Z"/>
        <path class="cls-14" d="M308.19,100.66c-2.52,0-4.8-.32-6.84-.96-2.04-.64-3.78-1.6-5.22-2.88-1.44-1.28-2.55-2.9-3.33-4.86-.78-1.96-1.17-4.26-1.17-6.9v-25.44h12.78v24.9c0,1.4.29,2.47.87,3.21.58.74,1.55,1.11,2.91,1.11s2.33-.37,2.91-1.11c.58-.74.87-1.81.87-3.21v-24.9h12.84v25.44c0,2.64-.39,4.94-1.17,6.9-.78,1.96-1.9,3.58-3.36,4.86-1.46,1.28-3.21,2.24-5.25,2.88-2.04.64-4.32.96-6.84.96ZM308.19,93.46c-6,0-9-2.94-9-8.82v-20.22h-1.56v20.22c0,3.36.91,5.93,2.73,7.71,1.82,1.78,4.43,2.67,7.83,2.67s6.02-.89,7.86-2.67c1.84-1.78,2.76-4.35,2.76-7.71v-20.22h-1.62v20.22c0,5.88-3,8.82-9,8.82Z"/>
        <path class="cls-14" d="M346.71,59.62h9.6l15.18,40.02h-12.6l-1.32-3.6h-12.12l-1.32,3.6h-12.6l15.18-40.02ZM340.47,94.84l1.14-3h19.8l1.14,3h1.68l-11.58-30.42h-2.28l-11.58,30.42h1.68ZM351.51,65.86l9.36,24.54h-18.72l9.36-24.54ZM354.21,87.22l-2.7-7.02-2.7,7.02h5.4Z"/>
        <path class="cls-14" d="M378.39,59.62h13.8c2.56,0,4.93.34,7.11,1.02,2.18.68,4.07,1.68,5.67,3s2.85,2.95,3.75,4.89c.9,1.94,1.35,4.17,1.35,6.69,0,2-.28,3.7-.84,5.1-.56,1.4-1.18,2.56-1.86,3.48-.8,1.04-1.7,1.92-2.7,2.64l7.5,13.2h-15l-6-10.14v10.14h-12.78v-40.02ZM390.87,85.72c1.56,0,3.08-.16,4.56-.48l5.7,9.6h1.86l-6-10.08c2.16-.76,3.88-1.93,5.16-3.51,1.28-1.58,1.92-3.63,1.92-6.15,0-1.76-.34-3.3-1.02-4.62-.68-1.32-1.61-2.43-2.79-3.33-1.18-.9-2.57-1.58-4.17-2.04-1.6-.46-3.34-.69-5.22-.69h-6.48v30.42h1.56v-9.12h4.92ZM385.95,84.28v-18.42h4.92c3.64,0,6.49.8,8.55,2.4,2.06,1.6,3.09,3.88,3.09,6.84s-1.03,5.23-3.09,6.81c-2.06,1.58-4.91,2.37-8.55,2.37h-4.92ZM391.17,79.3h.66c1.52,0,2.81-.34,3.87-1.02,1.06-.68,1.59-1.82,1.59-3.42s-.53-2.74-1.59-3.42c-1.06-.68-2.35-1.02-3.87-1.02h-.66v8.88Z"/>
        <path class="cls-14" d="M428.49,82.42l-12.42-22.8h14.22l4.62,8.46,4.56-8.46h14.22l-12.42,22.8v17.22h-12.78v-17.22ZM435.69,94.84v-14.34l8.76-16.08h-1.86l-7.68,14.22-7.74-14.22h-1.8l8.7,16.08v14.34h1.62Z"/>
      </g>
      <g>
        <g>
          <path class="cls-11" d="M190.82,161.5s-.05-.12-.05-.17c0-.25.28-.4.45-.4.12,0,.23.07.28.17.85,1.2,2.17,2.3,4,2.32,2.27.07,4.07-.98,4.07-3.47,0-1.72-1.52-2.67-3.52-3.82-2.62-1.42-4.2-2.65-4.2-4.92,0-1.92,1.72-3.67,4.15-3.67h.1c1.82.05,2.85.52,4.3,1.72.08.08.1.15.1.23,0,.1-.05.2-.12.27l-.22.15c-.1.08-.17.08-.2.08-.07,0-.12-.02-.17-.08-1.17-.9-2.1-1.55-3.65-1.57-1.35-.02-3.4.62-3.4,3,0,1.82,1.57,2.72,3.55,3.82,2.77,1.47,4.25,2.5,4.25,4.87-.05,3.32-2.72,4.2-5.02,4.2-1.35,0-3.32-.48-4.67-2.72Z"/>
          <path class="cls-11" d="M210.94,163.47c0,.23-.15.35-.35.4-.08.02-.15.02-.22.02-.17,0-.3-.07-.33-.25-.25-1.52-.35-2.7-.38-3.87-.72,2.27-2.05,4.15-4.27,4.15-1.5,0-2.55-1.27-2.55-3.05,0-1.42.17-4.2.17-6.5,0-.18.12-.35.35-.35h.33c.2,0,.33.17.33.35-.05,1.37-.15,4.7-.15,6.25,0,2,.9,2.42,1.55,2.42,1.92,0,3.65-2.05,4.35-7.2.03-.45.08-.95.1-1.47.02-.25.22-.33.38-.33h.05l.38.05c.17.02.25.17.25.32v.08c-.25,1.75-.45,3-.45,4.17,0,1.65.15,2.95.47,4.75v.05Z"/>
        </g>
        <g>
          <path class="cls-11" d="M257.55,163.82c0,.17-.12.3-.32.35l-.12.02h-.05c-.15,0-.3-.15-.35-.3l-3.17-14.55-5,14.5c-.1.2-.33.3-.53.3h-.12c-.2-.02-.4-.15-.45-.35l-3.87-13.85c-1.25,7.17-1.7,10.05-4.52,14-.1.07-.2.1-.32.1-.15,0-.48-.1-.48-.4,0-.1.03-.17.08-.25,2.87-3.67,3.47-7.65,4.77-15.6.03-.25.12-.35.38-.35h.18c.17.02.35.15.3.4l-.03.1,4.1,14.62,5.15-14.82c.08-.2.15-.3.35-.3h.15c.3,0,.38.17.42.4l3.47,15.9v.08Z"/>
          <path class="cls-11" d="M260.13,162.75c-.7-.92-.95-2.05-.95-3.57,0-1,.25-2.25.88-3.27.62-1.07,1.67-1.95,3.4-1.95,1.95,0,3.3,1.5,3.3,4.17,0,2.5-.88,5.82-4.3,5.82-.85,0-1.7-.38-2.33-1.2ZM265.75,158.2c0-2.47-.97-3.5-2.32-3.5-2.92,0-3.32,3.4-3.32,4.75,0,2.72,1.2,3.67,2.45,3.67,2.32,0,3.2-2.67,3.2-4.92Z"/>
        </g>
        <g>
          <path class="cls-11" d="M298.78,148.28v.1c0,.2-.1.35-.33.35h-5.15c-.08,4.82-.15,7.7-.35,15.12,0,.2-.12.38-.33.38h-.22c-.2,0-.33-.18-.33-.38.1-7.25.33-14.6.33-15.12h-5.07c-.15,0-.35-.12-.35-.35v-.1c0-.2.17-.4.38-.4l11.1.02c.2,0,.33.17.33.38Z"/>
          <path class="cls-11" d="M308.49,163.47c0,.23-.15.35-.35.4-.08.02-.15.02-.23.02-.17,0-.3-.07-.33-.25-.25-1.52-.35-2.7-.37-3.87-.73,2.27-2.05,4.15-4.27,4.15-1.5,0-2.55-1.27-2.55-3.05,0-1.42.18-4.2.18-6.5,0-.18.12-.35.35-.35h.33c.2,0,.32.17.32.35-.05,1.37-.15,4.7-.15,6.25,0,2,.9,2.42,1.55,2.42,1.92,0,3.65-2.05,4.35-7.2.03-.45.08-.95.1-1.47.03-.25.23-.33.38-.33h.05l.38.05c.17.02.25.17.25.32v.08c-.25,1.75-.45,3-.45,4.17,0,1.65.15,2.95.47,4.75v.05Z"/>
        </g>
        <g>
          <path class="cls-11" d="M354.62,148.05v.05c-.38,1.35-3.82,13.17-4.7,15.77-.05.15-.25.23-.47.23-.25,0-.45-.05-.55-.35l-4.07-14.1c-1.67,5.35-3.27,9.9-4.85,14.22-.08.17-.2.3-.45.3-.38,0-.52-.07-.55-.4-1.12-6.4-1.97-10.67-3.62-15.45-.03-.05-.03-.1-.03-.12,0-.17.12-.32.3-.37l.1-.03c.25-.05.42.03.5.27,1.58,4.57,2.38,8.55,3.38,14.32,1.95-5.37,3.45-9.92,4.7-14.2.07-.22.15-.4.4-.4l.3-.02c.17,0,.3.15.38.38l4.12,14.25c1.6-5.12,3.07-10.3,4.25-14.47.05-.17.17-.25.3-.25l.1.02.25.07c.12.05.22.15.22.27Z"/>
          <path class="cls-11" d="M363.54,161.47c0,.08-.03.15-.08.23-.67,1.02-1.82,2.2-3.9,2.2-2.47,0-3.65-1.65-3.65-4.1,0-3.47,2.15-5.85,4.6-5.85,1.5,0,2.72.75,2.72,2.12,0,2.45-3.55,2.97-6.3,2.92-.03.23-.05.48-.05.73,0,2.2.92,3.32,2.72,3.32,1.57,0,2.3-.6,3.27-1.77.17-.2.35-.23.58-.03.05.08.08.15.08.23ZM357.05,158.22c2.02-.05,5.27-.33,5.27-2.25,0-.82-.85-1.27-1.85-1.27-1.75,0-3,1.57-3.42,3.52Z"/>
        </g>
        <g>
          <path class="cls-11" d="M395.15,148.28v.1c0,.2-.1.35-.33.35h-5.15c-.08,4.82-.15,7.7-.35,15.12,0,.2-.12.38-.33.38h-.22c-.2,0-.33-.18-.33-.38.1-7.25.33-14.6.33-15.12h-5.07c-.15,0-.35-.12-.35-.35v-.1c0-.2.17-.4.38-.4l11.1.02c.2,0,.33.17.33.38Z"/>
          <path class="cls-11" d="M404.53,163.52c0,.25-.3.38-.42.38s-.22-.05-.3-.15c-.5-.9-.65-2.4-.65-3.5,0-1.37.25-2.62.25-3.97,0-1.1-.78-1.67-1.65-1.67-2.2,0-3.42,3.07-3.9,6.42-.05.82-.08,1.67-.12,2.52-.03.17-.17.35-.4.35h-.05c-.22,0-.38-.12-.38-.38.28-4.25.38-7.17.65-12.95v-.7c0-1.27-.15-2.2-.28-2.8-.02-.12.03-.25.1-.3.12-.08.35-.1.47-.1.22,0,.33.1.38.3.05.25.22,1.47.22,2.82,0,.23,0,.52-.02.77-.12,2.1-.23,4.27-.35,6.52.7-1.87,1.9-3.35,3.8-3.32,1.78.02,2.52,1.35,2.52,2.47s-.27,2.7-.27,4.3c0,.92.12,2.25.38,2.85.02.05.02.08.02.12Z"/>
        </g>
        <g>
          <path class="cls-9" d="M441.73,148.25v.12c0,.2-.12.38-.35.38l-7.32-.03c.07.62.12,1.47.07,2.45-.05,1.45-.12,2.8-.2,4.1h6.95c.22,0,.4.22.4.45v.1c0,.15-.2.37-.4.37l-7.02-.02c-.15,2.62-.33,5.07-.42,7.72-.03.15-.08.33-.35.33h-.12c-.23,0-.35-.15-.35-.35.25-4.07.38-6.55.58-12.7.02-1.55.02-1.87-.22-3.32,0-.05,0-.2.1-.27.12-.05.38-.1.52-.1.2,0,.28.1.33.3,0,.02.03.05.03.1h7.45c.2,0,.35.2.35.38Z"/>
          <path class="cls-9" d="M449.29,154.02c.25,0,.32.12.32.55,0,.23-.2.27-.37.3-2.4.3-3.72,2.67-4.27,5.9-.1,1.12-.22,2.12-.33,2.87-.05.23-.15.33-.35.33h-.08c-.22-.02-.38-.12-.38-.35,0-.02,0-.12.03-.27.2-1.62.35-3.5.35-5.25,0-1.38-.08-2.62-.33-3.6-.02-.05-.02-.1-.02-.15,0-.12.08-.28.25-.3l.4-.05h.1c.12,0,.22.05.27.23.2.9.28,1.92.28,3.02v.3c.72-1.88,1.95-3.37,4.05-3.52h.08Z"/>
        </g>
        <g>
          <path class="cls-18" d="M142.64,160.6s-.05-.12-.05-.17c0-.25.28-.4.45-.4.12,0,.22.07.27.17.85,1.2,2.17,2.3,4,2.32,2.27.07,4.07-.98,4.07-3.47,0-1.72-1.52-2.67-3.52-3.82-2.62-1.42-4.2-2.65-4.2-4.92,0-1.92,1.72-3.67,4.15-3.67h.1c1.83.05,2.85.52,4.3,1.72.07.08.1.15.1.23,0,.1-.05.2-.12.27l-.22.15c-.1.08-.17.08-.2.08-.08,0-.12-.02-.17-.08-1.17-.9-2.1-1.55-3.65-1.57-1.35-.02-3.4.62-3.4,3,0,1.82,1.58,2.72,3.55,3.82,2.77,1.47,4.25,2.5,4.25,4.87-.05,3.32-2.72,4.2-5.02,4.2-1.35,0-3.32-.48-4.67-2.72Z"/>
          <path class="cls-18" d="M161.64,160.95c0,.72,0,1.07.08,1.6,0,.2-.03.35-.25.42l-.1.02c-.05,0-.08.02-.12.02-.17,0-.3-.1-.33-.27-.12-.82-.17-1.65-.17-2.42-.83,1.72-2.17,2.67-3.6,2.67-1.2,0-2.7-.62-2.7-2.65,0-1.07.4-1.82.97-2.45.73-.8,1.8-1.32,3.1-1.32,1.1,0,1.77.15,2.37.48.03-.43.05-.8.05-1.12,0-1.02-.62-2.2-2.08-2.2-1.57,0-2.87,1.02-3.25,1.27-.08.05-.15.08-.22.08-.3,0-.42-.3-.42-.42,0-.1.02-.2.12-.28,1-.65,2.4-1.42,3.92-1.42,2.37,0,2.87,1.82,2.87,2.97,0,1.22-.25,1.82-.25,3.6v1.42ZM160.81,157.87c-.35-.25-1.17-.6-2-.6-1.82,0-3.45,1.12-3.45,3.05,0,.97.62,1.77,1.82,1.77,1.45,0,3.12-1.22,3.62-4.22Z"/>
        </g>
        <g>
          <path class="cls-6" d="M142.94,206.68l-.07-.2c-.03-.08-.03-.12-.03-.18,0-.12.05-.25.18-.35,5.27-4.52,8.05-7.17,8.05-10.55,0-2.25-1.47-3.32-3.27-3.32s-3.1,1.3-3.72,2.15c-.07.1-.15.12-.2.12-.12,0-.2-.02-.35-.15-.15-.12-.2-.18-.2-.3,0-.05,0-.12.08-.23.12-.18,1.67-2.45,4.4-2.45,2.9,0,4.35,1.77,4.35,4.3,0,4.37-5.07,8-7.85,10.52l7.82.02c.17,0,.35.12.35.35v.2c0,.23-.18.35-.35.35l-8.75.02c-.2,0-.35-.1-.43-.33Z"/>
          <path class="cls-6" d="M155.39,203.21c0-2.72,2.47-4.17,4.22-5.05-1.52-1.1-2.9-2.02-2.97-3.65-.05-2.12,1.72-3.37,3.97-3.37,2.77,0,3.97,1.72,4.02,3.17.05,1.88-1.45,2.82-3.27,3.9,2,1.4,3.77,2.5,3.77,5,0,1.67-1.07,4.27-4.97,4.27-2.8,0-4.77-1.42-4.77-4.27ZM164.14,203.03c-.08-2.02-1.92-3.07-3.67-4.3-2.85,1.25-4.17,2.77-4.1,4.67.1,2.75,2.2,3.3,3.77,3.3,1.32,0,4.1-.83,4-3.67ZM163.76,194.33c-.05-1.07-.92-2.42-3.1-2.42s-3.15,1.25-3.1,2.55c.05,1.37,1.42,2.17,3,3.25,2.05-1.12,3.22-2.17,3.2-3.37Z"/>
        </g>
        <g>
          <path class="cls-5" d="M191.12,206.68l-.07-.2c-.03-.08-.03-.12-.03-.18,0-.12.05-.25.17-.35,5.27-4.52,8.05-7.17,8.05-10.55,0-2.25-1.47-3.32-3.27-3.32s-3.1,1.3-3.72,2.15c-.08.1-.15.12-.2.12-.12,0-.2-.02-.35-.15s-.2-.18-.2-.3c0-.05,0-.12.08-.23.12-.18,1.67-2.45,4.4-2.45,2.9,0,4.35,1.77,4.35,4.3,0,4.37-5.07,8-7.85,10.52l7.82.02c.17,0,.35.12.35.35v.2c0,.23-.18.35-.35.35l-8.75.02c-.2,0-.35-.1-.42-.33Z"/>
          <path class="cls-5" d="M204.47,208.18c0-.2.17-.33.33-.43,4.37-2.45,6.6-5.75,7.12-8.97-.62,1.17-2,2.1-3.62,2.17-2.87.1-4.42-1.9-4.42-4.77s1.95-5.02,4.67-5.02c3.02,0,4.5,2.3,4.5,5.5,0,4.9-2.65,9.27-8.02,11.92-.05.02-.12.05-.17.05-.17,0-.38-.25-.38-.45ZM212.07,195.81c-.1-2.2-1.47-3.95-3.62-3.87-2.3.07-3.62,1.9-3.62,4.2s1.15,3.97,3.35,3.87c2.42-.1,4-2.15,3.9-4.2Z"/>
        </g>
        <g>
          <path class="cls-5" d="M239.43,208.58c-.2,0-.35-.18-.35-.48,0-.17.03-.3.53-.38,3.65-.57,7.7-2.55,7.7-6.3,0-2.97-2.67-3.45-5.75-2.7-.2.05-.35-.17-.35-.4v-.2c0-.22.1-.27.35-.32,1.95-.35,5.22-1.65,5.22-3.77,0-1.5-1.32-2.15-2.62-2.15-1.38,0-2.7.75-3.97,2.02-.1.07-.18.07-.25.07-.18,0-.3-.05-.4-.2-.08-.1-.1-.18-.1-.27,0-.08.02-.15.1-.23,1.45-1.45,3.12-2.25,4.75-2.25,1.72,0,3.5.92,3.5,2.97,0,2.22-1.82,3.17-3.5,3.72,1.85.05,4.02.75,4.02,3.67,0,4.2-3.92,6.25-7.95,7.02-.53.1-.83.15-.92.15Z"/>
          <path class="cls-5" d="M251.23,199.25c0-4.72,2.6-8.12,5.7-8.12,3.52,0,4.82,4.22,4.82,7.7,0,4.97-2.2,8.57-5.67,8.57-2.4,0-4.85-1.95-4.85-8.15ZM260.78,199.05c.05-5.25-1.92-7.05-3.9-7.05-2.27,0-4.62,2.4-4.62,7.27s1.33,7.27,3.82,7.3c2.57.02,4.62-2.5,4.7-7.52Z"/>
        </g>
        <g>
          <path class="cls-5" d="M287.61,208.58c-.2,0-.35-.18-.35-.48,0-.17.03-.3.53-.38,3.65-.57,7.7-2.55,7.7-6.3,0-2.97-2.67-3.45-5.75-2.7-.2.05-.35-.17-.35-.4v-.2c0-.22.1-.27.35-.32,1.95-.35,5.22-1.65,5.22-3.77,0-1.5-1.32-2.15-2.62-2.15-1.38,0-2.7.75-3.97,2.02-.1.07-.18.07-.25.07-.18,0-.3-.05-.4-.2-.08-.1-.1-.18-.1-.27,0-.08.02-.15.1-.23,1.45-1.45,3.12-2.25,4.75-2.25,1.72,0,3.5.92,3.5,2.97,0,2.22-1.82,3.17-3.5,3.72,1.85.05,4.02.75,4.02,3.67,0,4.2-3.92,6.25-7.95,7.02-.53.1-.83.15-.92.15Z"/>
          <path class="cls-5" d="M303.34,191.53l-.35,15.45c0,.17-.12.3-.35.3h-.17c-.22,0-.33-.17-.33-.27l.23-14.37c-.83.57-1.9,1.25-2.5,1.55-.27.15-.42.15-.57-.15-.05-.1-.08-.18-.08-.23,0-.12.08-.2.2-.27.45-.27,2.12-1.42,2.88-2.07.2-.17.3-.2.42-.2h.3c.15,0,.33.12.33.27Z"/>
        </g>
        <path class="cls-11" d="M339.85,191.53l-.35,15.45c0,.17-.12.3-.35.3h-.17c-.22,0-.33-.17-.33-.27l.23-14.37c-.83.57-1.9,1.25-2.5,1.55-.27.15-.42.15-.57-.15-.05-.1-.08-.18-.08-.23,0-.12.08-.2.2-.27.45-.27,2.12-1.42,2.87-2.07.2-.17.3-.2.42-.2h.3c.15,0,.33.12.33.27Z"/>
        <path class="cls-11" d="M383.86,206.75l-.08-.2c-.03-.08-.03-.12-.03-.18,0-.12.05-.25.17-.35,5.27-4.52,8.05-7.17,8.05-10.55,0-2.25-1.47-3.32-3.27-3.32s-3.1,1.3-3.72,2.15c-.08.1-.15.12-.2.12-.12,0-.2-.02-.35-.15-.15-.12-.2-.18-.2-.3,0-.05,0-.12.08-.23.12-.18,1.67-2.45,4.4-2.45,2.9,0,4.35,1.77,4.35,4.3,0,4.37-5.07,8-7.85,10.52l7.82.02c.18,0,.35.12.35.35v.2c0,.23-.17.35-.35.35l-8.75.02c-.2,0-.35-.1-.42-.33Z"/>
        <path class="cls-10" d="M432.16,208.58c-.2,0-.35-.18-.35-.48,0-.17.03-.3.53-.38,3.65-.57,7.7-2.55,7.7-6.3,0-2.97-2.67-3.45-5.75-2.7-.2.05-.35-.17-.35-.4v-.2c0-.22.1-.27.35-.32,1.95-.35,5.22-1.65,5.22-3.77,0-1.5-1.32-2.15-2.62-2.15-1.38,0-2.7.75-3.97,2.02-.1.07-.17.07-.25.07-.17,0-.3-.05-.4-.2-.08-.1-.1-.18-.1-.27,0-.08.02-.15.1-.23,1.45-1.45,3.12-2.25,4.75-2.25,1.72,0,3.5.92,3.5,2.97,0,2.22-1.83,3.17-3.5,3.72,1.85.05,4.02.75,4.02,3.67,0,4.2-3.92,6.25-7.95,7.02-.53.1-.83.15-.92.15Z"/>
        <path class="cls-18" d="M153.56,245.93v.08c0,.23-.15.35-.35.35h-2.65l-.17,4.12c-.02.18-.22.33-.38.33h-.12c-.15,0-.35-.12-.35-.3l.12-4.15h-6.6c-.38,0-.57-.25-.57-.62,0-.1.02-.2.1-.33.92-1.17,5.1-6.95,7.55-11.32.12-.23.2-.28.35-.28.07,0,.25.08.42.18.12.07.2.12.2.27,0,.07-.02.15-.17.42-2.17,3.95-4.67,7.32-7.4,10.87h6.15l.15-5.1c0-.15.12-.35.3-.35l.33.02c.2,0,.33.17.33.35l-.2,5.07h2.62c.23,0,.35.15.35.37Z"/>
        <g>
          <path class="cls-18" d="M147.11,278.34l-.35,15.45c0,.17-.12.3-.35.3h-.17c-.23,0-.33-.17-.33-.27l.22-14.37c-.82.57-1.9,1.25-2.5,1.55-.28.15-.42.15-.58-.15-.05-.1-.08-.18-.08-.23,0-.12.08-.2.2-.27.45-.27,2.12-1.42,2.88-2.07.2-.17.3-.2.42-.2h.3c.15,0,.32.12.32.27Z"/>
          <path class="cls-18" d="M155.54,278.34l-.35,15.45c0,.17-.12.3-.35.3h-.17c-.23,0-.33-.17-.33-.27l.22-14.37c-.82.57-1.9,1.25-2.5,1.55-.28.15-.42.15-.58-.15-.05-.1-.08-.18-.08-.23,0-.12.08-.2.2-.27.45-.27,2.12-1.42,2.88-2.07.2-.17.3-.2.42-.2h.3c.15,0,.32.12.32.27Z"/>
        </g>
        <g>
          <path class="cls-18" d="M147.11,319.91l-.35,15.45c0,.17-.12.3-.35.3h-.17c-.23,0-.33-.17-.33-.27l.22-14.37c-.82.57-1.9,1.25-2.5,1.55-.28.15-.42.15-.58-.15-.05-.1-.08-.18-.08-.23,0-.12.08-.2.2-.27.45-.27,2.12-1.42,2.88-2.07.2-.17.3-.2.42-.2h.3c.15,0,.32.12.32.27Z"/>
          <path class="cls-18" d="M151.64,331.56c0-2.72,2.47-4.17,4.22-5.05-1.52-1.1-2.9-2.02-2.97-3.65-.05-2.12,1.72-3.37,3.97-3.37,2.77,0,3.97,1.72,4.02,3.17.05,1.88-1.45,2.82-3.27,3.9,2,1.4,3.77,2.5,3.77,5,0,1.67-1.07,4.27-4.97,4.27-2.8,0-4.77-1.42-4.77-4.27ZM160.39,331.38c-.08-2.02-1.92-3.07-3.67-4.3-2.85,1.25-4.17,2.77-4.1,4.67.1,2.75,2.2,3.3,3.77,3.3,1.32,0,4.1-.83,4-3.67ZM160.01,322.68c-.05-1.07-.92-2.42-3.1-2.42s-3.15,1.25-3.1,2.55c.05,1.37,1.42,2.17,3,3.25,2.05-1.12,3.22-2.17,3.2-3.37Z"/>
        </g>
        <g>
          <path class="cls-18" d="M142.94,377.55l-.07-.2c-.03-.08-.03-.12-.03-.18,0-.12.05-.25.17-.35,5.27-4.52,8.05-7.17,8.05-10.55,0-2.25-1.47-3.32-3.27-3.32s-3.1,1.3-3.72,2.15c-.08.1-.15.12-.2.12-.12,0-.2-.02-.35-.15s-.2-.18-.2-.3c0-.05,0-.12.08-.23.12-.18,1.67-2.45,4.4-2.45,2.9,0,4.35,1.77,4.35,4.3,0,4.37-5.07,8-7.85,10.52l7.82.02c.17,0,.35.12.35.35v.2c0,.23-.18.35-.35.35l-8.75.02c-.2,0-.35-.1-.42-.33Z"/>
          <path class="cls-18" d="M155.56,379.47c-.25,0-.38-.18-.38-.5,0-.25.2-.3.35-.32,4.07-.68,7.2-2.67,7.2-6.05,0-2.72-1.87-3.8-4.47-3.8-.55,0-1.77.2-2.12.3-.23.05-.45-.1-.42-.3l1.07-5.75c.08-.45.35-.75.75-.75,3.07,0,3.57-.05,5.02-.33.35-.07.45-.1.58-.1.17,0,.3.17.3.35v.3c0,.32-.3.4-1.47.55-.7.1-1.57.15-4.22.15l-1,4.85c.45-.07,1.2-.15,1.55-.15,3.67,0,5.45,1.57,5.45,4.8,0,3.6-3.05,5.7-7,6.55-.3.05-1.02.2-1.17.2Z"/>
        </g>
        <g>
          <path class="cls-11" d="M191.12,377.55l-.07-.2c-.03-.08-.03-.12-.03-.18,0-.12.05-.25.17-.35,5.27-4.52,8.05-7.17,8.05-10.55,0-2.25-1.47-3.32-3.27-3.32s-3.1,1.3-3.72,2.15c-.08.1-.15.12-.2.12-.12,0-.2-.02-.35-.15s-.2-.18-.2-.3c0-.05,0-.12.08-.23.12-.18,1.67-2.45,4.4-2.45,2.9,0,4.35,1.77,4.35,4.3,0,4.37-5.07,8-7.85,10.52l7.82.02c.17,0,.35.12.35.35v.2c0,.23-.18.35-.35.35l-8.75.02c-.2,0-.35-.1-.42-.33Z"/>
          <path class="cls-11" d="M212.44,361.28c0,.2-.18.33-.33.42-4.37,2.45-6.6,5.75-7.12,8.97.62-1.17,2-2.1,3.62-2.17,2.87-.1,4.42,1.9,4.42,4.77s-1.95,5.02-4.67,5.02c-3.02,0-4.5-2.3-4.5-5.5,0-4.9,2.65-9.27,8.02-11.92.05-.02.12-.05.17-.05.17,0,.38.25.38.45ZM204.85,373.65c.1,2.2,1.47,3.95,3.62,3.87,2.3-.07,3.62-1.9,3.62-4.2s-1.15-3.97-3.35-3.87c-2.42.1-4,2.15-3.9,4.2Z"/>
        </g>
        <g>
          <path class="cls-11" d="M239.3,377.55l-.08-.2c-.03-.08-.03-.12-.03-.18,0-.12.05-.25.18-.35,5.27-4.52,8.05-7.17,8.05-10.55,0-2.25-1.47-3.32-3.27-3.32s-3.1,1.3-3.72,2.15c-.08.1-.15.12-.2.12-.12,0-.2-.02-.35-.15-.15-.12-.2-.18-.2-.3,0-.05,0-.12.08-.23.12-.18,1.67-2.45,4.4-2.45,2.9,0,4.35,1.77,4.35,4.3,0,4.37-5.07,8-7.85,10.52l7.82.02c.17,0,.35.12.35.35v.2c0,.23-.17.35-.35.35l-8.75.02c-.2,0-.35-.1-.42-.33Z"/>
          <path class="cls-11" d="M261.38,363.08c0,.07-.08.25-.25.47-3.77,4.87-6.27,10.65-6.77,15.35-.02.28-.17.33-.35.33h-.25c-.2,0-.35-.15-.33-.38.72-7.2,5.12-13.55,6.6-15.57h-3.37c-3.12,0-3.65.15-4.82.55-.25.08-.3,0-.45-.37-.05-.12-.05-.2-.05-.25,0-.2.1-.35.33-.4,1.05-.3,1.6-.45,4.77-.45,1.65,0,3.75-.02,4.25-.02.2,0,.38.02.62.5.05.1.08.17.08.25Z"/>
        </g>
        <g>
          <path class="cls-11" d="M287.49,377.55l-.08-.2c-.03-.08-.03-.12-.03-.18,0-.12.05-.25.17-.35,5.27-4.52,8.05-7.17,8.05-10.55,0-2.25-1.47-3.32-3.28-3.32s-3.1,1.3-3.72,2.15c-.08.1-.15.12-.2.12-.12,0-.2-.02-.35-.15s-.2-.18-.2-.3c0-.05,0-.12.07-.23.12-.18,1.67-2.45,4.4-2.45,2.9,0,4.35,1.77,4.35,4.3,0,4.37-5.07,8-7.85,10.52l7.82.02c.18,0,.35.12.35.35v.2c0,.23-.17.35-.35.35l-8.75.02c-.2,0-.35-.1-.42-.33Z"/>
          <path class="cls-11" d="M299.94,374.08c0-2.72,2.47-4.17,4.22-5.05-1.53-1.1-2.9-2.02-2.97-3.65-.05-2.12,1.72-3.37,3.97-3.37,2.77,0,3.97,1.72,4.02,3.17.05,1.88-1.45,2.82-3.27,3.9,2,1.4,3.77,2.5,3.77,5,0,1.67-1.08,4.27-4.97,4.27-2.8,0-4.77-1.42-4.77-4.27ZM308.69,373.9c-.08-2.02-1.92-3.07-3.67-4.3-2.85,1.25-4.17,2.77-4.1,4.67.1,2.75,2.2,3.3,3.77,3.3,1.33,0,4.1-.83,4-3.67ZM308.31,365.2c-.05-1.07-.92-2.42-3.1-2.42s-3.15,1.25-3.1,2.55c.05,1.37,1.43,2.17,3,3.25,2.05-1.12,3.22-2.17,3.2-3.37Z"/>
        </g>
        <g>
          <path class="cls-11" d="M335.67,377.4l-.08-.2c-.03-.08-.03-.12-.03-.18,0-.12.05-.25.18-.35,5.27-4.52,8.05-7.17,8.05-10.55,0-2.25-1.47-3.32-3.27-3.32s-3.1,1.3-3.72,2.15c-.08.1-.15.12-.2.12-.12,0-.2-.02-.35-.15-.15-.12-.2-.18-.2-.3,0-.05,0-.12.08-.23.12-.18,1.67-2.45,4.4-2.45,2.9,0,4.35,1.77,4.35,4.3,0,4.37-5.07,8-7.85,10.52l7.82.02c.17,0,.35.12.35.35v.2c0,.23-.17.35-.35.35l-8.75.02c-.2,0-.35-.1-.42-.33Z"/>
          <path class="cls-11" d="M349.02,378.9c0-.2.17-.33.32-.43,4.37-2.45,6.6-5.75,7.12-8.97-.62,1.17-2,2.1-3.62,2.17-2.88.1-4.42-1.9-4.42-4.77s1.95-5.02,4.67-5.02c3.02,0,4.5,2.3,4.5,5.5,0,4.9-2.65,9.27-8.02,11.92-.05.02-.12.05-.17.05-.18,0-.38-.25-.38-.45ZM356.62,366.53c-.1-2.2-1.47-3.95-3.62-3.87-2.3.07-3.62,1.9-3.62,4.2s1.15,3.97,3.35,3.87c2.42-.1,4-2.15,3.9-4.2Z"/>
        </g>
        <path class="cls-5" d="M388.03,362.43l-.35,15.45c0,.17-.12.3-.35.3h-.17c-.22,0-.33-.17-.33-.27l.23-14.37c-.83.57-1.9,1.25-2.5,1.55-.27.15-.42.15-.57-.15-.05-.1-.08-.18-.08-.23,0-.12.08-.2.2-.27.45-.27,2.12-1.42,2.87-2.07.2-.17.3-.2.42-.2h.3c.15,0,.33.12.33.27Z"/>
        <path class="cls-4" d="M432.04,377.55l-.08-.2c-.03-.08-.03-.12-.03-.18,0-.12.05-.25.18-.35,5.27-4.52,8.05-7.17,8.05-10.55,0-2.25-1.47-3.32-3.27-3.32s-3.1,1.3-3.72,2.15c-.08.1-.15.12-.2.12-.12,0-.2-.02-.35-.15-.15-.12-.2-.18-.2-.3,0-.05,0-.12.08-.23.12-.18,1.67-2.45,4.4-2.45,2.9,0,4.35,1.77,4.35,4.3,0,4.37-5.07,8-7.85,10.52l7.82.02c.17,0,.35.12.35.35v.2c0,.23-.17.35-.35.35l-8.75.02c-.2,0-.35-.1-.42-.33Z"/>
        <g>
          <path class="cls-11" d="M195.29,319.91l-.35,15.45c0,.17-.12.3-.35.3h-.17c-.23,0-.33-.17-.33-.27l.22-14.37c-.82.57-1.9,1.25-2.5,1.55-.28.15-.42.15-.58-.15-.05-.1-.08-.18-.08-.23,0-.12.08-.2.2-.27.45-.27,2.12-1.42,2.88-2.07.2-.17.3-.2.42-.2h.3c.15,0,.32.12.32.27Z"/>
          <path class="cls-11" d="M200.72,336.53c0-.2.17-.33.33-.43,4.37-2.45,6.6-5.75,7.12-8.97-.62,1.17-2,2.1-3.62,2.17-2.87.1-4.42-1.9-4.42-4.77s1.95-5.02,4.67-5.02c3.02,0,4.5,2.3,4.5,5.5,0,4.9-2.65,9.27-8.02,11.92-.05.02-.12.05-.17.05-.17,0-.38-.25-.38-.45ZM208.32,324.16c-.1-2.2-1.47-3.95-3.62-3.87-2.3.07-3.62,1.9-3.62,4.2s1.15,3.97,3.35,3.87c2.42-.1,4-2.15,3.9-4.2Z"/>
        </g>
        <g>
          <path class="cls-11" d="M239.3,335.03l-.08-.2c-.03-.08-.03-.12-.03-.18,0-.12.05-.25.18-.35,5.27-4.52,8.05-7.17,8.05-10.55,0-2.25-1.47-3.32-3.27-3.32s-3.1,1.3-3.72,2.15c-.08.1-.15.12-.2.12-.12,0-.2-.02-.35-.15-.15-.12-.2-.18-.2-.3,0-.05,0-.12.08-.23.12-.18,1.67-2.45,4.4-2.45,2.9,0,4.35,1.77,4.35,4.3,0,4.37-5.07,8-7.85,10.52l7.82.02c.17,0,.35.12.35.35v.2c0,.23-.17.35-.35.35l-8.75.02c-.2,0-.35-.1-.42-.33Z"/>
          <path class="cls-11" d="M251.73,327.63c0-4.72,2.6-8.12,5.7-8.12,3.52,0,4.82,4.22,4.82,7.7,0,4.97-2.2,8.57-5.67,8.57-2.4,0-4.85-1.95-4.85-8.15ZM261.28,327.43c.05-5.25-1.92-7.05-3.9-7.05-2.27,0-4.62,2.4-4.62,7.27s1.33,7.27,3.82,7.3c2.57.02,4.62-2.5,4.7-7.52Z"/>
        </g>
        <g>
          <path class="cls-11" d="M287.49,335.03l-.08-.2c-.03-.08-.03-.12-.03-.18,0-.12.05-.25.17-.35,5.27-4.52,8.05-7.17,8.05-10.55,0-2.25-1.47-3.32-3.28-3.32s-3.1,1.3-3.72,2.15c-.08.1-.15.12-.2.12-.12,0-.2-.02-.35-.15s-.2-.18-.2-.3c0-.05,0-.12.07-.23.12-.18,1.67-2.45,4.4-2.45,2.9,0,4.35,1.77,4.35,4.3,0,4.37-5.07,8-7.85,10.52l7.82.02c.18,0,.35.12.35.35v.2c0,.23-.17.35-.35.35l-8.75.02c-.2,0-.35-.1-.42-.33Z"/>
          <path class="cls-11" d="M303.84,319.91l-.35,15.45c0,.17-.12.3-.35.3h-.17c-.23,0-.33-.17-.33-.27l.22-14.37c-.82.57-1.9,1.25-2.5,1.55-.27.15-.42.15-.58-.15-.05-.1-.07-.18-.07-.23,0-.12.07-.2.2-.27.45-.27,2.12-1.42,2.88-2.07.2-.17.3-.2.42-.2h.3c.15,0,.32.12.32.27Z"/>
        </g>
        <g>
          <path class="cls-11" d="M335.67,335.03l-.07-.2c-.03-.08-.03-.12-.03-.18,0-.12.05-.25.17-.35,5.27-4.52,8.05-7.17,8.05-10.55,0-2.25-1.47-3.32-3.27-3.32s-3.1,1.3-3.72,2.15c-.08.1-.15.12-.2.12-.12,0-.2-.02-.35-.15s-.2-.18-.2-.3c0-.05,0-.12.08-.23.12-.18,1.67-2.45,4.4-2.45,2.9,0,4.35,1.77,4.35,4.3,0,4.37-5.07,8-7.85,10.52l7.82.02c.17,0,.35.12.35.35v.2c0,.23-.18.35-.35.35l-8.75.02c-.2,0-.35-.1-.42-.33Z"/>
          <path class="cls-11" d="M347.85,335.03l-.07-.2c-.03-.08-.03-.12-.03-.18,0-.12.05-.25.17-.35,5.27-4.52,8.05-7.17,8.05-10.55,0-2.25-1.47-3.32-3.27-3.32s-3.1,1.3-3.72,2.15c-.08.1-.15.12-.2.12-.12,0-.2-.02-.35-.15s-.2-.18-.2-.3c0-.05,0-.12.08-.23.12-.18,1.67-2.45,4.4-2.45,2.9,0,4.35,1.77,4.35,4.3,0,4.37-5.07,8-7.85,10.52l7.82.02c.17,0,.35.12.35.35v.2c0,.23-.18.35-.35.35l-8.75.02c-.2,0-.35-.1-.42-.33Z"/>
        </g>
        <g>
          <path class="cls-11" d="M383.85,335.03l-.08-.2c-.03-.08-.03-.12-.03-.18,0-.12.05-.25.18-.35,5.27-4.52,8.05-7.17,8.05-10.55,0-2.25-1.47-3.32-3.27-3.32s-3.1,1.3-3.72,2.15c-.08.1-.15.12-.2.12-.12,0-.2-.02-.35-.15-.15-.12-.2-.18-.2-.3,0-.05,0-.12.08-.23.12-.18,1.67-2.45,4.4-2.45,2.9,0,4.35,1.77,4.35,4.3,0,4.37-5.07,8-7.85,10.52l7.82.02c.17,0,.35.12.35.35v.2c0,.23-.17.35-.35.35l-8.75.02c-.2,0-.35-.1-.42-.33Z"/>
          <path class="cls-11" d="M396.15,336.95c-.2,0-.35-.18-.35-.48,0-.17.03-.3.53-.38,3.65-.57,7.7-2.55,7.7-6.3,0-2.97-2.67-3.45-5.75-2.7-.2.05-.35-.17-.35-.4v-.2c0-.22.1-.27.35-.32,1.95-.35,5.22-1.65,5.22-3.77,0-1.5-1.32-2.15-2.62-2.15-1.38,0-2.7.75-3.97,2.02-.1.07-.18.07-.25.07-.17,0-.3-.05-.4-.2-.08-.1-.1-.18-.1-.27,0-.08.02-.15.1-.23,1.45-1.45,3.12-2.25,4.75-2.25,1.72,0,3.5.92,3.5,2.97,0,2.22-1.82,3.17-3.5,3.72,1.85.05,4.02.75,4.02,3.67,0,4.2-3.92,6.25-7.95,7.02-.53.1-.83.15-.92.15Z"/>
        </g>
        <g>
          <path class="cls-10" d="M432.04,335.03l-.08-.2c-.03-.08-.03-.12-.03-.18,0-.12.05-.25.18-.35,5.27-4.52,8.05-7.17,8.05-10.55,0-2.25-1.47-3.32-3.27-3.32s-3.1,1.3-3.72,2.15c-.08.1-.15.12-.2.12-.12,0-.2-.02-.35-.15-.15-.12-.2-.18-.2-.3,0-.05,0-.12.08-.23.12-.18,1.67-2.45,4.4-2.45,2.9,0,4.35,1.77,4.35,4.3,0,4.37-5.07,8-7.85,10.52l7.82.02c.17,0,.35.12.35.35v.2c0,.23-.17.35-.35.35l-8.75.02c-.2,0-.35-.1-.42-.33Z"/>
          <path class="cls-10" d="M454.83,330.91v.08c0,.23-.15.35-.35.35h-2.65l-.17,4.12c-.03.18-.23.33-.38.33h-.12c-.15,0-.35-.12-.35-.3l.12-4.15h-6.6c-.38,0-.58-.25-.58-.62,0-.1.03-.2.1-.33.92-1.17,5.1-6.95,7.55-11.32.12-.23.2-.28.35-.28.08,0,.25.08.42.18.12.07.2.12.2.27,0,.07-.03.15-.17.42-2.17,3.95-4.67,7.32-7.4,10.87h6.15l.15-5.1c0-.15.12-.35.3-.35l.33.02c.2,0,.32.17.32.35l-.2,5.07h2.62c.22,0,.35.15.35.37Z"/>
        </g>
        <g>
          <path class="cls-11" d="M195.29,278.34l-.35,15.45c0,.17-.12.3-.35.3h-.17c-.22,0-.33-.17-.33-.27l.23-14.37c-.83.57-1.9,1.25-2.5,1.55-.27.15-.42.15-.57-.15-.05-.1-.08-.18-.08-.23,0-.12.08-.2.2-.27.45-.27,2.12-1.42,2.87-2.07.2-.17.3-.2.42-.2h.3c.15,0,.33.12.33.27Z"/>
          <path class="cls-11" d="M199.55,293.46l-.08-.2c-.03-.08-.03-.12-.03-.18,0-.12.05-.25.18-.35,5.27-4.52,8.05-7.17,8.05-10.55,0-2.25-1.47-3.32-3.27-3.32s-3.1,1.3-3.72,2.15c-.08.1-.15.12-.2.12-.12,0-.2-.02-.35-.15-.15-.12-.2-.18-.2-.3,0-.05,0-.12.08-.23.12-.18,1.67-2.45,4.4-2.45,2.9,0,4.35,1.77,4.35,4.3,0,4.37-5.07,8-7.85,10.52l7.82.02c.17,0,.35.12.35.35v.2c0,.23-.17.35-.35.35l-8.75.02c-.2,0-.35-.1-.42-.33Z"/>
        </g>
        <g>
          <path class="cls-11" d="M243.48,278.34l-.35,15.45c0,.17-.12.3-.35.3h-.17c-.22,0-.33-.17-.33-.27l.23-14.37c-.83.57-1.9,1.25-2.5,1.55-.27.15-.42.15-.57-.15-.05-.1-.08-.18-.08-.23,0-.12.08-.2.2-.27.45-.27,2.12-1.42,2.87-2.07.2-.17.3-.2.42-.2h.3c.15,0,.33.12.33.27Z"/>
          <path class="cls-11" d="M247.85,295.39c-.2,0-.35-.18-.35-.48,0-.17.03-.3.53-.38,3.65-.57,7.7-2.55,7.7-6.3,0-2.97-2.67-3.45-5.75-2.7-.2.05-.35-.17-.35-.4v-.2c0-.22.1-.27.35-.32,1.95-.35,5.22-1.65,5.22-3.77,0-1.5-1.32-2.15-2.62-2.15-1.38,0-2.7.75-3.97,2.02-.1.07-.18.07-.25.07-.17,0-.3-.05-.4-.2-.08-.1-.1-.18-.1-.27,0-.08.02-.15.1-.23,1.45-1.45,3.12-2.25,4.75-2.25,1.72,0,3.5.92,3.5,2.97,0,2.22-1.82,3.17-3.5,3.72,1.85.05,4.02.75,4.02,3.67,0,4.2-3.92,6.25-7.95,7.02-.53.1-.83.15-.92.15Z"/>
        </g>
        <g>
          <path class="cls-11" d="M291.66,278.34l-.35,15.45c0,.17-.12.3-.35.3h-.17c-.23,0-.33-.17-.33-.27l.22-14.37c-.82.57-1.9,1.25-2.5,1.55-.28.15-.42.15-.58-.15-.05-.1-.08-.18-.08-.23,0-.12.08-.2.2-.27.45-.27,2.12-1.42,2.88-2.07.2-.17.3-.2.42-.2h.3c.15,0,.32.12.32.27Z"/>
          <path class="cls-11" d="M306.53,289.34v.08c0,.23-.15.35-.35.35h-2.65l-.17,4.12c-.02.18-.22.33-.38.33h-.12c-.15,0-.35-.12-.35-.3l.12-4.15h-6.6c-.38,0-.57-.25-.57-.62,0-.1.02-.2.1-.33.92-1.17,5.1-6.95,7.55-11.32.12-.23.2-.28.35-.28.07,0,.25.08.42.18.12.07.2.12.2.27,0,.07-.02.15-.17.42-2.17,3.95-4.67,7.32-7.4,10.87h6.15l.15-5.1c0-.15.12-.35.3-.35l.33.02c.2,0,.33.17.33.35l-.2,5.07h2.62c.23,0,.35.15.35.37Z"/>
        </g>
        <g>
          <path class="cls-11" d="M339.84,278.34l-.35,15.45c0,.17-.12.3-.35.3h-.17c-.23,0-.33-.17-.33-.27l.22-14.37c-.82.57-1.9,1.25-2.5,1.55-.28.15-.42.15-.58-.15-.05-.1-.08-.18-.08-.23,0-.12.08-.2.2-.27.45-.27,2.12-1.42,2.88-2.07.2-.17.3-.2.42-.2h.3c.15,0,.32.12.32.27Z"/>
          <path class="cls-11" d="M344.55,295.39c-.25,0-.38-.18-.38-.5,0-.25.2-.3.35-.32,4.07-.68,7.2-2.67,7.2-6.05,0-2.72-1.87-3.8-4.47-3.8-.55,0-1.77.2-2.12.3-.23.05-.45-.1-.42-.3l1.07-5.75c.08-.45.35-.75.75-.75,3.07,0,3.57-.05,5.02-.33.35-.07.45-.1.58-.1.17,0,.3.17.3.35v.3c0,.32-.3.4-1.47.55-.7.1-1.57.15-4.22.15l-1,4.85c.45-.07,1.2-.15,1.55-.15,3.67,0,5.45,1.57,5.45,4.8,0,3.6-3.05,5.7-7,6.55-.3.05-1.02.2-1.17.2Z"/>
        </g>
        <g>
          <path class="cls-11" d="M388.03,278.34l-.35,15.45c0,.17-.12.3-.35.3h-.17c-.22,0-.33-.17-.33-.27l.23-14.37c-.83.57-1.9,1.25-2.5,1.55-.27.15-.42.15-.57-.15-.05-.1-.08-.18-.08-.23,0-.12.08-.2.2-.27.45-.27,2.12-1.42,2.87-2.07.2-.17.3-.2.42-.2h.3c.15,0,.33.12.33.27Z"/>
          <path class="cls-11" d="M401.43,277.19c0,.2-.17.33-.33.42-4.37,2.45-6.6,5.75-7.12,8.97.62-1.17,2-2.1,3.62-2.17,2.88-.1,4.42,1.9,4.42,4.77s-1.95,5.02-4.67,5.02c-3.02,0-4.5-2.3-4.5-5.5,0-4.9,2.65-9.27,8.02-11.92.05-.02.12-.05.17-.05.17,0,.38.25.38.45ZM393.83,289.56c.1,2.2,1.47,3.95,3.62,3.87,2.3-.07,3.62-1.9,3.62-4.2s-1.15-3.97-3.35-3.87c-2.42.1-4,2.15-3.9,4.2Z"/>
        </g>
        <g>
          <path class="cls-10" d="M436.21,278.34l-.35,15.45c0,.17-.12.3-.35.3h-.17c-.23,0-.33-.17-.33-.27l.22-14.37c-.82.57-1.9,1.25-2.5,1.55-.28.15-.42.15-.58-.15-.05-.1-.08-.18-.08-.23,0-.12.08-.2.2-.27.45-.27,2.12-1.42,2.88-2.07.2-.17.3-.2.42-.2h.3c.15,0,.32.12.32.27Z"/>
          <path class="cls-10" d="M450.36,278.99c0,.07-.07.25-.25.47-3.77,4.87-6.27,10.65-6.77,15.35-.03.28-.18.33-.35.33h-.25c-.2,0-.35-.15-.32-.38.72-7.2,5.12-13.55,6.6-15.57h-3.37c-3.12,0-3.65.15-4.82.55-.25.08-.3,0-.45-.37-.05-.12-.05-.2-.05-.25,0-.2.1-.35.32-.4,1.05-.3,1.6-.45,4.77-.45,1.65,0,3.75-.02,4.25-.02.2,0,.38.02.62.5.05.1.07.17.07.25Z"/>
        </g>
        <path class="cls-11" d="M191.57,251.98c-.25,0-.38-.18-.38-.5,0-.25.2-.3.35-.32,4.07-.68,7.2-2.67,7.2-6.05,0-2.72-1.88-3.8-4.47-3.8-.55,0-1.78.2-2.12.3-.22.05-.45-.1-.42-.3l1.08-5.75c.07-.45.35-.75.75-.75,3.07,0,3.57-.05,5.02-.33.35-.07.45-.1.57-.1.18,0,.3.17.3.35v.3c0,.32-.3.4-1.47.55-.7.1-1.58.15-4.22.15l-1,4.85c.45-.07,1.2-.15,1.55-.15,3.67,0,5.45,1.57,5.45,4.8,0,3.6-3.05,5.7-7,6.55-.3.05-1.02.2-1.17.2Z"/>
        <path class="cls-11" d="M248.45,233.79c0,.2-.17.33-.33.42-4.37,2.45-6.6,5.75-7.12,8.97.62-1.17,2-2.1,3.62-2.17,2.88-.1,4.42,1.9,4.42,4.77s-1.95,5.02-4.67,5.02c-3.02,0-4.5-2.3-4.5-5.5,0-4.9,2.65-9.27,8.02-11.92.05-.02.12-.05.17-.05.17,0,.38.25.38.45ZM240.85,246.16c.1,2.2,1.47,3.95,3.62,3.87,2.3-.07,3.62-1.9,3.62-4.2s-1.15-3.97-3.35-3.87c-2.42.1-4,2.15-3.9,4.2Z"/>
        <path class="cls-11" d="M297.38,235.59c0,.07-.07.25-.25.47-3.77,4.87-6.27,10.65-6.77,15.35-.03.28-.18.33-.35.33h-.25c-.2,0-.35-.15-.32-.38.72-7.2,5.12-13.55,6.6-15.57h-3.37c-3.12,0-3.65.15-4.82.55-.25.08-.3,0-.45-.37-.05-.12-.05-.2-.05-.25,0-.2.1-.35.32-.4,1.05-.3,1.6-.45,4.77-.45,1.65,0,3.75-.02,4.25-.02.2,0,.38.02.62.5.05.1.07.17.07.25Z"/>
        <path class="cls-11" d="M335.95,246.58c0-2.72,2.47-4.17,4.22-5.05-1.52-1.1-2.9-2.02-2.97-3.65-.05-2.12,1.72-3.37,3.97-3.37,2.77,0,3.97,1.72,4.02,3.17.05,1.88-1.45,2.82-3.27,3.9,2,1.4,3.77,2.5,3.77,5,0,1.67-1.07,4.27-4.97,4.27-2.8,0-4.77-1.42-4.77-4.27ZM344.69,246.41c-.08-2.02-1.92-3.07-3.67-4.3-2.85,1.25-4.17,2.77-4.1,4.67.1,2.75,2.2,3.3,3.77,3.3,1.32,0,4.1-.83,4-3.67ZM344.32,237.71c-.05-1.07-.92-2.42-3.1-2.42s-3.15,1.25-3.1,2.55c.05,1.37,1.42,2.17,3,3.25,2.05-1.12,3.22-2.17,3.2-3.37Z"/>
        <path class="cls-11" d="M385.03,251.56c0-.2.17-.33.32-.43,4.37-2.45,6.6-5.75,7.12-8.97-.62,1.17-2,2.1-3.62,2.17-2.88.1-4.42-1.9-4.42-4.77s1.95-5.02,4.67-5.02c3.02,0,4.5,2.3,4.5,5.5,0,4.9-2.65,9.27-8.02,11.92-.05.02-.12.05-.17.05-.18,0-.38-.25-.38-.45ZM392.63,239.19c-.1-2.2-1.47-3.95-3.62-3.87-2.3.07-3.62,1.9-3.62,4.2s1.15,3.97,3.35,3.87c2.42-.1,4-2.15,3.9-4.2Z"/>
        <g>
          <path class="cls-10" d="M436.21,234.94l-.35,15.45c0,.17-.12.3-.35.3h-.17c-.23,0-.33-.17-.33-.27l.22-14.37c-.82.57-1.9,1.25-2.5,1.55-.28.15-.42.15-.58-.15-.05-.1-.08-.18-.08-.23,0-.12.08-.2.2-.27.45-.27,2.12-1.42,2.88-2.07.2-.17.3-.2.42-.2h.3c.15,0,.32.12.32.27Z"/>
          <path class="cls-10" d="M440.71,242.66c0-4.72,2.6-8.12,5.7-8.12,3.52,0,4.82,4.22,4.82,7.7,0,4.97-2.2,8.57-5.67,8.57-2.4,0-4.85-1.95-4.85-8.15ZM450.26,242.46c.05-5.25-1.92-7.05-3.9-7.05-2.27,0-4.62,2.4-4.62,7.27s1.32,7.27,3.82,7.3c2.58.02,4.62-2.5,4.7-7.52Z"/>
        </g>
      </g>
      <g>
        <path class="cls-7" d="M433.22,530.73c-29.64-78.41-125.85-43.23-134.74-4.07-12.24-41.73-106.08-72.86-134.73,4.13-31.89,85.75,123.6,162.7,134.73,175.31,11.11-10.02,166.62-91.02,134.74-175.37Z"/>
        <g class="cls-20">
          <path class="cls-13" d="M433.22,530.73c-29.64-78.41-125.85-43.23-134.74-4.07-12.24-41.73-106.08-72.86-134.73,4.13-31.89,85.75,123.6,162.7,134.73,175.31,11.11-10.02,166.62-91.02,134.74-175.37Z"/>
        </g>
      </g>
      <path class="cls-19" d="M84.65,388.39c-7.33-15.04-21.15-5.38-21.19,2.76-3.35-8.1-19.08-11.88-20.9,4.42-2.03,18.16,24.9,29.55,27.08,31.8,1.39-2.32,22.9-22.81,15.02-38.98Z"/>
      <path class="cls-19" d="M78.33,454.32c-6.81-7.21-12.91.71-11.5,5.32-3.33-3.99-12.9-3.34-11.04,6.2,2.07,10.63,19.32,12.3,20.95,13.19.38-1.56,8.91-16.96,1.59-24.71Z"/>
      <g>
        <path class="cls-8" d="M197.03,522.63s21.8-4.81,42.02,16.82c1.4,1.5,3.1,2.65,4.95,3.4,2.2.88,5.03,1.52,7.32.36,4.43-2.23-20.06,17-39.66,4.91,0,0-12.45-5.82-17.96-15.16"/>
        <path class="cls-12" d="M327.39,727.33s-8.6-18.69.93-30.28c0,0,1.56,11.59,3.74,11.83,0,0-.48-9.18,7.25-17.39,7.73-8.21-1.45,27.05-1.45,27.05-4.59,6.76,5.07-.48,5.55-4.59.48-4.11,4.3,8.32-16.93,20.94"/>
        <g>
          <path class="cls-12" d="M194.13,654.2s26.86,27.12,41.72,20.5c1.59-.71-22.63,13.34-31.51,9.46-8.88-3.87,11.46-2.71,11.46-2.71,0,0,6.46,4.24,11.3,3.56,0,0-9.2,6.98-16.87,4.04l6.29-1.81s28.4,25.15,48.03,17.6c2.1-.81-5.97,12.75-16.95,13.24-10.98.48-18.1-.81-18.1-.81,0,0,12.42-6.9,17.61-3.55s10.84,7.1,17.77,5.81c0,0-10.18,10.01-18.25,9.69-8.07-.32,1.78-8.88,1.78-8.88,0,0,34.87,18.08,56.67-7.26,0,0,1.1,11.79-4.68,15.01s11.88-7.34,16.95-8.72c5.65-1.53,31.07-9.14-8.09,27.05-39.16,36.18-121.97-36.95-121.97-36.95l6.83-55.26Z"/>
          <path class="cls-8" d="M194.13,654.2s33.01,99.09,110.43,74.58-52.72,99.13-127.74-3.23c-77.81-106.16,17.31-71.35,17.31-71.35Z"/>
        </g>
        <path class="cls-8" d="M200.7,693.86s14.23,92.58-16.34,90.73-10.3-9.05-14.36-39.81c-1.92-14.57-12.83-16.54-12.83-16.54h0s-12.71,2.46-13.61,16.54c-1.97,30.97,16.2,37.96-14.36,39.81s-16.34-90.73-16.34-90.73l19.61-107.43h50.04l18.18,107.43Z"/>
        <path class="cls-8" d="M192.76,673.1s-4.52,12.99.54,23.15"/>
        <path class="cls-8" d="M118.32,522.24s-21.87-4.38-41.44,17.71c-1.36,1.53-3.02,2.72-4.84,3.5-2.17.93-4.98,1.62-7.29.51-4.48-2.14,20.47,16.63,39.69,4.11,0,0,12.26-6.08,17.49-15.56"/>
        <path class="cls-8" d="M118.01,672.7s36.15,25.31,26.98,27.55c-20.29,4.97-58.06,3.27-48.36-39.18,13.52-59.14,32.57-63.14,32.57-63.14h55.17v.19s19.05,4,32.57,63.14c9.7,42.45-27.64,44.79-47.1,39.41-9.1-2.52,25.72-27.77,25.72-27.77"/>
        <path class="cls-16" d="M176.79,599.22h-34.31c-13.8-21.38-39.69,144.73,2.71,166.6-1.11-5.36-2.18-12.23-1.62-21.04.9-14.08,13.61-16.54,13.61-16.54,0,0,10.9,1.97,12.83,16.54,1.16,8.77.34,15.62-.72,20.98,36.62-12.96,15.08-171.77,7.5-166.54Z"/>
        <path class="cls-8" d="M202.94,554.92c2.06-4.02,3.2-8.38,3.2-12.93,0-20.23-22.27-36.64-49.75-36.64s-49.75,16.4-49.75,36.64c0,4.55,1.14,8.91,3.2,12.93-6.91,5.17-11,11.54-11,18.43,0,17.32,25.77,31.36,57.55,31.36s57.55-14.04,57.55-31.36c0-6.89-4.09-13.26-11-18.43Z"/>
        <path class="cls-15" d="M127.96,525.86l-12.88-43.7c-.44-1.5-1.94-2.33-3.34-1.86l-2.83.96c-1.4.47-2.18,2.08-1.73,3.58l4.72,16.03-7.14-5.99c-.92-.77-2.26-.6-2.98.39l-2.49,3.41c-.72.99-.56,2.42.37,3.2l16.62,13.92s.02.01.03.02l3.74,12.7c.44,1.5,1.94,2.33,3.34,1.86l2.83-.96c1.4-.47,2.18-2.08,1.73-3.58Z"/>
        <path class="cls-15" d="M184.83,527.5l12.88-43.7c.44-1.5,1.94-2.33,3.34-1.86l2.83.96c1.4.47,2.18,2.08,1.73,3.58l-4.72,16.03,7.14-5.99c.92-.77,2.26-.6,2.98.39l2.49,3.41c.72.99.56,2.42-.37,3.2l-16.62,13.92s-.02.01-.03.02l-3.74,12.7c-.44,1.5-1.94,2.33-3.34,1.86l-2.83-.96c-1.4-.47-2.18-2.08-1.73-3.58Z"/>
        <path class="cls-12" d="M186.85,519.07c6.77,5.49,2.6,10.47-8.92,11.51-1.95,6.16-11.26,8.38-21.54,4.77-10.28,3.62-19.59,1.39-21.54-4.77-11.52-1.04-15.69-6.02-8.92-11.51-6.77-5.49-2.6-10.47,8.92-11.51,1.95-6.16,11.26-8.38,21.54-4.77,10.28-3.62,19.59-1.39,21.54,4.77,11.52,1.04,15.69,6.02,8.92,11.51Z"/>
        <ellipse class="cls-16" cx="156.39" cy="584.7" rx="32.23" ry="13.22"/>
        <rect class="cls-12" x="119.01" y="545.45" width="20.47" height="4.57" rx="2.2" ry="2.2"/>
        <rect class="cls-12" x="172.29" y="545.45" width="20.47" height="4.57" rx="2.2" ry="2.2"/>
        <ellipse class="cls-3" cx="113.32" cy="572.68" rx="16.36" ry="10.99"/>
        <ellipse class="cls-1" cx="199.99" cy="573.84" rx="16.36" ry="10.99"/>
        <path class="cls-23" d="M139.55,581.39s-31.38-17.92-52.93,16.61-34.97,11.42-36.38,11.42"/>
        <path class="cls-23" d="M172.29,581.31s31.38-17.92,52.93,16.61c21.54,34.53,34.97,11.42,36.38,11.42"/>
        <path class="cls-22" d="M129.24,631.49s30.08,18.16,55.1,0"/>
        <path class="cls-22" d="M129.24,658.27s30.08,18.16,55.1,0"/>
        <path class="cls-22" d="M129.24,685.04s30.08,18.16,55.1,0"/>
        <path class="cls-22" d="M129.24,711.82s30.08,18.16,55.1,0"/>
        <g>
          <line class="cls-21" x1="121.45" y1="554.63" x2="138.17" y2="558.99"/>
          <line class="cls-21" x1="138.17" y1="559.01" x2="121.45" y2="563.36"/>
        </g>
        <g>
          <line class="cls-21" x1="191.61" y1="554.63" x2="174.89" y2="558.99"/>
          <line class="cls-21" x1="174.89" y1="559.01" x2="191.61" y2="563.36"/>
        </g>
        <ellipse class="cls-17" cx="156.08" cy="588" rx="5.76" ry="8.84"/>
      </g>
      <use transform="translate(210.66 488.28) scale(.24)" xlink:href="#image"/>
      <g>
        <path class="cls-7" d="M125.82,677.41c6.45-17.07,27.4-9.41,29.34-.89,2.66-9.09,23.1-15.87,29.34.9,6.94,18.67-26.92,35.43-29.34,38.18-2.42-2.18-36.28-19.82-29.34-38.19Z"/>
        <g class="cls-25">
          <path class="cls-13" d="M125.82,677.41c6.45-17.07,27.4-9.41,29.34-.89,2.66-9.09,23.1-15.87,29.34.9,6.94,18.67-26.92,35.43-29.34,38.18-2.42-2.18-36.28-19.82-29.34-38.19Z"/>
        </g>
      </g>
      <g class="cls-26">
        <path class="cls-8" d="M118,675.64s36.15,25.31,26.98,27.55c-20.29,4.97-58.06,3.27-48.36-39.18,13.52-59.14,32.57-63.14,32.57-63.14h55.17v.19s19.05,4,32.57,63.14c9.7,42.45-27.64,44.79-47.1,39.41-9.1-2.52,25.72-27.77,25.72-27.77"/>
      </g>
      <use transform="translate(178.32 663.66) rotate(-180) scale(.05 -.05)" xlink:href="#image"/>
    </g>
  </g>
</svg>