<?xml version="1.0" encoding="UTF-8"?>
<svg id="_レイヤー_2" data-name="レイヤー 2" xmlns="http://www.w3.org/2000/svg" xmlns:xlink="http://www.w3.org/1999/xlink" viewBox="0 0 596.28 842.89">
  <defs>
    <style>
      .cls-1 {
        clip-path: url(#clippath);
      }

      .cls-2, .cls-3, .cls-4, .cls-5 {
        fill: none;
      }

      .cls-2, .cls-6, .cls-7, .cls-8, .cls-9, .cls-10, .cls-11, .cls-12, .cls-13, .cls-14, .cls-15, .cls-16 {
        stroke-width: 0px;
      }

      .cls-3 {
        stroke-width: .9px;
      }

      .cls-3, .cls-4, .cls-17, .cls-18, .cls-5, .cls-19 {
        stroke-miterlimit: 10;
      }

      .cls-3, .cls-4, .cls-5 {
        stroke-linecap: round;
      }

      .cls-3, .cls-17, .cls-5 {
        stroke: #231815;
      }

      .cls-4 {
        stroke: #040000;
      }

      .cls-20 {
        clip-path: url(#clippath-1);
      }

      .cls-21 {
        fill: #1c4ea0;
      }

      .cls-21, .cls-22, .cls-23, .cls-24 {
        font-family: PShirotaeOldStdN-L-83pv-RKSJ-H, 'A P-OTF Shirotae Old StdN';
        font-size: 25px;
      }

      .cls-21, .cls-22, .cls-23, .cls-24, .cls-25 {
        letter-spacing: -.05em;
      }

      .cls-22, .cls-24, .cls-8 {
        fill: #231815;
      }

      .cls-17, .cls-18, .cls-13 {
        fill: #fff;
      }

      .cls-18 {
        stroke: #afafaf;
      }

      .cls-23 {
        fill: #e83818;
      }

      .cls-5 {
        stroke-width: .46px;
      }

      .cls-24 {
        opacity: .3;
      }

      .cls-25 {
        fill: #1a499d;
        font-family: Phosphate-Inline, Phosphate;
        font-size: 60px;
      }

      .cls-19 {
        fill: #f0c670;
        stroke: #515151;
        stroke-width: .75px;
      }

      .cls-6 {
        fill: #62bb7e;
      }

      .cls-7 {
        fill: #202e6a;
      }

      .cls-9 {
        fill: #c4e1b9;
      }

      .cls-10 {
        fill: #a0865c;
      }

      .cls-11 {
        fill: #fcf8d1;
      }

      .cls-12 {
        fill: #f1f08e;
      }

      .cls-14 {
        fill: #f5deec;
      }

      .cls-15 {
        fill: #f4f4f4;
      }

      .cls-16 {
        fill: #040000;
      }
    </style>
    <clipPath id="clippath">
      <rect class="cls-2" x="351.75" y="646.56" width="138.86" height="34.6" transform="translate(842.37 1327.73) rotate(-180)"/>
    </clipPath>
    <clipPath id="clippath-1">
      <rect class="cls-2" x="349.18" y="646.1" width="139.46" height="38.63" transform="translate(837.83 1330.83) rotate(-180)"/>
    </clipPath>
  </defs>
  <g id="_9月" data-name="9月">
    <rect class="cls-17" x=".5" y=".5" width="595.28" height="841.89"/>
    <g>
      <path class="cls-7" d="M457.01,584.59c-20.08-14.43-31.11-38.62-30.31-63.95.03-.83.04-1.67.04-2.5,0-53.31-53.42-96.53-119.31-96.53-30.69,0-57,9.57-81.29,18.3-20.24,7.27-54.99,19.03-67.94,20.03-65.71,5.08-119.31,43.22-119.31,96.53,0,32.34,19.65,60.96,49.82,78.47,12.18,7.07,19.37,20.59,19.33,35.08,0,.09,0,.17,0,.26,0,53.31,53.42,96.53,119.31,96.53,24,0,44.23-1.71,67.9-5.55,14.51-2.35,27.75-4.4,43.43-5.71,11.86-1,24.56-2.23,39.14-2.23,65.89,0,119.31-43.22,119.31-96.53,0-28.72-15.5-54.51-40.11-72.19Z"/>
      <text class="cls-25" transform="translate(126.3 101.02)"><tspan x="0" y="0">S e p t e m b e r </tspan></text>
      <g>
        <text class="cls-24" transform="translate(333.86 380.59)"><tspan x="0" y="0">3</tspan></text>
        <text class="cls-22" transform="translate(189.31 166.44)"><tspan x="0" y="0">Su</tspan></text>
        <text class="cls-22" transform="translate(237.49 166.44)"><tspan x="0" y="0">Mo</tspan></text>
        <text class="cls-22" transform="translate(285.68 166.44)"><tspan x="0" y="0">Tu</tspan></text>
        <text class="cls-22" transform="translate(333.86 166.44)"><tspan x="0" y="0">We</tspan></text>
        <text class="cls-22" transform="translate(382.04 166.44)"><tspan x="0" y="0">Th</tspan></text>
        <text class="cls-21" transform="translate(430.23 166.44)"><tspan x="0" y="0">Fr</tspan></text>
        <text class="cls-23" transform="translate(141.13 165.54)"><tspan x="0" y="0">Sa</tspan></text>
        <text class="cls-22" transform="translate(141.13 209.88)"><tspan x="0" y="0">1</tspan></text>
        <text class="cls-22" transform="translate(189.31 209.88)"><tspan x="0" y="0">2</tspan></text>
        <text class="cls-22" transform="translate(237.49 209.85)"><tspan x="0" y="0">3</tspan></text>
        <text class="cls-22" transform="translate(285.68 209.85)"><tspan x="0" y="0">4</tspan></text>
        <text class="cls-22" transform="translate(333.86 209.85)"><tspan x="0" y="0">5</tspan></text>
        <text class="cls-22" transform="translate(382.04 209.95)"><tspan x="0" y="0">6</tspan></text>
        <text class="cls-22" transform="translate(430.23 209.85)"><tspan x="0" y="0">7</tspan></text>
        <text class="cls-22" transform="translate(141.13 253.25)"><tspan x="0" y="0">8</tspan></text>
        <text class="cls-22" transform="translate(141.13 296.66)"><tspan x="0" y="0">15</tspan></text>
        <text class="cls-22" transform="translate(141.13 338.22)"><tspan x="0" y="0">22</tspan></text>
        <text class="cls-22" transform="translate(141.13 380.74)"><tspan x="0" y="0">29</tspan></text>
        <text class="cls-22" transform="translate(189.31 380.74)"><tspan x="0" y="0">30</tspan></text>
        <text class="cls-24" transform="translate(237.49 380.74)"><tspan x="0" y="0">1</tspan></text>
        <text class="cls-24" transform="translate(285.68 380.74)"><tspan x="0" y="0">2</tspan></text>
        <text class="cls-24" transform="translate(382.04 380.74)"><tspan x="0" y="0">4</tspan></text>
        <text class="cls-24" transform="translate(430.23 380.74)"><tspan x="0" y="0">5</tspan></text>
        <text class="cls-22" transform="translate(189.31 338.22)"><tspan x="0" y="0">23</tspan></text>
        <text class="cls-22" transform="translate(237.49 338.22)"><tspan x="0" y="0">24</tspan></text>
        <text class="cls-22" transform="translate(285.68 338.22)"><tspan x="0" y="0">25</tspan></text>
        <text class="cls-22" transform="translate(333.86 338.22)"><tspan x="0" y="0">26</tspan></text>
        <text class="cls-22" transform="translate(382.04 338.22)"><tspan x="0" y="0">27</tspan></text>
        <text class="cls-22" transform="translate(430.23 338.22)"><tspan x="0" y="0">28</tspan></text>
        <text class="cls-22" transform="translate(189.31 296.66)"><tspan x="0" y="0">16</tspan></text>
        <text class="cls-22" transform="translate(237.49 296.66)"><tspan x="0" y="0">17</tspan></text>
        <text class="cls-22" transform="translate(285.68 296.66)"><tspan x="0" y="0">18</tspan></text>
        <text class="cls-22" transform="translate(333.86 296.66)"><tspan x="0" y="0">19</tspan></text>
        <text class="cls-22" transform="translate(382.04 296.66)"><tspan x="0" y="0">20</tspan></text>
        <text class="cls-22" transform="translate(430.23 296.66)"><tspan x="0" y="0">21</tspan></text>
        <text class="cls-22" transform="translate(189.31 253.25)"><tspan x="0" y="0">9</tspan></text>
        <text class="cls-22" transform="translate(237.49 253.25)"><tspan x="0" y="0">10</tspan></text>
        <text class="cls-22" transform="translate(285.68 253.25)"><tspan x="0" y="0">11</tspan></text>
        <text class="cls-22" transform="translate(333.86 253.25)"><tspan x="0" y="0">12</tspan></text>
        <text class="cls-22" transform="translate(382.04 253.25)"><tspan x="0" y="0">13</tspan></text>
        <text class="cls-22" transform="translate(430.23 253.25)"><tspan x="0" y="0">14</tspan></text>
      </g>
      <circle class="cls-12" cx="304.32" cy="467.37" r="31.46"/>
      <path class="cls-13" d="M277.91,486.07h18.4c-.9-1.32-1.42-2.9-1.42-4.61,0-4.52,3.7-8.21,8.21-8.21h59.13c4.52,0,8.21,3.7,8.21,8.21s-3.7,8.21-8.21,8.21h-18.4c.9,1.32,1.42,2.9,1.42,4.61,0,4.52-3.7,8.21-8.21,8.21h-59.13c-4.52,0-8.21-3.7-8.21-8.21s3.7-8.21,8.21-8.21Z"/>
      <path class="cls-6" d="M380.91,495.76s-21.8-4.81-42.02,16.82c-1.4,1.5-3.1,2.65-4.95,3.4-2.2.88-5.03,1.52-7.32.36-4.43-2.23,20.06,17,39.66,4.91,0,0,12.45-5.82,17.96-15.16"/>
      <path class="cls-9" d="M569.48,700.47s-6.96-18.69.76-30.28c0,0,1.27,11.59,3.03,11.83,0,0-.39-9.18,5.87-17.39,6.26-8.21-1.17,27.05-1.17,27.05-3.72,6.76,4.11-.48,4.5-4.59.39-4.11,3.48,8.32-13.71,20.94"/>
      <g>
        <path class="cls-9" d="M461.55,627.33s21.76,27.12,33.79,20.5c1.28-.71-18.33,13.34-25.52,9.46-7.19-3.87,9.28-2.71,9.28-2.71,0,0,5.23,4.24,9.15,3.56,0,0-7.45,6.98-13.66,4.04l5.1-1.81s23,25.15,38.9,17.6c1.7-.81-4.84,12.75-13.73,13.24s-14.66-.81-14.66-.81c0,0,10.06-6.9,14.26-3.55s8.78,7.1,14.39,5.81c0,0-8.25,10.01-14.78,9.69-6.54-.32,1.44-8.88,1.44-8.88,0,0,28.24,18.08,45.89-7.26,0,0,.89,11.79-3.79,15.01s9.62-7.34,13.73-8.72c4.58-1.53,25.17-9.14-6.55,27.05-31.71,36.18-98.78-36.95-98.78-36.95l5.53-55.26Z"/>
        <path class="cls-6" d="M461.55,627.33s26.74,99.09,89.44,74.58c62.7-24.52-42.7,99.13-103.46-3.23-63.01-106.16,14.02-71.35,14.02-71.35Z"/>
      </g>
      <path class="cls-6" d="M377.24,667s-14.23,92.58,16.34,90.73c30.57-1.85,8-9.05,12.07-39.81,1.92-14.57,11.35-16.54,11.35-16.54h3.77s7.37,2.46,8.27,16.54c1.97,30.97-10.86,37.96,19.7,39.81,30.57,1.85,16.34-90.73,16.34-90.73l-19.61-107.43h-50.04s-18.18,107.43-18.18,107.43Z"/>
      <path class="cls-6" d="M385.18,646.24s4.52,12.99-.54,23.15"/>
      <path class="cls-6" d="M459.62,495.38s21.87-4.38,41.44,17.71c1.36,1.53,3.02,2.72,4.84,3.5,2.17.93,4.98,1.62,7.29.51,4.48-2.14-20.47,16.63-39.69,4.11,0,0-12.26-6.08-17.49-15.56"/>
      <path class="cls-6" d="M459.93,645.83s-49.76,17.18-46.09,25.88c5.31,12.58,77.17,4.94,67.47-37.51-13.52-59.14-32.57-63.14-32.57-63.14h-55.17s0,.19,0,.19c0,0-27.07,2.73-32.57,63.14-3.65,40.11,14.25,38.71,33.82,36.48,9.38-1.07-12.44-24.85-12.44-24.85"/>
      <path class="cls-11" d="M399.63,572.36h30.37c12.21-21.38,35.13,144.73-2.4,166.6.99-5.36,1.93-12.23,1.43-21.04-.79-14.08-12.04-16.54-12.04-16.54,0,0-9.65,1.97-11.35,16.54-1.02,8.77-.3,15.62.63,20.98-32.41-12.96-13.35-171.77-6.64-166.54Z"/>
      <path class="cls-6" d="M375,528.06c-2.06-4.02-3.2-8.38-3.2-12.93,0-20.23,22.27-36.64,49.75-36.64,27.48,0,49.75,16.4,49.75,36.64,0,4.55-1.14,8.91-3.2,12.93,6.91,5.17,11,11.54,11,18.43,0,17.32-25.77,31.36-57.55,31.36-31.79,0-57.55-14.04-57.55-31.36,0-6.89,4.09-13.26,11-18.43Z"/>
      <path class="cls-10" d="M449.98,498.99l12.88-43.7c.44-1.5,1.94-2.33,3.34-1.86l2.83.96c1.4.47,2.18,2.08,1.73,3.58l-4.72,16.03,7.14-5.99c.92-.77,2.26-.6,2.98.39l2.49,3.41c.72.99.56,2.42-.37,3.2l-16.62,13.92s-.02.01-.03.02l-3.74,12.7c-.44,1.5-1.94,2.33-3.34,1.86l-2.83-.96c-1.4-.47-2.18-2.08-1.73-3.58Z"/>
      <path class="cls-10" d="M393.11,500.64l-12.88-43.7c-.44-1.5-1.94-2.33-3.34-1.86l-2.83.96c-1.4.47-2.18,2.08-1.73,3.58l4.72,16.03-7.14-5.99c-.92-.77-2.26-.6-2.98.39l-2.49,3.41c-.72.99-.56,2.42.37,3.2l16.62,13.92s.02.01.03.02l3.74,12.7c.44,1.5,1.94,2.33,3.34,1.86l2.83-.96c1.4-.47,2.18-2.08,1.73-3.58Z"/>
      <path class="cls-9" d="M391.09,492.21c-6.77,5.49-2.6,10.47,8.92,11.51,1.95,6.16,11.26,8.38,21.54,4.77,10.28,3.62,19.59,1.39,21.54-4.77,11.52-1.04,15.69-6.02,8.92-11.51,6.77-5.49,2.6-10.47-8.92-11.51-1.95-6.16-11.26-8.38-21.54-4.77-10.28-3.62-19.59-1.39-21.54,4.77-11.52,1.04-15.69,6.02-8.92,11.51Z"/>
      <ellipse class="cls-11" cx="407.85" cy="557.84" rx="28.05" ry="13.22"/>
      <rect class="cls-9" x="430.72" y="518.58" width="19.18" height="4.57" rx="2.13" ry="2.13" transform="translate(880.63 1041.74) rotate(-180)"/>
      <rect class="cls-9" x="380.81" y="518.58" width="19.18" height="4.57" rx="2.13" ry="2.13" transform="translate(780.79 1041.74) rotate(-180)"/>
      <path class="cls-5" d="M394.9,559.57c0,2.01,4.79,3.65,10.7,3.65,5.91,0,10.7-1.63,10.7-3.65"/>
      <ellipse class="cls-14" cx="457.14" cy="540.18" rx="6.31" ry="3.45"/>
      <ellipse class="cls-14" cx="371.51" cy="540.1" rx="6.31" ry="3.45"/>
      <path class="cls-3" d="M422.5,554.52s27.31-17.92,46.06,16.61,30.43,11.42,31.66,11.42"/>
      <path class="cls-3" d="M394.01,554.45s-27.31-17.92-46.06,16.61c-18.75,34.53-30.43,11.42-31.66,11.42"/>
      <path class="cls-4" d="M440.92,604.63s-22.29,18.16-47.32,0"/>
      <path class="cls-4" d="M443.59,631.4s-24.97,18.16-49.99,0"/>
      <path class="cls-4" d="M448.7,658.18s-30.08,18.16-55.1,0"/>
      <path class="cls-4" d="M442.08,684.95s-23.46,18.16-48.48,0"/>
      <ellipse class="cls-18" cx="410.76" cy="657.32" rx="27.3" ry="21.48"/>
      <g>
        <ellipse class="cls-13" cx="289.84" cy="666.29" rx="10.13" ry="7.97"/>
        <ellipse class="cls-13" cx="310.05" cy="666.19" rx="10.13" ry="7.97"/>
        <ellipse class="cls-13" cx="330.27" cy="666.15" rx="10.13" ry="7.97"/>
        <ellipse class="cls-13" cx="320.14" cy="652.41" rx="10.13" ry="7.97"/>
        <ellipse class="cls-13" cx="299.83" cy="652.41" rx="10.13" ry="7.97"/>
        <ellipse class="cls-13" cx="310.01" cy="638.71" rx="10.13" ry="7.97"/>
      </g>
      <g class="cls-1">
        <g class="cls-20">
          <path class="cls-6" d="M460,645.8s-49.76,17.18-46.09,25.88c5.31,12.58,77.17,4.94,67.47-37.51-13.52-59.14-32.57-63.14-32.57-63.14h-55.17s0,.19,0,.19c0,0-27.07,2.73-32.57,63.14-3.65,40.11,14.25,38.71,33.82,36.48,9.38-1.07-12.44-24.85-12.44-24.85"/>
        </g>
      </g>
      <circle class="cls-8" cx="385.73" cy="532.32" r="2.57"/>
      <circle class="cls-8" cx="431.29" cy="534.34" r="2.57"/>
      <path class="cls-13" d="M163.75,512.06h-16.9c.82-1.21,1.31-2.67,1.31-4.23,0-4.15-3.39-7.54-7.54-7.54h-54.31c-4.15,0-7.54,3.39-7.54,7.54s3.39,7.54,7.54,7.54h16.9c-.82,1.21-1.31,2.67-1.31,4.23,0,4.15,3.39,7.54,7.54,7.54h54.31c4.15,0,7.54-3.39,7.54-7.54s-3.39-7.54-7.54-7.54Z"/>
      <g>
        <path class="cls-19" d="M339.64,721.02v-37.47c0-2.69-2.18-4.88-4.88-4.88h-48.15c-2.69,0-4.88,2.18-4.88,4.88v37.58s.01.09.01.13v9.39c0,.49.4.89.89.89h9.56c.49,0,.89-.4.89-.89v-4.65h35.22v4.65c0,.49.4.89.89.89h9.56c.49,0,.89-.4.89-.89v-9.56s-.01-.05-.01-.07Z"/>
        <rect class="cls-19" x="273.84" y="673.2" width="73.72" height="14.38" rx="3.03" ry="3.03"/>
        <circle class="cls-16" cx="310.43" cy="700.3" r="6.76"/>
      </g>
      <polygon class="cls-13" points="310.7 691.2 296.11 672.81 325.29 672.81 310.7 691.2"/>
      <g>
        <path class="cls-13" d="M188.33,701.5l1.88-.58c-.01-.12-.02-.24-.03-.36-.72-7.75,3.71-21.73,11.48-30.5-7.55-5.2-12.51-13.9-12.51-23.76,0-5.38,1.48-10.42,4.05-14.73-2.98-3.09-6.09-7-8.99-11.48-8.23-12.7-11.67-25.09-7.69-27.67,3.98-2.58,13.88,5.63,22.1,18.34,1.27,1.96,2.42,3.9,3.45,5.81-.55-1.97-1.04-4.03-1.47-6.17-2.96-14.84-1.59-27.63,3.07-28.55,4.65-.93,10.82,10.35,13.77,25.2.73,3.66,1.19,7.19,1.41,10.46,13.91.42,25.34,10.69,27.55,24.08,3.22,2.26,5.43,6.18,4.99,9.82-.97,8.11-10.41,14.76-16.98,18.73-.34.2-.65.35-.94.46,0,0-.02,0-.02.01,8.06,7.86,13.93,19.36,14.5,25.95.12,1.36.26,2.7.4,4.02l.38.03c6.53.53,11.74,6.92,11.56,14.18l-.17,7.1c-.17,7.27-5.65,12.78-12.19,12.24l-7.27-.59c-1.43-.12-2.79-.53-4.05-1.15-3.64,1.19-8.22,2.04-14.01,2.49-10.07.78-16.88-.01-21.53-2.01l-3.51,1.08c-6.22,1.91-12.95-2.29-14.95-9.32l-1.96-6.87c-2-7.03,1.44-14.35,7.66-16.25Z"/>
        <circle class="cls-15" cx="205.04" cy="718.33" r="5.45"/>
      </g>
    </g>
  </g>
</svg>