<svg width="490" height="340" viewBox="0 0 490 340" fill="none" xmlns="http://www.w3.org/2000/svg">
<rect x="30" y="30" width="430" height="280" fill="white"/>
<g filter="url(#filter0_d_205_3797)">
<rect x="20" y="20" width="450" height="300" fill="#CF9F96"/>
</g>
<rect x="30" y="30" width="430" height="280" fill="#EAD7CC"/>
<path d="M367.12 128.26H376.16V123.46H367.12V128.26ZM365.76 130.58L365.84 127.58V124.06C364.54 124.68 363.1 125.26 361.48 125.76C361.28 125.32 361.06 124.98 360.72 124.62C363.86 123.72 366.3 122.62 368.26 121.38C368.48 121.24 368.68 121.1 368.9 120.96C367.92 119.94 366.72 119.06 365.64 118.38L366.48 117.58C367.74 118.28 368.9 119.12 370 120.14C371.74 118.74 373.04 117.2 374.08 115.54H367C365.52 117.28 363.8 118.68 361.68 119.82C361.44 119.4 361.2 119.1 360.88 118.84C363.38 117.62 366.24 114.88 367.28 113.06C367.54 112.6 367.66 112.32 367.84 111.9C369.34 112.36 369.68 112.48 369.68 112.7C369.68 112.94 369.52 113 368.86 113.02C368.54 113.52 368.2 114 367.86 114.46H374.52L375.02 114H375.26C376.22 114.84 376.4 115.06 376.4 115.26C376.4 115.42 376.28 115.54 375.62 115.7C374.04 118.2 371.94 120.46 368.88 122.38L368.84 122.4L370.54 122.38H375.14L377.46 122.3L377.54 122.38L377.46 124.7V127.48L377.54 130.48H376.16V129.38H367.12V130.58H365.76ZM398.98 115.66H397V117.8H398.62L400.94 117.72L401.02 117.8L400.94 119.72V120.1L401.02 121.92C401.08 123.12 400.52 123.38 399.4 123.38H398.64C398.6 122.96 398.46 122.48 398.24 122.08C398.62 122.14 399.08 122.16 399.48 122.16C399.66 122.16 399.78 122.1 399.78 121.76V118.86H397V124.98L397.08 130.46H395.76L395.94 123.22C395.02 125.14 393.54 126.8 391.42 128.18C391.22 127.8 390.98 127.38 390.68 127.12C393.4 125.56 394.88 123.6 395.84 121V118.86H393.36V123.28H392.12L392.2 120.68V119.52L392.12 117.8L392.2 117.72L394.52 117.8H395.84V115.66H393.7L390.9 115.74V114.54L393.7 114.62H395.84V113.8C395.84 113.22 395.78 112.7 395.68 112.22C397.44 112.34 397.66 112.48 397.66 112.68C397.66 112.9 397.48 113.02 397 113.12V114.62H398.98L401.58 114.54V115.74L398.98 115.66ZM408.2 113.7V125.1L408.28 128.36C408.32 129.72 408.04 130.26 405.72 130.26H404.98C404.9 129.88 404.7 129.24 404.42 128.86C405.18 128.96 405.74 128.98 406.3 128.98C406.74 128.98 406.94 128.8 406.94 128.34V114.38C406.94 113.8 406.9 113.32 406.8 112.84C408.56 112.94 408.84 113.08 408.84 113.28C408.84 113.44 408.7 113.58 408.2 113.7ZM397.1 124.56L397.92 123.92C399.38 124.82 400.44 125.6 401.46 126.6L400.58 127.42C399.5 126.26 398.44 125.38 397.1 124.56ZM404.26 115.72V122.72L404.34 125.72H402.98L403.06 122.72V116.36C403.06 115.78 403.02 115.3 402.92 114.82C404.66 114.94 404.86 115.08 404.86 115.28C404.86 115.44 404.68 115.54 404.26 115.72Z" fill="#6F6F6F"/>
<path d="M336 156H136V282.061H336V156Z" fill="white"/>
<path fill-rule="evenodd" clip-rule="evenodd" d="M136 156H336V282.061H136V156ZM136.182 156.182V281.879H335.818V156.182H136.182Z" fill="#231815"/>
<mask id="mask0_205_3797" style="mask-type:luminance" maskUnits="userSpaceOnUse" x="136" y="156" width="200" height="127">
<path d="M336 156H136V282.061H336V156Z" fill="white"/>
</mask>
<g mask="url(#mask0_205_3797)">
<path d="M240.242 192.364C252.962 192.364 263.273 182.053 263.273 169.334C263.273 156.614 252.962 146.303 240.242 146.303C227.523 146.303 217.212 156.614 217.212 169.334C217.212 182.053 227.523 192.364 240.242 192.364Z" fill="#FBFADB"/>
<path d="M231.152 297.818C244.206 297.818 254.788 287.236 254.788 274.182C254.788 261.128 244.206 250.545 231.152 250.545C218.098 250.545 207.515 261.128 207.515 274.182C207.515 287.236 218.098 297.818 231.152 297.818Z" fill="#FBFADB"/>
<path d="M152.364 183.879C164.079 183.879 173.576 174.382 173.576 162.667C173.576 150.952 164.079 141.455 152.364 141.455C140.649 141.455 131.152 150.952 131.152 162.667C131.152 174.382 140.649 183.879 152.364 183.879Z" fill="#E8F5F9"/>
<path d="M294.182 268.727C308.575 268.727 320.242 257.059 320.242 242.667C320.242 228.274 308.575 216.606 294.182 216.606C279.789 216.606 268.121 228.274 268.121 242.667C268.121 257.059 279.789 268.727 294.182 268.727Z" fill="#E8F5F9"/>
<path d="M318.424 208.121C336.164 208.121 350.545 193.469 350.545 175.394C350.545 157.319 336.164 142.667 318.424 142.667C300.684 142.667 286.303 157.319 286.303 175.394C286.303 193.469 300.684 208.121 318.424 208.121Z" fill="#FAEFF5"/>
<path d="M181.455 250.545C199.195 250.545 213.576 235.893 213.576 217.818C213.576 199.743 199.195 185.091 181.455 185.091C163.715 185.091 149.333 199.743 149.333 217.818C149.333 235.893 163.715 250.545 181.455 250.545Z" fill="#FAEFF5"/>
<path d="M300.793 231.942H303.199V232.249H300.793V231.942ZM301.83 231.295H302.149V232.087H301.83V231.295ZM301.375 232.376L301.672 232.502C301.493 232.861 301.217 233.237 300.92 233.496C300.872 233.434 300.767 233.342 300.692 233.29C300.972 233.058 301.235 232.691 301.375 232.376ZM302.289 232.511L302.543 232.367C302.827 232.647 303.138 233.036 303.278 233.299L302.998 233.461C302.875 233.198 302.569 232.796 302.289 232.511ZM301.515 233.176C301.821 234.029 302.451 234.743 303.282 235.044C303.208 235.11 303.103 235.241 303.055 235.333C302.193 234.974 301.572 234.213 301.23 233.259L301.515 233.176ZM302.399 233.154L302.727 233.224C302.438 234.169 301.834 234.935 300.793 235.338C300.758 235.263 300.679 235.141 300.622 235.079C301.598 234.716 302.171 234.003 302.399 233.154ZM299.27 232.236H300.758V232.546H299.27V232.236ZM299.918 231.295H300.224V235.316H299.918V231.295ZM299.905 232.428L300.11 232.498C299.975 233.198 299.673 234.056 299.358 234.498C299.323 234.41 299.244 234.283 299.187 234.209C299.485 233.815 299.778 233.058 299.905 232.428ZM300.202 232.852C300.312 232.975 300.71 233.548 300.797 233.684L300.609 233.938C300.5 233.71 300.172 233.176 300.045 232.992L300.202 232.852Z" fill="#231815"/>
<path d="M295.67 232.774H297.835V233.062H295.67V232.774ZM294.935 233.771H298.802V234.077H294.935V233.771ZM296.693 233.452H297.03V234.931C297.03 235.127 296.978 235.224 296.812 235.272C296.654 235.32 296.4 235.324 296.002 235.324C295.98 235.232 295.915 235.097 295.862 235.009C296.199 235.018 296.497 235.018 296.584 235.014C296.672 235.009 296.693 234.987 296.693 234.922V233.452ZM297.735 232.774H297.818L297.888 232.756L298.098 232.918C297.8 233.22 297.341 233.522 296.925 233.701C296.886 233.644 296.798 233.557 296.742 233.509C297.109 233.351 297.529 233.062 297.735 232.839V232.774ZM295.022 232.025H298.728V233.001H298.404V232.323H295.333V233.001H295.022V232.025ZM298.15 231.325L298.492 231.439C298.308 231.71 298.072 232.004 297.888 232.196L297.63 232.087C297.805 231.881 298.028 231.557 298.15 231.325ZM295.32 231.479L295.595 231.347C295.766 231.531 295.945 231.78 296.02 231.955L295.726 232.095C295.656 231.929 295.481 231.667 295.32 231.479ZM296.444 231.382L296.728 231.277C296.877 231.483 297.035 231.767 297.087 231.951L296.785 232.069C296.733 231.885 296.588 231.597 296.444 231.382Z" fill="#231815"/>
<path d="M290.853 232.166H292.069V232.415H290.853V232.166ZM292.865 232.166H294.103V232.415H292.865V232.166ZM293.963 231.505H294.291V234.874C294.291 235.097 294.239 235.202 294.09 235.254C293.937 235.311 293.679 235.316 293.281 235.316C293.263 235.224 293.206 235.071 293.158 234.974C293.46 234.992 293.762 234.987 293.85 234.983C293.937 234.979 293.963 234.957 293.963 234.874V231.505ZM290.879 231.505H292.261V233.111H290.879V232.835H291.951V231.781H290.879V231.505ZM294.134 231.505V231.781H292.988V232.839H294.134V233.115H292.673V231.505H294.134ZM290.695 231.505H291.019V235.32H290.695V231.505Z" fill="#231815"/>
<path d="M286.145 233.999H290.074V234.283H286.145V233.999ZM286.254 231.649H289.973V231.929H286.254V231.649ZM288.757 233.609H289.081V234.974C289.081 235.158 289.037 235.241 288.893 235.289C288.748 235.333 288.508 235.333 288.131 235.333C288.118 235.246 288.07 235.132 288.026 235.044C288.311 235.053 288.582 235.053 288.661 235.049C288.735 235.044 288.757 235.027 288.757 234.966V233.609ZM287.93 231.304H288.258V233.535H287.93V231.304ZM286.814 234.506L287.055 234.331C287.313 234.498 287.615 234.747 287.755 234.926L287.497 235.128C287.361 234.948 287.064 234.686 286.814 234.506ZM286.884 233.058V233.417H289.334V233.058H286.884ZM286.884 232.472V232.826H289.334V232.472H286.884ZM286.578 232.227H289.654V233.662H286.578V232.227Z" fill="#231815"/>
<path d="M283.362 232.967C283.922 233.295 284.64 233.798 285.073 234.148L284.815 234.454C284.412 234.087 283.664 233.549 283.122 233.212L283.362 232.967ZM285.362 232.17C285.327 232.232 285.283 232.332 285.261 232.402C285.13 232.849 284.854 233.43 284.469 233.903C284.071 234.393 283.502 234.861 282.671 235.167L282.36 234.892C283.174 234.647 283.769 234.183 284.163 233.715C284.5 233.312 284.776 232.757 284.876 232.35H283.257L283.397 232.035H284.789C284.907 232.035 285.003 232.022 285.073 231.995L285.362 232.17ZM283.887 231.536C283.813 231.65 283.734 231.799 283.69 231.882C283.432 232.363 282.938 233.024 282.238 233.505L281.949 233.282C282.697 232.814 283.148 232.157 283.349 231.755C283.393 231.68 283.463 231.523 283.489 231.409L283.887 231.536Z" fill="#231815"/>
<path d="M277.613 233.076C277.749 233.089 277.977 233.102 278.226 233.102C278.545 233.102 280.3 233.102 280.623 233.102C280.842 233.102 280.995 233.084 281.096 233.076V233.504C281.004 233.5 280.82 233.487 280.628 233.487C280.295 233.487 278.55 233.487 278.226 233.487C277.985 233.487 277.753 233.496 277.613 233.504V233.076Z" fill="#231815"/>
<path d="M276.017 232.892C276.003 232.931 275.99 232.988 275.99 233.028C275.951 233.356 275.793 234.406 275.741 234.712H275.373C275.421 234.476 275.583 233.404 275.596 233.124C275.325 233.124 274.328 233.124 274.21 233.124C274.083 233.124 273.965 233.128 273.855 233.137V232.769C273.96 232.783 274.096 232.791 274.205 232.791C274.371 232.791 275.29 232.791 275.535 232.791C275.605 232.791 275.715 232.783 275.75 232.761L276.017 232.892ZM273.444 234.572C273.549 234.585 273.676 234.594 273.807 234.594C274.043 234.594 275.964 234.594 276.196 234.594C276.292 234.594 276.45 234.585 276.542 234.576V234.931C276.458 234.926 276.301 234.926 276.205 234.926C275.96 234.926 274.026 234.926 273.807 234.926C273.676 234.926 273.575 234.931 273.444 234.935V234.572Z" fill="#231815"/>
<path d="M271.738 231.921C271.738 232.078 271.869 232.209 272.026 232.209C272.184 232.209 272.32 232.078 272.32 231.921C272.32 231.763 272.184 231.632 272.026 231.632C271.869 231.632 271.738 231.763 271.738 231.921ZM271.536 231.921C271.536 231.649 271.755 231.431 272.026 231.431C272.298 231.431 272.521 231.649 272.521 231.921C272.521 232.192 272.298 232.411 272.026 232.411C271.755 232.411 271.536 232.192 271.536 231.921ZM269.642 231.689C269.629 231.794 269.616 231.921 269.616 232.043C269.616 232.279 269.616 234.038 269.616 234.353C269.616 234.581 269.712 234.638 269.922 234.677C270.062 234.703 270.285 234.712 270.499 234.712C270.963 234.712 271.633 234.668 272 234.572V234.975C271.619 235.031 270.963 235.062 270.486 235.062C270.224 235.062 269.966 235.053 269.782 235.023C269.449 234.961 269.261 234.808 269.261 234.45C269.261 234.029 269.261 232.279 269.261 232.043C269.261 231.938 269.253 231.794 269.235 231.689H269.642ZM269.454 233.071C269.983 232.958 270.775 232.717 271.283 232.503C271.414 232.441 271.541 232.38 271.668 232.301L271.821 232.651C271.694 232.704 271.536 232.774 271.405 232.826C270.863 233.045 269.996 233.299 269.458 233.434L269.454 233.071Z" fill="#231815"/>
<path d="M265.039 231.768C265.346 231.973 265.91 232.428 266.151 232.669L265.879 232.949C265.656 232.721 265.114 232.249 264.786 232.034L265.039 231.768ZM264.663 234.699C265.424 234.585 265.993 234.318 266.409 234.06C267.087 233.636 267.616 232.988 267.87 232.446L268.08 232.822C267.783 233.365 267.275 233.96 266.614 234.375C266.172 234.651 265.621 234.922 264.891 235.058L264.663 234.699Z" fill="#231815"/>
<path d="M260.419 231.974C260.568 231.987 260.756 232 260.9 232H263.053C263.162 232 263.289 231.996 263.377 231.991C263.372 232.087 263.368 232.227 263.368 232.328V234.59C263.368 234.747 263.381 234.944 263.385 235.01H262.992C262.992 234.944 263 234.782 263 234.625V232.346H260.9C260.739 232.346 260.524 232.354 260.419 232.363V231.974ZM260.367 234.389C260.476 234.397 260.669 234.411 260.848 234.411H263.197V234.769H260.861C260.682 234.769 260.485 234.774 260.367 234.787V234.389Z" fill="#231815"/>
<path d="M259.434 232.782H259.048C259.026 232.672 258.986 232.574 258.929 232.49C258.873 232.406 258.804 232.336 258.724 232.279C258.644 232.221 258.555 232.178 258.458 232.149C258.361 232.12 258.259 232.105 258.153 232.105C257.961 232.105 257.786 232.154 257.63 232.251C257.474 232.348 257.351 232.492 257.259 232.681C257.167 232.871 257.122 233.104 257.122 233.379C257.122 233.655 257.167 233.887 257.259 234.077C257.351 234.266 257.474 234.41 257.63 234.507C257.786 234.604 257.961 234.653 258.153 234.653C258.259 234.653 258.361 234.639 258.458 234.61C258.555 234.581 258.644 234.538 258.724 234.481C258.804 234.423 258.873 234.352 258.929 234.268C258.986 234.183 259.026 234.085 259.048 233.976H259.434C259.405 234.138 259.352 234.284 259.275 234.412C259.199 234.541 259.103 234.65 258.989 234.74C258.875 234.829 258.747 234.897 258.606 234.944C258.465 234.99 258.314 235.014 258.153 235.014C257.882 235.014 257.641 234.947 257.429 234.815C257.218 234.682 257.052 234.494 256.931 234.249C256.81 234.005 256.749 233.715 256.749 233.379C256.749 233.043 256.81 232.753 256.931 232.509C257.052 232.265 257.218 232.076 257.429 231.943C257.641 231.811 257.882 231.745 258.153 231.745C258.314 231.745 258.465 231.768 258.606 231.815C258.747 231.861 258.875 231.93 258.989 232.02C259.103 232.109 259.199 232.217 259.275 232.346C259.352 232.473 259.405 232.619 259.434 232.782Z" fill="#231815"/>
<path d="M256.251 232.782H255.865C255.843 232.672 255.803 232.574 255.746 232.49C255.69 232.406 255.621 232.336 255.541 232.279C255.461 232.221 255.372 232.178 255.275 232.149C255.178 232.12 255.076 232.105 254.97 232.105C254.778 232.105 254.603 232.154 254.447 232.251C254.291 232.348 254.168 232.492 254.075 232.681C253.984 232.871 253.939 233.104 253.939 233.379C253.939 233.655 253.984 233.887 254.075 234.077C254.168 234.266 254.291 234.41 254.447 234.507C254.603 234.604 254.778 234.653 254.97 234.653C255.076 234.653 255.178 234.639 255.275 234.61C255.372 234.581 255.461 234.538 255.541 234.481C255.621 234.423 255.69 234.352 255.746 234.268C255.803 234.183 255.843 234.085 255.865 233.976H256.251C256.222 234.138 256.169 234.284 256.092 234.412C256.015 234.541 255.92 234.65 255.806 234.74C255.692 234.829 255.564 234.897 255.422 234.944C255.282 234.99 255.131 235.014 254.97 235.014C254.699 235.014 254.458 234.947 254.246 234.815C254.035 234.682 253.869 234.494 253.748 234.249C253.626 234.005 253.566 233.715 253.566 233.379C253.566 233.043 253.626 232.753 253.748 232.509C253.869 232.265 254.035 232.076 254.246 231.943C254.458 231.811 254.699 231.745 254.97 231.745C255.131 231.745 255.282 231.768 255.422 231.815C255.564 231.861 255.692 231.93 255.806 232.02C255.92 232.109 256.015 232.217 256.092 232.346C256.169 232.473 256.222 232.619 256.251 232.782Z" fill="#231815"/>
<path d="M251.075 234.97V231.789H252.996V232.13H251.461V233.206H252.896V233.547H251.461V234.629H253.021V234.97H251.075Z" fill="#231815"/>
<path d="M295.646 238.939L295.975 239.022C295.734 239.67 295.345 240.278 294.938 240.672C294.872 240.615 294.736 240.505 294.653 240.462C295.069 240.098 295.432 239.53 295.646 238.939ZM295.576 239.481H298.398V239.801H295.419L295.576 239.481ZM295.362 240.475H298.302V240.781H295.69V241.818H295.362V240.475ZM294.64 241.652H298.604V241.971H294.64V241.652ZM296.675 239.648H297.011V242.982H296.675V239.648Z" fill="#231815"/>
<path d="M291.14 242.627V242.299H292.111V239.901H291.372V239.643C291.731 239.586 292.002 239.547 292.212 239.416H292.514V242.299H293.424V242.627H291.14Z" fill="#231815"/>
<path d="M289.18 239.705C289.154 239.74 289.097 239.836 289.075 239.893C288.9 240.326 288.567 240.939 288.204 241.341C287.714 241.888 287.089 242.409 286.397 242.724L286.117 242.431C286.826 242.159 287.469 241.634 287.92 241.135C288.217 240.799 288.537 240.278 288.651 239.915C288.493 239.915 287.093 239.915 286.944 239.915C286.787 239.915 286.55 239.932 286.502 239.937V239.543C286.559 239.552 286.809 239.569 286.944 239.569C287.115 239.569 288.467 239.569 288.633 239.569C288.773 239.569 288.891 239.556 288.961 239.534L289.18 239.705ZM288.261 241.114C288.734 241.507 289.316 242.12 289.613 242.483L289.311 242.75C288.996 242.334 288.484 241.774 288.012 241.359L288.261 241.114Z" fill="#231815"/>
<path d="M281.969 240.732C282.104 240.746 282.332 240.759 282.581 240.759C282.901 240.759 284.655 240.759 284.979 240.759C285.198 240.759 285.351 240.741 285.451 240.732V241.161C285.36 241.157 285.176 241.144 284.983 241.144C284.651 241.144 282.905 241.144 282.581 241.144C282.341 241.144 282.109 241.152 281.969 241.161V240.732Z" fill="#231815"/>
<path d="M277.9 239.63C278.049 239.643 278.237 239.657 278.381 239.657H280.534C280.643 239.657 280.77 239.652 280.858 239.648C280.853 239.744 280.849 239.884 280.849 239.985V242.247C280.849 242.404 280.862 242.601 280.866 242.667H280.473C280.473 242.601 280.481 242.439 280.481 242.282V240.002H278.381C278.219 240.002 278.005 240.011 277.9 240.02V239.63ZM277.847 242.045C277.957 242.054 278.149 242.067 278.329 242.067H280.678V242.426H278.342C278.162 242.426 277.966 242.43 277.847 242.444V242.045Z" fill="#231815"/>
<path d="M273.77 239.424C274.076 239.63 274.64 240.085 274.881 240.326L274.61 240.606C274.387 240.378 273.844 239.906 273.516 239.691L273.77 239.424ZM273.394 242.356C274.155 242.242 274.724 241.975 275.139 241.717C275.817 241.292 276.347 240.645 276.601 240.102L276.811 240.479C276.513 241.021 276.006 241.616 275.345 242.032C274.903 242.308 274.352 242.579 273.621 242.714L273.394 242.356Z" fill="#231815"/>
<path d="M268.778 241.047C269.535 240.846 270.2 240.536 270.685 240.234C271.145 239.945 271.582 239.569 271.884 239.201L272.177 239.477C271.801 239.866 271.342 240.234 270.83 240.553C270.349 240.851 269.653 241.17 268.948 241.389L268.778 241.047ZM270.615 240.413L270.992 240.299V242.299C270.992 242.461 271 242.679 271.022 242.763H270.589C270.602 242.679 270.615 242.461 270.615 242.299V240.413Z" fill="#231815"/>
<path d="M267.509 239.293C267.592 239.451 267.706 239.722 267.767 239.897L267.548 239.971C267.487 239.788 267.387 239.525 267.299 239.359L267.509 239.293ZM267.947 239.158C268.03 239.32 268.143 239.586 268.209 239.761L267.99 239.836C267.92 239.639 267.824 239.39 267.732 239.223L267.947 239.158ZM267.093 240.698C267.093 241.862 266.844 242.461 265.846 242.907L265.549 242.632C266.345 242.325 266.743 241.949 266.743 240.724V239.661C266.743 239.49 266.73 239.346 266.721 239.302H267.115C267.111 239.346 267.093 239.49 267.093 239.661V240.698ZM265.518 239.333C265.514 239.372 265.496 239.495 265.496 239.648V241.253C265.496 241.411 265.51 241.603 265.514 241.647H265.129C265.133 241.603 265.146 241.42 265.146 241.253V239.648C265.146 239.556 265.142 239.429 265.129 239.333H265.518ZM264.236 240.181C264.276 240.186 264.49 240.208 264.678 240.208H267.575C267.767 240.208 267.916 240.195 267.977 240.186V240.558C267.929 240.549 267.767 240.545 267.575 240.545H264.678C264.486 240.545 264.289 240.553 264.236 240.558V240.181Z" fill="#231815"/>
<path d="M260.539 239.433C260.662 239.446 260.793 239.455 260.933 239.455C261.187 239.455 262.206 239.455 262.451 239.455C262.574 239.455 262.731 239.446 262.858 239.433V239.796C262.727 239.788 262.574 239.779 262.451 239.779C262.206 239.779 261.187 239.779 260.942 239.779C260.793 239.779 260.653 239.788 260.539 239.796V239.433ZM260.019 240.531C260.137 240.544 260.264 240.553 260.399 240.553C260.653 240.553 263.029 240.553 263.261 240.553C263.353 240.553 263.497 240.544 263.606 240.531V240.894C263.51 240.886 263.37 240.881 263.261 240.881C263.029 240.881 260.653 240.881 260.399 240.881C260.268 240.881 260.137 240.886 260.019 240.894V240.531ZM262.08 240.706C262.08 241.258 262.01 241.713 261.817 242.08C261.655 242.373 261.327 242.688 260.955 242.876L260.631 242.64C260.968 242.496 261.283 242.246 261.458 241.966C261.677 241.621 261.708 241.192 261.712 240.711L262.08 240.706ZM263.086 239.074C263.195 239.232 263.353 239.499 263.44 239.674L263.204 239.779C263.121 239.604 262.972 239.341 262.854 239.175L263.086 239.074ZM263.563 238.899C263.681 239.061 263.847 239.333 263.93 239.494L263.698 239.599C263.602 239.411 263.458 239.162 263.335 239L263.563 238.899Z" fill="#231815"/>
<path d="M257.319 242.627V239.445H257.686V240.62H257.717C257.744 240.578 257.781 240.526 257.829 240.461C257.878 240.396 257.947 240.338 258.037 240.287C258.128 240.236 258.251 240.21 258.407 240.21C258.608 240.21 258.785 240.26 258.938 240.36C259.091 240.461 259.211 240.603 259.297 240.788C259.383 240.972 259.426 241.19 259.426 241.44C259.426 241.693 259.383 241.912 259.297 242.097C259.211 242.282 259.092 242.425 258.94 242.526C258.787 242.627 258.612 242.677 258.413 242.677C258.26 242.677 258.137 242.652 258.045 242.601C257.953 242.549 257.882 242.491 257.832 242.425C257.782 242.359 257.744 242.304 257.717 242.261H257.673V242.627H257.319ZM257.68 241.434C257.68 241.614 257.706 241.773 257.759 241.911C257.812 242.048 257.889 242.155 257.99 242.233C258.092 242.309 258.216 242.348 258.363 242.348C258.517 242.348 258.645 242.307 258.747 242.226C258.851 242.145 258.928 242.035 258.98 241.897C259.033 241.758 259.059 241.604 259.059 241.434C259.059 241.266 259.033 241.115 258.982 240.98C258.931 240.845 258.854 240.737 258.75 240.659C258.648 240.579 258.519 240.539 258.363 240.539C258.214 240.539 258.089 240.577 257.987 240.653C257.886 240.727 257.809 240.832 257.757 240.966C257.706 241.1 257.68 241.256 257.68 241.434Z" fill="#231815"/>
<path d="M255.724 242.677C255.494 242.677 255.295 242.626 255.129 242.525C254.963 242.422 254.835 242.279 254.745 242.096C254.656 241.912 254.611 241.697 254.611 241.453C254.611 241.208 254.656 240.993 254.745 240.807C254.835 240.619 254.96 240.473 255.121 240.368C255.282 240.263 255.471 240.21 255.686 240.21C255.811 240.21 255.933 240.231 256.055 240.272C256.176 240.314 256.286 240.381 256.385 240.474C256.485 240.566 256.564 240.688 256.623 240.841C256.682 240.993 256.712 241.18 256.712 241.403V241.559H254.872V241.242H256.339C256.339 241.107 256.312 240.987 256.258 240.881C256.205 240.775 256.13 240.692 256.031 240.631C255.934 240.57 255.819 240.539 255.686 240.539C255.54 240.539 255.414 240.576 255.307 240.648C255.202 240.72 255.12 240.813 255.063 240.928C255.006 241.043 254.978 241.166 254.978 241.298V241.509C254.978 241.689 255.009 241.842 255.071 241.967C255.134 242.091 255.222 242.186 255.334 242.251C255.445 242.316 255.575 242.348 255.724 242.348C255.82 242.348 255.907 242.334 255.985 242.307C256.063 242.279 256.131 242.238 256.188 242.183C256.245 242.127 256.289 242.058 256.32 241.975L256.674 242.074C256.637 242.195 256.574 242.3 256.486 242.391C256.398 242.481 256.29 242.552 256.16 242.603C256.031 242.652 255.885 242.677 255.724 242.677Z" fill="#231815"/>
<path d="M251.42 242.627L250.55 239.445H250.941L251.606 242.037H251.637L252.315 239.445H252.75L253.427 242.037H253.458L254.123 239.445H254.515L253.645 242.627H253.247L252.545 240.092H252.52L251.818 242.627H251.42Z" fill="#231815"/>
<path d="M287.037 248.129H289.588V248.444H287.037V248.129ZM288.297 249.175H289.772V249.486H288.297V249.175ZM288.122 248.291H288.464V250.505L288.122 250.461V248.291ZM287.085 248.821L287.427 248.856C287.304 249.739 287.028 250.409 286.534 250.838C286.482 250.781 286.342 250.667 286.263 250.619C286.753 250.238 286.989 249.613 287.085 248.821ZM287.291 249.385C287.602 250.278 288.284 250.431 289.172 250.431C289.334 250.431 290.091 250.431 290.305 250.426C290.253 250.505 290.196 250.663 290.183 250.759H289.155C288.114 250.759 287.4 250.553 287.024 249.486L287.291 249.385ZM288.118 246.795H288.464V247.504H288.118V246.795ZM286.473 247.294H290.13V248.247H289.794V247.609H286.797V248.247H286.473V247.294Z" fill="#231815"/>
<path d="M283.782 248.667H284.123V250.409C284.123 250.606 284.071 250.702 283.913 250.75C283.756 250.798 283.502 250.803 283.117 250.803C283.095 250.711 283.038 250.575 282.99 250.483C283.296 250.496 283.594 250.492 283.682 250.488C283.76 250.483 283.782 250.466 283.782 250.4V248.667ZM282.382 247.031H285.143V247.333H282.382V247.031ZM285.02 247.031H285.108L285.182 247.009L285.418 247.193C285.055 247.561 284.513 247.959 284.062 248.208C284.018 248.138 283.918 248.037 283.857 247.985C284.263 247.771 284.775 247.386 285.02 247.101V247.031ZM281.971 248.427H285.633V248.742H281.971V248.427ZM282.981 247.841L283.152 247.6C283.66 247.806 284.377 248.121 284.753 248.313L284.574 248.593C284.215 248.396 283.502 248.064 282.981 247.841ZM285.519 248.427H285.585L285.646 248.405L285.908 248.523C285.672 248.908 285.392 249.332 285.125 249.595L284.85 249.433C285.073 249.197 285.344 248.816 285.519 248.488V248.427Z" fill="#231815"/>
<path d="M277.639 249.494H281.472V249.77H277.639V249.494ZM277.657 247.574H281.455V247.854H277.657V247.574ZM277.832 248.322H281.297V248.593H277.832V248.322ZM278.055 248.912H281.083V249.166H278.055V248.912ZM279.381 248.449H279.705V250.82H279.381V248.449ZM278.978 246.791H279.289V247.705H278.978V246.791ZM279.805 246.791H280.12V247.692H279.805V246.791ZM279.276 249.604L279.538 249.726C279.131 250.181 278.392 250.562 277.74 250.746C277.692 250.663 277.596 250.536 277.526 250.466C278.173 250.321 278.904 249.984 279.276 249.604ZM279.81 249.595C280.181 249.989 280.916 250.326 281.581 250.466C281.507 250.536 281.406 250.667 281.358 250.759C280.693 250.575 279.963 250.177 279.551 249.704L279.81 249.595ZM280.82 246.843L281.157 246.935C281.03 247.176 280.873 247.434 280.75 247.604L280.483 247.517C280.601 247.333 280.746 247.044 280.82 246.843ZM280.234 247.771L280.575 247.854C280.466 248.051 280.352 248.252 280.256 248.392L279.98 248.309C280.068 248.156 280.181 247.928 280.234 247.771ZM278.011 246.935L278.291 246.834C278.44 247.031 278.602 247.307 278.663 247.486L278.37 247.596C278.309 247.421 278.151 247.141 278.011 246.935ZM278.58 247.884L278.891 247.823C278.991 247.967 279.092 248.164 279.131 248.296L278.808 248.366C278.773 248.234 278.676 248.029 278.58 247.884Z" fill="#231815"/>
<path d="M274.988 249.136H275.329V250.816H274.988V249.136ZM273.221 249.438H277.132V249.757H273.221V249.438ZM274.988 246.795H275.329V247.482H274.988V246.795ZM273.339 247.359H277.009V247.67H273.339V247.359ZM274.262 247.714L274.59 247.788C274.389 248.427 273.999 248.947 273.531 249.28C273.479 249.223 273.347 249.109 273.269 249.052C273.728 248.764 274.091 248.291 274.262 247.714ZM275.968 247.718L276.296 247.784C276.104 248.387 275.719 248.86 275.259 249.153C275.207 249.092 275.08 248.978 275.001 248.93C275.456 248.667 275.806 248.247 275.968 247.718ZM274.144 248.383L274.336 248.177C274.572 248.335 274.879 248.558 275.027 248.707L274.822 248.934C274.682 248.781 274.376 248.545 274.144 248.383ZM275.784 248.436L276.008 248.226C276.353 248.453 276.808 248.786 277.036 249.004L276.799 249.249C276.585 249.031 276.134 248.676 275.784 248.436Z" fill="#231815"/>
<path d="M269.72 247.023H272.004V247.342H269.72V247.023ZM269.72 248.077H272.022V248.392H269.72V248.077ZM269.685 249.136H272V249.451H269.685V249.136ZM269.519 247.023H269.852V248.375C269.852 249.132 269.742 250.164 268.99 250.821C268.942 250.751 268.81 250.632 268.74 250.584C269.445 249.967 269.519 249.079 269.519 248.375V247.023ZM271.86 247.023H272.201V250.335C272.201 250.567 272.14 250.681 271.974 250.737C271.803 250.794 271.514 250.799 271.042 250.799C271.02 250.702 270.959 250.545 270.902 250.453C271.265 250.466 271.624 250.462 271.724 250.462C271.825 250.457 271.86 250.427 271.86 250.331V247.023Z" fill="#231815"/>
<path d="M267.232 250.51C267.027 250.51 266.844 250.474 266.684 250.404C266.524 250.334 266.398 250.236 266.303 250.11C266.21 249.984 266.159 249.837 266.151 249.671H266.543C266.551 249.773 266.586 249.862 266.648 249.936C266.71 250.01 266.792 250.067 266.892 250.107C266.993 250.148 267.104 250.168 267.226 250.168C267.363 250.168 267.484 250.144 267.59 250.096C267.695 250.049 267.778 249.982 267.838 249.897C267.898 249.813 267.928 249.714 267.928 249.602C267.928 249.485 267.899 249.382 267.841 249.293C267.783 249.203 267.698 249.133 267.587 249.082C267.475 249.031 267.338 249.006 267.176 249.006H266.922V248.664H267.176C267.303 248.664 267.414 248.641 267.509 248.596C267.605 248.55 267.68 248.486 267.734 248.403C267.789 248.32 267.817 248.223 267.817 248.111C267.817 248.003 267.793 247.909 267.745 247.83C267.697 247.75 267.63 247.688 267.543 247.643C267.457 247.599 267.356 247.576 267.239 247.576C267.129 247.576 267.025 247.597 266.928 247.637C266.832 247.676 266.753 247.734 266.692 247.809C266.631 247.884 266.597 247.974 266.592 248.08H266.219C266.226 247.913 266.276 247.767 266.37 247.642C266.464 247.515 266.588 247.417 266.74 247.346C266.893 247.276 267.061 247.241 267.245 247.241C267.442 247.241 267.61 247.281 267.751 247.36C267.892 247.439 268 247.543 268.076 247.673C268.152 247.802 268.189 247.942 268.189 248.092C268.189 248.271 268.142 248.424 268.048 248.55C267.955 248.677 267.828 248.764 267.667 248.813V248.838C267.868 248.871 268.025 248.956 268.138 249.094C268.251 249.231 268.307 249.4 268.307 249.602C268.307 249.775 268.26 249.931 268.166 250.068C268.073 250.205 267.945 250.313 267.784 250.392C267.622 250.47 267.438 250.51 267.232 250.51Z" fill="#231815"/>
<path d="M262.665 246.778L262.993 246.861C262.752 247.508 262.363 248.117 261.956 248.51C261.89 248.454 261.755 248.344 261.671 248.3C262.087 247.937 262.45 247.368 262.665 246.778ZM262.595 247.32H265.417V247.64H262.437L262.595 247.32ZM262.38 248.314H265.32V248.62H262.708V249.657H262.38V248.314ZM261.658 249.49H265.622V249.81H261.658V249.49ZM263.693 247.487H264.03V250.82H263.693V247.487Z" fill="#231815"/>
<path d="M260.108 250.51C259.978 250.508 259.847 250.483 259.717 250.435C259.586 250.387 259.467 250.307 259.359 250.194C259.252 250.08 259.165 249.927 259.1 249.733C259.035 249.538 259.002 249.294 259.002 248.999C259.002 248.718 259.029 248.468 259.081 248.251C259.134 248.032 259.211 247.848 259.311 247.699C259.412 247.549 259.533 247.435 259.675 247.357C259.818 247.28 259.979 247.241 260.158 247.241C260.336 247.241 260.495 247.276 260.634 247.348C260.773 247.418 260.887 247.517 260.975 247.643C261.063 247.769 261.12 247.915 261.146 248.08H260.767C260.732 247.937 260.664 247.818 260.562 247.724C260.461 247.63 260.326 247.583 260.158 247.583C259.912 247.583 259.717 247.69 259.575 247.904C259.435 248.119 259.364 248.419 259.363 248.807H259.387C259.445 248.719 259.514 248.644 259.594 248.582C259.675 248.518 259.764 248.47 259.861 248.435C259.959 248.401 260.062 248.384 260.171 248.384C260.353 248.384 260.52 248.43 260.671 248.521C260.822 248.611 260.943 248.736 261.034 248.895C261.126 249.054 261.171 249.236 261.171 249.441C261.171 249.638 261.127 249.818 261.039 249.981C260.951 250.144 260.827 250.273 260.668 250.37C260.509 250.465 260.323 250.512 260.108 250.51ZM260.108 250.168C260.239 250.168 260.356 250.135 260.459 250.07C260.564 250.005 260.646 249.917 260.707 249.807C260.768 249.698 260.798 249.575 260.798 249.441C260.798 249.309 260.769 249.19 260.71 249.082C260.652 248.973 260.571 248.887 260.469 248.822C260.367 248.758 260.251 248.726 260.121 248.726C260.022 248.726 259.931 248.746 259.846 248.785C259.761 248.823 259.686 248.876 259.622 248.944C259.559 249.011 259.509 249.088 259.473 249.175C259.437 249.261 259.419 249.352 259.419 249.447C259.419 249.573 259.448 249.691 259.507 249.801C259.567 249.911 259.649 250 259.753 250.067C259.857 250.134 259.976 250.168 260.108 250.168Z" fill="#231815"/>
<path d="M256.403 250.466V250.186L257.453 249.037C257.576 248.902 257.678 248.785 257.758 248.686C257.837 248.585 257.896 248.491 257.935 248.403C257.974 248.314 257.994 248.221 257.994 248.123C257.994 248.011 257.967 247.914 257.913 247.833C257.86 247.751 257.788 247.688 257.695 247.643C257.603 247.599 257.5 247.576 257.385 247.576C257.263 247.576 257.156 247.602 257.065 247.652C256.975 247.702 256.905 247.772 256.855 247.862C256.806 247.952 256.782 248.058 256.782 248.179H256.415C256.415 247.993 256.458 247.829 256.544 247.688C256.63 247.547 256.747 247.438 256.895 247.359C257.044 247.28 257.212 247.241 257.397 247.241C257.584 247.241 257.749 247.28 257.893 247.359C258.037 247.438 258.15 247.544 258.232 247.677C258.313 247.811 258.354 247.96 258.354 248.123C258.354 248.24 258.333 248.355 258.291 248.467C258.249 248.577 258.177 248.701 258.073 248.838C257.97 248.974 257.828 249.139 257.646 249.335L256.931 250.099V250.124H258.41V250.466H256.403Z" fill="#231815"/>
<path d="M254.706 250.51C254.472 250.51 254.273 250.446 254.108 250.319C253.943 250.19 253.818 250.004 253.731 249.761C253.644 249.516 253.6 249.221 253.6 248.875C253.6 248.531 253.644 248.238 253.731 247.994C253.819 247.75 253.945 247.563 254.11 247.435C254.275 247.305 254.474 247.241 254.706 247.241C254.938 247.241 255.137 247.305 255.301 247.435C255.467 247.563 255.593 247.75 255.68 247.994C255.768 248.238 255.812 248.531 255.812 248.875C255.812 249.221 255.769 249.516 255.682 249.761C255.595 250.004 255.469 250.19 255.304 250.319C255.14 250.446 254.94 250.51 254.706 250.51ZM254.706 250.168C254.938 250.168 255.118 250.056 255.247 249.832C255.375 249.609 255.44 249.289 255.44 248.875C255.44 248.6 255.41 248.365 255.351 248.171C255.293 247.978 255.209 247.83 255.099 247.729C254.991 247.627 254.86 247.576 254.706 247.576C254.476 247.576 254.297 247.69 254.167 247.917C254.038 248.142 253.973 248.462 253.973 248.875C253.973 249.151 254.002 249.385 254.06 249.577C254.118 249.77 254.201 249.917 254.31 250.017C254.42 250.118 254.552 250.168 254.706 250.168Z" fill="#231815"/>
<path d="M251.019 250.466V250.186L252.07 249.037C252.193 248.902 252.294 248.785 252.374 248.686C252.454 248.585 252.513 248.491 252.551 248.403C252.591 248.314 252.61 248.221 252.61 248.123C252.61 248.011 252.583 247.914 252.53 247.833C252.477 247.751 252.404 247.688 252.312 247.643C252.22 247.599 252.116 247.576 252.001 247.576C251.879 247.576 251.772 247.602 251.681 247.652C251.591 247.702 251.521 247.772 251.471 247.862C251.423 247.952 251.398 248.058 251.398 248.179H251.032C251.032 247.993 251.075 247.829 251.161 247.688C251.247 247.547 251.364 247.438 251.512 247.359C251.661 247.28 251.828 247.241 252.014 247.241C252.2 247.241 252.365 247.28 252.509 247.359C252.653 247.438 252.766 247.544 252.848 247.677C252.93 247.811 252.971 247.96 252.971 248.123C252.971 248.24 252.95 248.355 252.907 248.467C252.866 248.577 252.793 248.701 252.69 248.838C252.587 248.974 252.445 249.139 252.262 249.335L251.548 250.099V250.124H253.027V250.466H251.019Z" fill="#231815"/>
<path d="M201.511 210.165C201.31 210.165 201.127 210.127 200.962 210.051C200.798 209.974 200.668 209.863 200.571 209.718C200.474 209.571 200.426 209.394 200.426 209.187C200.426 209.005 200.462 208.857 200.534 208.744C200.605 208.629 200.701 208.54 200.822 208.475C200.942 208.41 201.074 208.361 201.219 208.33C201.366 208.297 201.513 208.27 201.661 208.251C201.854 208.226 202.011 208.207 202.131 208.195C202.252 208.181 202.341 208.158 202.396 208.127C202.453 208.095 202.481 208.04 202.481 207.961V207.944C202.481 207.74 202.425 207.581 202.313 207.468C202.203 207.355 202.035 207.298 201.81 207.298C201.576 207.298 201.393 207.349 201.261 207.451C201.128 207.554 201.035 207.663 200.981 207.779L200.517 207.613C200.6 207.42 200.71 207.269 200.848 207.161C200.988 207.052 201.14 206.976 201.304 206.933C201.47 206.889 201.633 206.867 201.793 206.867C201.895 206.867 202.013 206.88 202.145 206.904C202.279 206.928 202.408 206.977 202.533 207.052C202.658 207.126 202.763 207.239 202.845 207.389C202.928 207.54 202.97 207.741 202.97 207.994V210.091H202.481V209.66H202.456C202.423 209.729 202.368 209.803 202.29 209.881C202.213 209.96 202.11 210.027 201.982 210.082C201.853 210.137 201.696 210.165 201.511 210.165ZM201.586 209.726C201.779 209.726 201.942 209.688 202.075 209.612C202.209 209.536 202.31 209.438 202.377 209.318C202.446 209.198 202.481 209.071 202.481 208.939V208.491C202.46 208.516 202.415 208.539 202.344 208.56C202.275 208.579 202.195 208.596 202.104 208.611C202.014 208.625 201.926 208.638 201.841 208.649C201.757 208.658 201.688 208.667 201.636 208.674C201.509 208.69 201.39 208.717 201.279 208.754C201.17 208.79 201.082 208.845 201.014 208.918C200.948 208.99 200.915 209.088 200.915 209.212C200.915 209.382 200.978 209.51 201.103 209.598C201.23 209.683 201.391 209.726 201.586 209.726Z" fill="#231815"/>
<path d="M197.858 208.93L197.849 208.325H197.949L199.341 206.908H199.946L198.463 208.408H198.421L197.858 208.93ZM197.402 210.09V205.848H197.891V210.09H197.402ZM199.424 210.09L198.181 208.516L198.529 208.176L200.045 210.09H199.424Z" fill="#231815"/>
<path d="M195.051 210.165C194.85 210.165 194.667 210.127 194.502 210.051C194.338 209.974 194.207 209.863 194.111 209.718C194.014 209.571 193.966 209.394 193.966 209.187C193.966 209.005 194.002 208.857 194.073 208.744C194.145 208.629 194.241 208.54 194.361 208.475C194.481 208.41 194.614 208.361 194.759 208.33C194.905 208.297 195.053 208.27 195.2 208.251C195.394 208.226 195.55 208.207 195.671 208.195C195.792 208.181 195.88 208.158 195.936 208.127C195.992 208.095 196.021 208.04 196.021 207.961V207.944C196.021 207.74 195.965 207.581 195.853 207.468C195.742 207.355 195.575 207.298 195.349 207.298C195.116 207.298 194.933 207.349 194.801 207.451C194.668 207.554 194.575 207.663 194.521 207.779L194.057 207.613C194.14 207.42 194.25 207.269 194.388 207.161C194.528 207.052 194.68 206.976 194.844 206.933C195.01 206.889 195.173 206.867 195.333 206.867C195.435 206.867 195.552 206.88 195.685 206.904C195.819 206.928 195.948 206.977 196.072 207.052C196.198 207.126 196.302 207.239 196.385 207.389C196.468 207.54 196.51 207.741 196.51 207.994V210.091H196.021V209.66H195.996C195.963 209.729 195.907 209.803 195.83 209.881C195.753 209.96 195.65 210.027 195.521 210.082C195.393 210.137 195.236 210.165 195.051 210.165ZM195.126 209.726C195.319 209.726 195.482 209.688 195.615 209.612C195.749 209.536 195.849 209.438 195.917 209.318C195.986 209.198 196.021 209.071 196.021 208.939V208.491C196 208.516 195.954 208.539 195.884 208.56C195.815 208.579 195.735 208.596 195.644 208.611C195.554 208.625 195.466 208.638 195.381 208.649C195.296 208.658 195.228 208.667 195.175 208.674C195.048 208.69 194.93 208.717 194.819 208.754C194.71 208.79 194.622 208.845 194.554 208.918C194.488 208.99 194.455 209.088 194.455 209.212C194.455 209.382 194.517 209.51 194.643 209.598C194.77 209.683 194.931 209.726 195.126 209.726Z" fill="#231815"/>
<path d="M191.279 211.284C191.197 211.284 191.123 211.277 191.058 211.263C190.993 211.251 190.948 211.238 190.923 211.226L191.047 210.795C191.166 210.825 191.271 210.836 191.362 210.828C191.453 210.82 191.534 210.779 191.605 210.706C191.676 210.634 191.742 210.517 191.801 210.356L191.893 210.107L190.716 206.909H191.246L192.125 209.444H192.158L193.036 206.909H193.566L192.216 210.555C192.155 210.719 192.08 210.855 191.99 210.963C191.9 211.072 191.796 211.153 191.677 211.205C191.56 211.258 191.427 211.284 191.279 211.284Z" fill="#231815"/>
<path d="M188.728 210.165C188.526 210.165 188.343 210.127 188.179 210.051C188.014 209.974 187.884 209.863 187.787 209.718C187.691 209.571 187.642 209.394 187.642 209.187C187.642 209.005 187.678 208.857 187.75 208.744C187.822 208.629 187.918 208.54 188.038 208.475C188.158 208.41 188.291 208.361 188.436 208.33C188.582 208.297 188.729 208.27 188.877 208.251C189.07 208.226 189.227 208.207 189.347 208.195C189.469 208.181 189.557 208.158 189.612 208.127C189.669 208.095 189.697 208.04 189.697 207.961V207.944C189.697 207.74 189.641 207.581 189.529 207.468C189.419 207.355 189.251 207.298 189.026 207.298C188.793 207.298 188.61 207.349 188.477 207.451C188.345 207.554 188.251 207.663 188.197 207.779L187.733 207.613C187.816 207.42 187.927 207.269 188.065 207.161C188.204 207.052 188.356 206.976 188.521 206.933C188.686 206.889 188.849 206.867 189.009 206.867C189.112 206.867 189.229 206.88 189.362 206.904C189.496 206.928 189.625 206.977 189.749 207.052C189.875 207.126 189.979 207.239 190.062 207.389C190.145 207.54 190.186 207.741 190.186 207.994V210.091H189.697V209.66H189.672C189.639 209.729 189.584 209.803 189.507 209.881C189.429 209.96 189.326 210.027 189.198 210.082C189.07 210.137 188.913 210.165 188.728 210.165ZM188.802 209.726C188.996 209.726 189.159 209.688 189.291 209.612C189.425 209.536 189.526 209.438 189.594 209.318C189.663 209.198 189.697 209.071 189.697 208.939V208.491C189.677 208.516 189.631 208.539 189.561 208.56C189.491 208.579 189.411 208.596 189.32 208.611C189.23 208.625 189.143 208.638 189.057 208.649C188.973 208.658 188.905 208.667 188.852 208.674C188.725 208.69 188.606 208.717 188.496 208.754C188.387 208.79 188.298 208.845 188.231 208.918C188.164 208.99 188.131 209.088 188.131 209.212C188.131 209.382 188.194 209.51 188.32 209.598C188.447 209.683 188.608 209.726 188.802 209.726Z" fill="#231815"/>
<path d="M184.766 210.09V206.909H185.255V210.09H184.766ZM185.015 206.378C184.92 206.378 184.838 206.346 184.768 206.281C184.701 206.216 184.667 206.138 184.667 206.047C184.667 205.956 184.701 205.878 184.768 205.813C184.838 205.748 184.92 205.715 185.015 205.715C185.11 205.715 185.192 205.748 185.259 205.813C185.329 205.878 185.363 205.956 185.363 206.047C185.363 206.138 185.329 206.216 185.259 206.281C185.192 206.346 185.11 206.378 185.015 206.378Z" fill="#231815"/>
<path d="M179.696 210.091V206.909H180.169V207.406H180.21C180.276 207.236 180.383 207.104 180.531 207.01C180.679 206.915 180.856 206.867 181.064 206.867C181.273 206.867 181.448 206.915 181.588 207.01C181.728 207.104 181.838 207.236 181.917 207.406H181.95C182.032 207.241 182.154 207.111 182.317 207.014C182.48 206.916 182.675 206.867 182.903 206.867C183.188 206.867 183.42 206.956 183.601 207.134C183.782 207.311 183.873 207.587 183.873 207.961V210.091H183.384V207.961C183.384 207.726 183.319 207.558 183.191 207.458C183.063 207.357 182.911 207.306 182.737 207.306C182.514 207.306 182.34 207.374 182.217 207.509C182.094 207.643 182.033 207.813 182.033 208.019V210.091H181.536V207.911C181.536 207.73 181.477 207.585 181.36 207.474C181.242 207.362 181.091 207.306 180.906 207.306C180.779 207.306 180.66 207.34 180.55 207.408C180.441 207.476 180.352 207.569 180.285 207.69C180.218 207.808 180.185 207.946 180.185 208.102V210.091H179.696Z" fill="#231815"/>
<path d="M177.346 210.165C177.144 210.165 176.961 210.127 176.797 210.051C176.632 209.974 176.502 209.863 176.405 209.718C176.308 209.571 176.26 209.394 176.26 209.187C176.26 209.005 176.296 208.857 176.368 208.744C176.44 208.629 176.536 208.54 176.656 208.475C176.776 208.41 176.908 208.361 177.053 208.33C177.2 208.297 177.347 208.27 177.495 208.251C177.688 208.226 177.845 208.207 177.965 208.195C178.086 208.181 178.175 208.158 178.23 208.127C178.287 208.095 178.315 208.04 178.315 207.961V207.944C178.315 207.74 178.259 207.581 178.147 207.468C178.037 207.355 177.869 207.298 177.644 207.298C177.41 207.298 177.227 207.349 177.095 207.451C176.962 207.554 176.869 207.663 176.815 207.779L176.351 207.613C176.434 207.42 176.545 207.269 176.683 207.161C176.822 207.052 176.974 206.976 177.138 206.933C177.304 206.889 177.467 206.867 177.627 206.867C177.729 206.867 177.847 206.88 177.979 206.904C178.113 206.928 178.243 206.977 178.367 207.052C178.493 207.126 178.597 207.239 178.68 207.389C178.763 207.54 178.804 207.741 178.804 207.994V210.091H178.315V209.66H178.29C178.257 209.729 178.202 209.803 178.124 209.881C178.047 209.96 177.944 210.027 177.816 210.082C177.687 210.137 177.531 210.165 177.346 210.165ZM177.42 209.726C177.613 209.726 177.776 209.688 177.909 209.612C178.043 209.536 178.144 209.438 178.211 209.318C178.281 209.198 178.315 209.071 178.315 208.939V208.491C178.294 208.516 178.249 208.539 178.178 208.56C178.109 208.579 178.029 208.596 177.938 208.611C177.848 208.625 177.761 208.638 177.675 208.649C177.591 208.658 177.522 208.667 177.47 208.674C177.343 208.69 177.224 208.717 177.114 208.754C177.004 208.79 176.916 208.845 176.848 208.918C176.782 208.99 176.749 209.088 176.749 209.212C176.749 209.382 176.812 209.51 176.937 209.598C177.065 209.683 177.225 209.726 177.42 209.726Z" fill="#231815"/>
<path d="M173.692 208.93L173.684 208.325H173.783L175.175 206.908H175.78L174.297 208.408H174.255L173.692 208.93ZM173.236 210.09V205.848H173.725V210.09H173.236ZM175.258 210.09L174.015 208.516L174.363 208.176L175.879 210.09H175.258Z" fill="#231815"/>
<path d="M170.885 210.165C170.684 210.165 170.501 210.127 170.336 210.051C170.172 209.974 170.042 209.863 169.945 209.718C169.848 209.571 169.8 209.394 169.8 209.187C169.8 209.005 169.836 208.857 169.908 208.744C169.979 208.629 170.075 208.54 170.196 208.475C170.316 208.41 170.448 208.361 170.593 208.33C170.74 208.297 170.887 208.27 171.035 208.251C171.228 208.226 171.385 208.207 171.505 208.195C171.626 208.181 171.715 208.158 171.77 208.127C171.827 208.095 171.855 208.04 171.855 207.961V207.944C171.855 207.74 171.799 207.581 171.687 207.468C171.577 207.355 171.409 207.298 171.184 207.298C170.95 207.298 170.767 207.349 170.635 207.451C170.502 207.554 170.409 207.663 170.355 207.779L169.891 207.613C169.974 207.42 170.084 207.269 170.223 207.161C170.362 207.052 170.514 206.976 170.678 206.933C170.844 206.889 171.007 206.867 171.167 206.867C171.269 206.867 171.387 206.88 171.519 206.904C171.653 206.928 171.782 206.977 171.907 207.052C172.032 207.126 172.137 207.239 172.22 207.389C172.302 207.54 172.344 207.741 172.344 207.994V210.091H171.855V209.66H171.83C171.797 209.729 171.742 209.803 171.664 209.881C171.587 209.96 171.484 210.027 171.356 210.082C171.227 210.137 171.07 210.165 170.885 210.165ZM170.96 209.726C171.153 209.726 171.316 209.688 171.449 209.612C171.583 209.536 171.684 209.438 171.751 209.318C171.82 209.198 171.855 209.071 171.855 208.939V208.491C171.834 208.516 171.789 208.539 171.718 208.56C171.649 208.579 171.569 208.596 171.478 208.611C171.388 208.625 171.3 208.638 171.215 208.649C171.131 208.658 171.062 208.667 171.01 208.674C170.883 208.69 170.764 208.717 170.653 208.754C170.544 208.79 170.456 208.845 170.388 208.918C170.322 208.99 170.289 209.088 170.289 209.212C170.289 209.382 170.352 209.51 170.477 209.598C170.604 209.683 170.765 209.726 170.96 209.726Z" fill="#231815"/>
<path d="M165.93 210.091L164.961 206.909H165.474L166.162 209.345H166.195L166.875 206.909H167.397L168.068 209.337H168.101L168.789 206.909H169.303L168.333 210.091H167.853L167.157 207.646H167.107L166.411 210.091H165.93Z" fill="#231815"/>
<path d="M162.859 210.165C162.657 210.165 162.474 210.127 162.31 210.051C162.145 209.974 162.015 209.863 161.918 209.718C161.821 209.571 161.773 209.394 161.773 209.187C161.773 209.005 161.809 208.857 161.881 208.744C161.953 208.629 162.049 208.54 162.169 208.475C162.289 208.41 162.422 208.361 162.567 208.33C162.713 208.297 162.86 208.27 163.008 208.251C163.201 208.226 163.358 208.207 163.478 208.195C163.6 208.181 163.688 208.158 163.743 208.127C163.8 208.095 163.828 208.04 163.828 207.961V207.944C163.828 207.74 163.772 207.581 163.66 207.468C163.55 207.355 163.382 207.298 163.157 207.298C162.924 207.298 162.741 207.349 162.608 207.451C162.475 207.554 162.382 207.663 162.328 207.779L161.864 207.613C161.947 207.42 162.058 207.269 162.196 207.161C162.335 207.052 162.487 206.976 162.652 206.933C162.817 206.889 162.98 206.867 163.14 206.867C163.243 206.867 163.36 206.88 163.493 206.904C163.627 206.928 163.756 206.977 163.88 207.052C164.006 207.126 164.11 207.239 164.193 207.389C164.276 207.54 164.317 207.741 164.317 207.994V210.091H163.828V209.66H163.803C163.77 209.729 163.715 209.803 163.638 209.881C163.56 209.96 163.457 210.027 163.329 210.082C163.2 210.137 163.044 210.165 162.859 210.165ZM162.933 209.726C163.127 209.726 163.29 209.688 163.422 209.612C163.556 209.536 163.657 209.438 163.725 209.318C163.794 209.198 163.828 209.071 163.828 208.939V208.491C163.807 208.516 163.762 208.539 163.691 208.56C163.622 208.579 163.542 208.596 163.451 208.611C163.361 208.625 163.274 208.638 163.188 208.649C163.104 208.658 163.035 208.667 162.983 208.674C162.856 208.69 162.737 208.717 162.627 208.754C162.518 208.79 162.429 208.845 162.361 208.918C162.295 208.99 162.262 209.088 162.262 209.212C162.262 209.382 162.325 209.51 162.451 209.598C162.578 209.683 162.739 209.726 162.933 209.726Z" fill="#231815"/>
<path d="M159.205 208.93L159.197 208.325H159.296L160.688 206.908H161.293L159.81 208.408H159.768L159.205 208.93ZM158.749 210.09V205.848H159.238V210.09H158.749ZM160.771 210.09L159.528 208.516L159.876 208.176L161.392 210.09H160.771Z" fill="#231815"/>
<path d="M202.906 222.732H212.717V223.443H202.906V222.732ZM203.027 226.188H212.608V226.91H203.027V226.188ZM203.683 220.971H212.007V221.671H203.683V220.971ZM203.519 224.548H212.192V225.237H203.519V224.548ZM207.358 221.233H208.167V228.387H207.358V221.233ZM204.897 221.288H205.663V224.887H204.897V221.288ZM209.95 221.288H210.727V224.887H209.95V221.288ZM205.477 218.313H206.286V220.665H205.477V218.313ZM209.25 218.313H210.06V220.665H209.25V218.313ZM203.005 219.09H212.619V219.822H203.005V219.09Z" fill="#040000"/>
<path d="M200.15 219.943L200.981 220.271C200.456 221.189 199.767 222.272 199.209 222.972L198.542 222.655C199.089 221.944 199.767 220.774 200.15 219.943ZM192.964 220.686L193.664 220.402C194.134 221.014 194.593 221.835 194.758 222.404L194.003 222.721C193.861 222.163 193.423 221.321 192.964 220.686ZM195.906 220.271L196.661 220.041C197 220.664 197.317 221.496 197.383 222.043L196.584 222.305C196.508 221.769 196.234 220.916 195.906 220.271ZM196.409 222.404H197.262V228.354H196.409V222.404ZM192.045 223.41H201.692V224.208H192.045V223.41ZM200.456 218.433L201.112 219.166C198.848 219.582 195.458 219.844 192.603 219.932C192.581 219.713 192.472 219.363 192.395 219.166C195.206 219.057 198.553 218.805 200.456 218.433ZM196.168 223.683L196.879 223.99C195.84 225.63 194.025 227.162 192.384 227.949C192.242 227.73 191.968 227.413 191.771 227.238C193.412 226.549 195.228 225.116 196.168 223.683ZM197.492 223.672C198.455 225.094 200.314 226.527 201.966 227.216C201.769 227.391 201.495 227.708 201.353 227.938C199.69 227.151 197.853 225.586 196.792 223.99L197.492 223.672Z" fill="#040000"/>
<path d="M174.665 221.846H179.16V222.666H174.665V221.846ZM170.082 227.031H179.904V227.851H170.082V227.031ZM174.194 218.466H175.059V227.468H174.194V218.466Z" fill="#040000"/>
<path d="M160.325 218.904H161.156V222.634C161.156 224.723 161.003 226.823 159.57 228.453C159.417 228.278 159.089 228.015 158.881 227.884C160.172 226.407 160.325 224.515 160.325 222.623V218.904ZM163.803 219.352H164.624V227.403H163.803V219.352ZM167.479 218.871H168.332V228.354H167.479V218.871Z" fill="#040000"/>
<path fill-rule="evenodd" clip-rule="evenodd" d="M119.03 139.03H320.242V266.303H119.03V139.03ZM119.213 139.214V266.119H320.06V139.214H119.213Z" fill="#231815"/>
<path fill-rule="evenodd" clip-rule="evenodd" d="M151.758 172.97H352.97V299.03H151.758V172.97ZM151.94 173.152V298.848H352.787V173.152H151.94Z" fill="#231815"/>
</g>
<path d="M256 58H56V183.722H256V58Z" fill="white"/>
<mask id="mask1_205_3797" style="mask-type:luminance" maskUnits="userSpaceOnUse" x="56" y="58" width="200" height="126">
<path d="M256 58H56V183.722H256V58Z" fill="white"/>
</mask>
<g mask="url(#mask1_205_3797)">
<path d="M91.6615 110.68V144.835" stroke="#393A3A" stroke-width="2" stroke-miterlimit="10" stroke-linecap="round"/>
<path d="M108.739 144.835C99.3121 144.835 91.6615 137.192 91.6615 127.758C91.6615 118.323 99.3048 110.68 108.739 110.68" stroke="#393A3A" stroke-width="2" stroke-miterlimit="10" stroke-linecap="round"/>
<path d="M167.847 110.644V144.791" stroke="#A8D4CB" stroke-width="2" stroke-miterlimit="10" stroke-linecap="round"/>
<path d="M176.386 144.835C171.669 144.835 167.847 141.013 167.847 136.296C167.847 131.579 171.669 127.757 176.386 127.757" stroke="#A8D4CB" stroke-width="2" stroke-miterlimit="10" stroke-linecap="round"/>
<path d="M108.491 144.835C113.207 144.835 117.03 141.012 117.03 136.296C117.03 131.58 113.207 127.757 108.491 127.757C103.776 127.757 99.9526 131.58 99.9526 136.296C99.9526 141.012 103.776 144.835 108.491 144.835Z" stroke="#393A3A" stroke-width="2" stroke-miterlimit="10" stroke-linecap="round"/>
<path d="M117.059 127.757V144.835" stroke="#393A3A" stroke-width="2" stroke-miterlimit="10" stroke-linecap="round"/>
<path d="M155.712 144.835C160.428 144.835 164.251 141.012 164.251 136.296C164.251 131.58 160.428 127.757 155.712 127.757C150.997 127.757 147.174 131.58 147.174 136.296C147.174 141.012 150.997 144.835 155.712 144.835Z" stroke="#A8D4CB" stroke-width="2" stroke-miterlimit="10" stroke-linecap="round"/>
<path d="M164.28 127.757V144.835" stroke="#A8D4CB" stroke-width="2" stroke-miterlimit="10" stroke-linecap="round"/>
<path d="M186.439 144.835C191.154 144.835 194.977 141.012 194.977 136.296C194.977 131.58 191.154 127.757 186.439 127.757C181.723 127.757 177.9 131.58 177.9 136.296C177.9 141.012 181.723 144.835 186.439 144.835Z" stroke="#A8D4CB" stroke-width="2" stroke-miterlimit="10" stroke-linecap="round"/>
<path d="M195.006 127.757V144.835" stroke="#A8D4CB" stroke-width="2" stroke-miterlimit="10" stroke-linecap="round"/>
<path d="M198.566 127.757V144.835" stroke="#393A3A" stroke-width="2" stroke-miterlimit="10" stroke-linecap="round"/>
<path d="M207.141 144.835V129.774L207.126 129.745C202.409 129.745 198.588 133.567 198.588 138.284" stroke="#393A3A" stroke-width="2" stroke-linecap="round" stroke-linejoin="round"/>
<path d="M215.694 144.835V129.774L215.68 129.745C210.963 129.745 207.141 133.567 207.141 138.284" stroke="#393A3A" stroke-width="2" stroke-linecap="round" stroke-linejoin="round"/>
<path d="M120.611 128.785L126.457 144.836L126.479 144.821L132.317 128.777L132.338 128.785L138.177 144.836L138.206 144.821L144.044 128.777" stroke="#393A3A" stroke-width="2" stroke-linecap="round" stroke-linejoin="round"/>
<path d="M120.233 129.068L131.916 96.981H132.186L143.869 129.068" stroke="#A8D4CB" stroke-width="2" stroke-linecap="round" stroke-linejoin="round"/>
<path d="M123.509 120.034H140.586" stroke="#A8D4CB" stroke-width="2" stroke-miterlimit="10" stroke-linecap="round"/>
<path d="M149.882 112.741L138.198 144.835" stroke="#A8D4CB" stroke-width="2" stroke-miterlimit="10" stroke-linecap="round"/>
<path d="M137.951 112.82L143.789 128.864" stroke="#A8D4CB" stroke-width="2" stroke-miterlimit="10" stroke-linecap="round"/>
<path d="M219.29 127.757V144.835" stroke="#393A3A" stroke-width="2" stroke-miterlimit="10" stroke-linecap="round"/>
<path d="M219.29 122.691C220.263 122.691 221.052 121.902 221.052 120.93C221.052 119.957 220.263 119.168 219.29 119.168C218.317 119.168 217.529 119.957 217.529 120.93C217.529 121.902 218.317 122.691 219.29 122.691Z" fill="#393A3A"/>
<path d="M292.33 52.5783L180.258 -0.901367L154.99 52.0503L267.062 105.53L292.33 52.5783Z" fill="#EBA05F"/>
<path d="M179.585 203.483L27.8714 131.086L-6.33439 202.768L145.379 275.164L179.585 203.483Z" fill="#F7EBC4"/>
<path d="M262.501 144.62L99.2377 184.661L118.156 261.8L281.42 221.759L262.501 144.62Z" fill="#A8D4CB"/>
<path d="M39.3557 25.2934L35.2416 26.3047L54.2006 103.434L58.3147 102.422L39.3557 25.2934Z" fill="#A8D4CB"/>
<path d="M43.4595 24.291L39.3454 25.3022L58.3044 102.431L62.4185 101.42L43.4595 24.291Z" fill="white"/>
<path d="M47.5562 23.2841L43.4421 24.2954L62.4011 101.424L66.5152 100.413L47.5562 23.2841Z" fill="#A8D4CB"/>
<path d="M51.6673 22.2817L47.5532 23.293L66.5121 100.422L70.6262 99.4107L51.6673 22.2817Z" fill="white"/>
<path d="M55.771 21.2724L51.6569 22.2837L70.6159 99.4127L74.73 98.4014L55.771 21.2724Z" fill="#A8D4CB"/>
<path d="M59.8677 20.2724L55.7536 21.2837L74.7126 98.4127L78.8267 97.4014L59.8677 20.2724Z" fill="white"/>
<path d="M63.9715 19.2631L59.8574 20.2744L78.8164 97.4034L82.9305 96.3921L63.9715 19.2631Z" fill="#A8D4CB"/>
<path d="M68.0755 18.2626L63.9614 19.2739L82.9203 96.4029L87.0344 95.3916L68.0755 18.2626Z" fill="white"/>
<path d="M72.181 17.268L68.0669 18.2793L87.0259 95.4083L91.14 94.397L72.181 17.268Z" fill="#A8D4CB"/>
<path d="M76.2848 16.2592L72.1707 17.2705L91.1296 94.3995L95.2437 93.3882L76.2848 16.2592Z" fill="white"/>
<path d="M80.3814 15.2592L76.2673 16.2705L95.2263 93.3995L99.3404 92.3882L80.3814 15.2592Z" fill="#A8D4CB"/>
<path d="M84.4852 14.2495L80.3711 15.2607L99.3301 92.3897L103.444 91.3784L84.4852 14.2495Z" fill="white"/>
<path d="M88.5892 13.249L84.4751 14.2603L103.434 91.3892L107.548 90.3779L88.5892 13.249Z" fill="#A8D4CB"/>
<path d="M92.6929 12.2407L88.5788 13.252L107.538 90.3809L111.652 89.3696L92.6929 12.2407Z" fill="white"/>
<path d="M96.7967 11.2382L92.6826 12.2495L111.642 89.3785L115.756 88.3672L96.7967 11.2382Z" fill="#A8D4CB"/>
<path d="M100.893 10.2304L96.7794 11.2417L115.738 88.3707L119.852 87.3594L100.893 10.2304Z" fill="white"/>
<path d="M104.997 9.22895L100.883 10.2402L119.842 87.3692L123.956 86.3579L104.997 9.22895Z" fill="#A8D4CB"/>
<path d="M109.101 8.22163L104.987 9.23291L123.946 86.3619L128.06 85.3506L109.101 8.22163Z" fill="white"/>
<path d="M113.205 7.21919L109.091 8.23047L128.05 85.3594L132.164 84.3482L113.205 7.21919Z" fill="#A8D4CB"/>
<path d="M117.31 6.21723L113.196 7.22852L132.155 84.3575L136.269 83.3462L117.31 6.21723Z" fill="white"/>
<path d="M121.407 5.21723L117.293 6.22852L136.252 83.3575L140.366 82.3462L121.407 5.21723Z" fill="#A8D4CB"/>
<path d="M125.511 4.21479L121.397 5.22607L140.356 82.3551L144.47 81.3438L125.511 4.21479Z" fill="white"/>
<path d="M129.622 3.206L125.508 4.21729L144.467 81.3463L148.581 80.335L129.622 3.206Z" fill="#A8D4CB"/>
<path d="M133.719 2.206L129.605 3.21729L148.564 80.3463L152.678 79.335L133.719 2.206Z" fill="white"/>
<path d="M137.822 1.19672L133.708 2.20801L152.667 79.337L156.781 78.3257L137.822 1.19672Z" fill="#A8D4CB"/>
<path d="M141.919 0.196723L137.805 1.20801L156.764 78.337L160.878 77.3257L141.919 0.196723Z" fill="white"/>
<path d="M146.023 -0.812555L141.909 0.19873L160.868 77.3277L164.982 76.3164L146.023 -0.812555Z" fill="#A8D4CB"/>
<path d="M150.134 -1.815L146.02 -0.803711L164.979 76.3253L169.093 75.314L150.134 -1.815Z" fill="white"/>
<path d="M154.231 -2.82183L150.117 -1.81055L169.076 75.3184L173.19 74.3071L154.231 -2.82183Z" fill="#A8D4CB"/>
<path d="M158.336 -3.81695L154.222 -2.80566L173.181 74.3233L177.295 73.312L158.336 -3.81695Z" fill="white"/>
<path d="M162.433 -4.82427L158.319 -3.81299L177.278 73.316L181.392 72.3047L162.433 -4.82427Z" fill="#A8D4CB"/>
<path d="M166.537 -5.82622L162.423 -4.81494L181.382 72.314L185.496 71.3028L166.537 -5.82622Z" fill="white"/>
<path d="M170.648 -6.82818L166.534 -5.81689L185.493 71.3121L189.607 70.3008L170.648 -6.82818Z" fill="#A8D4CB"/>
<path d="M174.744 -7.83599L170.63 -6.82471L189.589 70.3043L193.703 69.293L174.744 -7.83599Z" fill="white"/>
<path d="M178.848 -8.83746L174.734 -7.82617L193.693 69.3028L197.807 68.2915L178.848 -8.83746Z" fill="#A8D4CB"/>
<path d="M182.945 -9.84527L178.831 -8.83398L197.79 68.295L201.904 67.2837L182.945 -9.84527Z" fill="white"/>
<path d="M187.056 -10.8472L182.942 -9.83594L201.901 67.293L206.015 66.2818L187.056 -10.8472Z" fill="#A8D4CB"/>
<path d="M191.16 -11.856L187.046 -10.8447L206.005 66.2843L210.119 65.273L191.16 -11.856Z" fill="white"/>
<path d="M195.256 -12.8565L191.142 -11.8452L210.101 65.2838L214.215 64.2725L195.256 -12.8565Z" fill="#A8D4CB"/>
<path d="M199.362 -13.8585L195.248 -12.8472L214.207 64.2818L218.321 63.2705L199.362 -13.8585Z" fill="white"/>
<path d="M203.459 -14.8585L199.344 -13.8472L218.303 63.2818L222.418 62.2705L203.459 -14.8585Z" fill="#A8D4CB"/>
<path d="M207.57 -15.8682L203.456 -14.8569L222.415 62.272L226.529 61.2608L207.57 -15.8682Z" fill="white"/>
<path d="M211.673 -16.8702L207.559 -15.8589L226.518 61.2701L230.632 60.2588L211.673 -16.8702Z" fill="#A8D4CB"/>
<path d="M215.77 -17.8775L211.656 -16.8662L230.615 60.2628L234.729 59.2515L215.77 -17.8775Z" fill="white"/>
<path d="M219.874 -18.8794L215.76 -17.8682L234.719 59.2608L238.833 58.2495L219.874 -18.8794Z" fill="#A8D4CB"/>
<path d="M223.971 -19.8799L219.856 -18.8687L238.815 58.2603L242.93 57.249L223.971 -19.8799Z" fill="white"/>
</g>
<defs>
<filter id="filter0_d_205_3797" x="0" y="0" width="490" height="340" filterUnits="userSpaceOnUse" color-interpolation-filters="sRGB">
<feFlood flood-opacity="0" result="BackgroundImageFix"/>
<feColorMatrix in="SourceAlpha" type="matrix" values="0 0 0 0 0 0 0 0 0 0 0 0 0 0 0 0 0 0 127 0" result="hardAlpha"/>
<feOffset/>
<feGaussianBlur stdDeviation="10"/>
<feComposite in2="hardAlpha" operator="out"/>
<feColorMatrix type="matrix" values="0 0 0 0 0 0 0 0 0 0 0 0 0 0 0 0 0 0 0.25 0"/>
<feBlend mode="normal" in2="BackgroundImageFix" result="effect1_dropShadow_205_3797"/>
<feBlend mode="normal" in="SourceGraphic" in2="effect1_dropShadow_205_3797" result="shape"/>
</filter>
</defs>
</svg>
