<svg width="643" height="165" viewBox="0 0 643 165" fill="none" xmlns="http://www.w3.org/2000/svg">
<path d="M631.791 124.8C629.991 124.8 628.791 124.1 628.191 122.7C627.591 121.233 627.291 119.766 627.291 118.3C627.291 116.633 627.425 114.966 627.691 113.3C627.958 111.633 628.258 110 628.591 108.4C627.925 109.533 626.858 111 625.391 112.8C623.925 114.6 622.291 116.433 620.491 118.3C618.691 120.1 616.858 121.633 614.991 122.9C613.191 124.1 611.591 124.7 610.191 124.7C609.391 124.7 608.858 124.433 608.591 123.9C608.391 123.366 608.291 122.766 608.291 122.1C608.291 120.7 608.625 118.933 609.291 116.8C609.958 114.666 610.891 112.433 612.091 110.1C613.291 107.7 614.625 105.5 616.091 103.5C617.625 101.5 619.191 99.8998 620.791 98.6998C622.458 97.4331 624.125 96.8665 625.791 96.9998C626.525 96.5998 627.325 96.2331 628.191 95.8998C629.058 95.5665 629.925 95.3998 630.791 95.3998C631.458 95.3998 632.125 95.4665 632.791 95.5998C633.525 95.6665 634.225 95.7665 634.891 95.8998C635.225 95.7665 635.591 95.6331 635.991 95.4998C636.391 95.3665 636.791 95.2998 637.191 95.2998C637.925 95.2998 638.291 95.6331 638.291 96.2998C638.291 96.6331 638.091 97.2998 637.691 98.2998C637.358 99.2331 636.958 100.133 636.491 101C636.091 101.8 635.758 102.266 635.491 102.4C634.891 103.6 634.325 105.166 633.791 107.1C633.258 108.966 632.825 110.9 632.491 112.9C632.158 114.9 631.991 116.6 631.991 118C631.991 118.733 632.091 119.566 632.291 120.5C632.558 121.366 633.191 121.8 634.191 121.8C635.325 121.8 636.458 121.366 637.591 120.5C638.791 119.566 639.825 118.666 640.691 117.8C641.558 116.866 642.058 116.4 642.191 116.4C642.325 116.4 642.391 116.466 642.391 116.6C642.391 117.2 642.058 117.9 641.391 118.7C640.725 119.5 639.991 120.266 639.191 121C638.391 121.666 637.791 122.166 637.391 122.5C636.591 123.1 635.691 123.633 634.691 124.1C633.758 124.566 632.791 124.8 631.791 124.8ZM613.691 121.3C614.025 121.3 614.425 121.166 614.891 120.9C615.358 120.566 615.725 120.3 615.991 120.1C619.991 117.233 623.125 113.933 625.391 110.2C627.658 106.466 629.858 102.466 631.991 98.1998C631.725 98.0665 631.425 97.9665 631.091 97.8998C630.758 97.8331 630.425 97.7998 630.091 97.7998C628.825 97.7998 627.558 98.1331 626.291 98.7998C625.091 99.4665 624.091 100.266 623.291 101.2C622.025 102.533 620.725 104.3 619.391 106.5C618.125 108.633 616.958 110.866 615.891 113.2C614.825 115.466 614.025 117.5 613.491 119.3C613.425 119.5 613.358 119.7 613.291 119.9C613.225 120.1 613.191 120.333 613.191 120.6C613.191 121.066 613.358 121.3 613.691 121.3Z" fill="black"/>
<path d="M582.305 125.5C581.905 125.5 581.705 125.333 581.705 125C582.039 124.467 582.372 123.933 582.705 123.4C583.105 122.867 583.439 122.367 583.705 121.9C584.905 119.567 586.072 117.233 587.205 114.9C588.339 112.567 589.539 110.267 590.805 108C590.739 107.6 590.605 107.067 590.405 106.4C590.272 105.733 590.205 105.233 590.205 104.9C590.205 104.033 590.572 103.433 591.305 103.1C592.039 102.7 592.705 102.433 593.305 102.3C595.572 97.1667 597.939 92.1 600.405 87.1C602.939 82.1 605.705 77.2667 608.705 72.6C608.505 72.2 608.405 71.7333 608.405 71.2C608.405 71.0667 608.405 70.9333 608.405 70.8C608.472 70.6667 608.539 70.5333 608.605 70.4L612.305 64.7C612.705 64.3 613.372 64 614.305 63.8C615.305 63.6 616.072 63.5 616.605 63.5C616.872 63.5 617.372 63.5667 618.105 63.7C618.839 63.7667 619.205 64.0333 619.205 64.5C619.205 64.5667 619.172 64.6333 619.105 64.7C619.105 64.7667 619.105 64.8 619.105 64.8C618.439 65.8667 617.739 66.9 617.005 67.9C616.272 68.9 615.539 69.9 614.805 70.9C612.139 74.9 609.605 79 607.205 83.2C604.805 87.3333 602.439 91.5 600.105 95.7C599.639 96.6333 598.972 97.9 598.105 99.5C597.305 101.033 596.572 102.6 595.905 104.2C595.305 105.733 595.005 107.033 595.005 108.1V108.4C596.272 107.2 597.905 105.733 599.905 104C601.972 102.2 604.039 100.467 606.105 98.8C608.239 97.1333 610.005 95.9333 611.405 95.2C611.939 94.9333 612.539 94.8 613.205 94.8C613.472 94.8 613.805 94.8667 614.205 95C614.672 95.0667 614.905 95.3 614.905 95.7C614.905 96.1667 614.605 96.6667 614.005 97.2C613.405 97.7333 612.739 98.2333 612.005 98.7C611.272 99.1 610.739 99.4 610.405 99.6C607.939 101.067 605.372 102.733 602.705 104.6C600.039 106.4 597.639 108.233 595.505 110.1C595.705 110.833 596.039 111.833 596.505 113.1C597.039 114.3 597.672 115.567 598.405 116.9C599.139 118.167 599.905 119.267 600.705 120.2C601.572 121.067 602.439 121.5 603.305 121.5C604.172 121.5 604.905 121.167 605.505 120.5C606.172 119.767 606.739 118.967 607.205 118.1C607.739 117.167 608.172 116.367 608.505 115.7C608.839 114.967 609.105 114.6 609.305 114.6C609.439 114.6 609.505 114.7 609.505 114.9C609.572 115.1 609.605 115.233 609.605 115.3C609.605 115.5 609.539 115.8 609.405 116.2C609.005 117.4 608.539 118.633 608.005 119.9C607.472 121.167 606.739 122.233 605.805 123.1C604.939 123.967 603.739 124.4 602.205 124.4C600.605 124.4 599.139 123.7 597.805 122.3C596.539 120.833 595.505 119.167 594.705 117.3C593.905 115.367 593.372 113.733 593.105 112.4C592.239 113.4 591.405 114.467 590.605 115.6C589.805 116.733 589.039 117.867 588.305 119C588.305 119.067 588.305 119.167 588.305 119.3C588.372 119.367 588.405 119.467 588.405 119.6C588.405 120.467 588.072 121.367 587.405 122.3C586.805 123.233 586.039 124 585.105 124.6C584.172 125.2 583.239 125.5 582.305 125.5Z" fill="black"/>
<path d="M574.272 124.8C572.472 124.8 571.272 124.1 570.672 122.7C570.072 121.233 569.772 119.766 569.772 118.3C569.772 116.633 569.905 114.966 570.172 113.3C570.438 111.633 570.738 110 571.072 108.4C570.405 109.533 569.338 111 567.872 112.8C566.405 114.6 564.772 116.433 562.972 118.3C561.172 120.1 559.338 121.633 557.472 122.9C555.672 124.1 554.072 124.7 552.672 124.7C551.872 124.7 551.338 124.433 551.072 123.9C550.872 123.366 550.772 122.766 550.772 122.1C550.772 120.7 551.105 118.933 551.772 116.8C552.438 114.666 553.372 112.433 554.572 110.1C555.772 107.7 557.105 105.5 558.572 103.5C560.105 101.5 561.672 99.8998 563.272 98.6998C564.938 97.4331 566.605 96.8665 568.272 96.9998C569.005 96.5998 569.805 96.2331 570.672 95.8998C571.538 95.5665 572.405 95.3998 573.272 95.3998C573.938 95.3998 574.605 95.4665 575.272 95.5998C576.005 95.6665 576.705 95.7665 577.372 95.8998C577.705 95.7665 578.072 95.6331 578.472 95.4998C578.872 95.3665 579.272 95.2998 579.672 95.2998C580.405 95.2998 580.772 95.6331 580.772 96.2998C580.772 96.6331 580.572 97.2998 580.172 98.2998C579.838 99.2331 579.438 100.133 578.972 101C578.572 101.8 578.238 102.266 577.972 102.4C577.372 103.6 576.805 105.166 576.272 107.1C575.738 108.966 575.305 110.9 574.972 112.9C574.638 114.9 574.472 116.6 574.472 118C574.472 118.733 574.572 119.566 574.772 120.5C575.038 121.366 575.672 121.8 576.672 121.8C577.805 121.8 578.938 121.366 580.072 120.5C581.272 119.566 582.305 118.666 583.172 117.8C584.038 116.866 584.538 116.4 584.672 116.4C584.805 116.4 584.872 116.466 584.872 116.6C584.872 117.2 584.538 117.9 583.872 118.7C583.205 119.5 582.472 120.266 581.672 121C580.872 121.666 580.272 122.166 579.872 122.5C579.072 123.1 578.172 123.633 577.172 124.1C576.238 124.566 575.272 124.8 574.272 124.8ZM556.172 121.3C556.505 121.3 556.905 121.166 557.372 120.9C557.838 120.566 558.205 120.3 558.472 120.1C562.472 117.233 565.605 113.933 567.872 110.2C570.138 106.466 572.338 102.466 574.472 98.1998C574.205 98.0665 573.905 97.9665 573.572 97.8998C573.238 97.8331 572.905 97.7998 572.572 97.7998C571.305 97.7998 570.038 98.1331 568.772 98.7998C567.572 99.4665 566.572 100.266 565.772 101.2C564.505 102.533 563.205 104.3 561.872 106.5C560.605 108.633 559.438 110.866 558.372 113.2C557.305 115.466 556.505 117.5 555.972 119.3C555.905 119.5 555.838 119.7 555.772 119.9C555.705 120.1 555.672 120.333 555.672 120.6C555.672 121.066 555.838 121.3 556.172 121.3Z" fill="black"/>
<path d="M509.156 157.4C507.356 157.4 505.489 157.067 503.556 156.4C501.623 155.8 499.989 154.8 498.656 153.4C497.323 152.067 496.656 150.333 496.656 148.2C496.656 146.267 497.223 144.5 498.356 142.9C499.423 141.3 500.823 139.833 502.556 138.5C504.223 137.233 505.989 136.1 507.856 135.1C509.723 134.1 511.389 133.3 512.856 132.7C516.589 131.167 520.656 130 525.056 129.2C529.523 128.4 533.756 127.867 537.756 127.6C538.956 124.533 540.156 121.467 541.356 118.4C542.623 115.333 543.589 112.167 544.256 108.9L544.656 107C543.789 108.133 542.589 109.667 541.056 111.6C539.589 113.533 537.956 115.5 536.156 117.5C534.423 119.5 532.656 121.2 530.856 122.6C529.056 123.933 527.456 124.6 526.056 124.6C524.923 124.6 524.156 124.133 523.756 123.2C523.356 122.2 523.156 121.233 523.156 120.3C523.156 117.767 523.723 115.367 524.856 113.1C525.989 110.767 527.123 108.533 528.256 106.4L527.956 106.5C527.556 106.5 527.356 106.3 527.356 105.9C527.356 105.833 527.423 105.667 527.556 105.4C528.423 103.8 529.156 102.433 529.756 101.3C530.356 100.167 531.156 99.2999 532.156 98.6999C533.156 98.0999 534.689 97.7999 536.756 97.7999C537.156 97.7999 537.356 97.9666 537.356 98.2999C537.356 98.8332 536.989 99.7332 536.256 101C535.523 102.267 534.723 103.567 533.856 104.9C532.989 106.167 532.389 107.067 532.056 107.6C531.523 108.4 530.889 109.567 530.156 111.1C529.423 112.633 528.789 114.167 528.256 115.7C527.723 117.167 527.456 118.367 527.456 119.3C527.456 119.633 527.523 119.967 527.656 120.3C527.789 120.567 528.056 120.7 528.456 120.7C529.323 120.7 530.423 120.2 531.756 119.2C533.089 118.133 534.489 116.8 535.956 115.2C537.423 113.6 538.856 111.933 540.256 110.2C541.656 108.4 542.856 106.767 543.856 105.3C544.923 103.767 545.689 102.567 546.156 101.7C546.689 100.767 547.056 99.7999 547.256 98.7999C547.456 97.7332 548.089 96.8666 549.156 96.1999C549.623 95.9332 550.223 95.6666 550.956 95.3999C551.689 95.0666 552.289 94.8999 552.756 94.8999C553.423 94.8999 553.756 95.2332 553.756 95.8999C553.756 96.8332 553.423 97.7999 552.756 98.7999C552.156 99.7332 551.623 100.6 551.156 101.4C550.556 102.533 549.989 103.9 549.456 105.5C548.989 107.033 548.556 108.467 548.156 109.8C547.089 112.733 546.056 115.7 545.056 118.7C544.123 121.633 542.989 124.567 541.656 127.5H543.656C544.189 127.5 544.689 127.533 545.156 127.6C545.689 127.667 545.956 127.867 545.956 128.2C545.956 128.533 545.589 128.733 544.856 128.8C544.189 128.867 543.456 128.867 542.656 128.8C541.923 128.8 541.423 128.8 541.156 128.8C539.823 132 538.123 135.267 536.056 138.6C534.056 142 531.689 145.1 528.956 147.9C526.289 150.767 523.323 153.067 520.056 154.8C516.723 156.533 513.089 157.4 509.156 157.4ZM508.756 155.3C512.023 155.3 515.123 154.4 518.056 152.6C520.923 150.867 523.556 148.633 525.956 145.9C528.423 143.167 530.589 140.267 532.456 137.2C534.389 134.2 535.956 131.433 537.156 128.9C533.423 129.167 529.423 129.733 525.156 130.6C520.889 131.533 517.089 132.867 513.756 134.6C512.089 135.4 510.256 136.5 508.256 137.9C506.189 139.3 504.423 140.9 502.956 142.7C501.423 144.567 500.656 146.567 500.656 148.7C500.656 150.967 501.523 152.633 503.256 153.7C504.923 154.767 506.756 155.3 508.756 155.3Z" fill="black"/>
<path d="M396.917 164.8C395.184 164.8 393.85 163.867 392.917 162C391.984 160.267 391.517 158.667 391.517 157.2C391.517 156.933 391.584 156.6 391.717 156.2C391.717 155.8 391.717 155.4 391.717 155C392.917 148.2 395.117 142.067 398.317 136.6C401.384 131.133 405.05 126 409.317 121.2C413.584 116.267 417.984 111.467 422.517 106.8C419.984 104.533 417.45 101.867 414.917 98.8C412.384 95.6 411.117 92.2667 411.117 88.8C411.117 85.0667 412.517 82.0667 415.317 79.8C418.117 77.5333 421.65 75.8667 425.917 74.8C430.184 73.6 434.65 72.8 439.317 72.4C443.984 72 448.184 71.8 451.917 71.8C453.384 71.8 454.717 71.8667 455.917 72C457.25 72 458.384 72 459.317 72C467.584 64.5333 475.917 57.2 484.317 50C492.85 42.6667 501.384 35.4667 509.917 28.4L526.117 15C527.584 13.9333 528.984 12.9333 530.317 12C531.65 10.9333 532.917 9.86666 534.117 8.79999C534.517 8.39999 534.85 7.99999 535.117 7.6C535.517 7.2 535.984 6.86666 536.517 6.6C537.984 5.26667 540.184 3.86667 543.117 2.39999C546.184 0.799999 548.717 0 550.717 0C552.184 0 552.917 0.53333 552.917 1.59999C552.917 2.13333 552.85 2.46666 552.717 2.59999C552.05 4.46666 551.117 6.86666 549.917 9.79999C548.717 12.6 547.384 15.4 545.917 18.2C544.584 20.8667 543.184 22.8667 541.717 24.2C541.45 24.4667 541.117 24.6667 540.717 24.8C540.45 24.9333 540.117 25.1333 539.717 25.4C538.917 25.9333 538.45 26.4667 538.317 27C538.317 27.5333 538.117 28.2667 537.717 29.2C536.784 31.3333 535.65 33.4667 534.317 35.6C533.117 37.7333 531.917 39.8667 530.717 42C528.184 46.9333 525.65 52 523.117 57.2C520.717 62.2667 518.45 67.4667 516.317 72.8H523.917C525.25 72.8 526.517 72.8 527.717 72.8C529.05 72.8 530.317 72.8667 531.517 73C531.784 73 532.184 73.0667 532.717 73.2C533.25 73.3333 533.517 73.6 533.517 74C533.517 74.4 533.117 74.7333 532.317 75C531.517 75.1333 530.984 75.2667 530.717 75.4C528.184 75.8 525.184 76.3333 521.717 77C518.384 77.5333 515.717 78.7333 513.717 80.6C508.517 93.9333 505.917 107.933 505.917 122.6C505.917 123.133 505.917 123.6 505.917 124C505.917 124.4 505.984 124.867 506.117 125.4C507.717 125.533 509.317 125.6 510.917 125.6C512.517 125.733 514.184 125.8 515.917 125.8C516.984 125.8 517.984 125.733 518.917 125.6C519.984 125.6 520.984 125.6 521.917 125.6C522.984 125.6 523.517 125.933 523.517 126.6C523.517 127.667 522.717 129.2 521.117 131.2C519.65 133.333 518.45 134.733 517.517 135.4C516.184 136.333 514.717 137.067 513.117 137.6C511.517 138.133 509.85 138.4 508.117 138.4C504.65 138.4 501.984 137.6 500.117 136C498.25 134.533 496.984 132 496.317 128.4C491.65 128 486.184 127.267 479.917 126.2C473.65 125.133 467.184 123.8 460.517 122.2C453.85 120.6 447.584 118.733 441.717 116.6C435.85 114.333 430.984 111.8 427.117 109C423.117 113.267 419.117 117.8 415.117 122.6C411.25 127.267 407.85 132.2 404.917 137.4C401.984 142.6 399.984 148.2 398.917 154.2V156C398.917 156.933 399.05 157.933 399.317 159C399.45 160.067 399.517 161.133 399.517 162.2C399.517 163.933 398.65 164.8 396.917 164.8ZM509.717 72.6C510.784 69.8 511.85 67 512.917 64.2C514.117 61.4 515.25 58.6667 516.317 56C516.717 55.0667 517.517 53.3333 518.717 50.8C519.917 48.1333 521.317 45.0667 522.917 41.6C524.517 38 526.05 34.5333 527.517 31.2C528.984 27.8667 530.184 25 531.117 22.6C532.184 20.0667 532.717 18.5333 532.717 18C532.717 17.8667 532.65 17.8 532.517 17.8C520.917 25.6667 509.584 34.2667 498.517 43.6C487.45 52.9333 476.917 62.5333 466.917 72.4L509.717 72.6ZM496.117 124.6V123.6C496.117 115.333 497.45 107.333 500.117 99.6C502.917 91.8667 505.584 84.2667 508.117 76.8C505.984 76.8 503.784 76.8 501.517 76.8C499.384 76.6667 497.25 76.6 495.117 76.6C491.517 76.6 487.184 76.7333 482.117 77C477.184 77.2667 472.317 77.9333 467.517 79C462.85 79.9333 459.05 81.5333 456.117 83.8C451.85 87.1333 447.517 90.6 443.117 94.2C438.717 97.6667 434.584 101.333 430.717 105.2C434.184 108.267 438.65 110.933 444.117 113.2C449.717 115.333 455.65 117.2 461.917 118.8C468.184 120.4 474.317 121.667 480.317 122.6C486.317 123.533 491.584 124.2 496.117 124.6ZM426.117 103C430.517 98.6 435.05 94.3333 439.717 90.2C444.384 85.9333 448.984 81.6667 453.517 77.4C452.85 77.2667 452.117 77.2 451.317 77.2C450.65 77.2 449.984 77.2 449.317 77.2C447.317 77.2 444.65 77.4667 441.317 78C437.984 78.4 434.65 79.2 431.317 80.4C428.117 81.6 425.384 83.1333 423.117 85C420.85 86.8667 419.717 89.2 419.717 92C419.717 94.1333 420.384 96.1333 421.717 98C423.184 99.8667 424.65 101.533 426.117 103ZM511.117 134.8C512.317 134.8 513.517 134.2 514.717 133C515.917 131.8 516.517 130.6 516.517 129.4V129.2C515.984 129.2 515.317 129.2 514.517 129.2C513.85 129.333 513.184 129.4 512.517 129.4C511.584 129.4 510.584 129.333 509.517 129.2C508.584 129.2 507.584 129.2 506.517 129.2C506.784 130.4 507.25 131.6 507.917 132.8C508.584 134.133 509.65 134.8 511.117 134.8Z" fill="black"/>
<path d="M364.416 91.6002C364.216 91.6002 364.082 91.3669 364.016 90.9002C364.016 90.3669 364.016 90.0335 364.016 89.9002C364.016 89.7002 364.049 89.2669 364.116 88.6002C364.182 87.9335 364.382 87.5669 364.716 87.5002C365.649 87.3669 366.582 87.2002 367.516 87.0002C368.449 86.8002 369.382 86.5669 370.316 86.3002C370.449 86.2335 370.649 86.2002 370.916 86.2002C371.249 86.2002 371.416 86.3669 371.416 86.7002C371.416 87.4335 370.949 88.2002 370.016 89.0002C369.149 89.7335 368.149 90.3669 367.016 90.9002C365.949 91.3669 365.082 91.6002 364.416 91.6002ZM356.316 124C353.049 124 351.416 122.334 351.416 119C351.416 117.6 351.616 116.167 352.016 114.7C352.482 113.234 352.982 111.867 353.516 110.6C354.116 109.134 354.782 107.7 355.516 106.3C356.249 104.9 356.982 103.5 357.716 102.1C358.049 101.5 358.349 100.9 358.616 100.3C358.949 99.6335 359.282 99.0002 359.616 98.4002C359.949 97.9335 360.582 97.5335 361.516 97.2002C362.449 96.8669 363.182 96.7002 363.716 96.7002C363.782 96.7002 363.782 96.7335 363.716 96.8002C363.649 96.8002 363.616 96.8002 363.616 96.8002C363.682 96.8002 363.716 96.8335 363.716 96.9002C363.849 96.7669 364.016 96.7002 364.216 96.7002C364.482 96.7002 364.649 96.8335 364.716 97.1002C364.782 97.3002 364.816 97.5002 364.816 97.7002C364.816 98.1669 364.616 98.8669 364.216 99.8002C363.882 100.734 363.449 101.634 362.916 102.5C362.449 103.3 361.982 103.8 361.516 104C360.916 105.4 360.116 106.934 359.116 108.6C358.182 110.267 357.316 111.967 356.516 113.7C355.716 115.367 355.316 117 355.316 118.6C355.316 120.467 356.316 121.4 358.316 121.4C359.249 121.4 360.249 121.1 361.316 120.5C362.449 119.9 363.549 119.2 364.616 118.4C365.682 117.534 366.582 116.8 367.316 116.2C368.116 115.6 368.616 115.3 368.816 115.3C368.882 115.3 368.916 115.334 368.916 115.4C368.916 115.667 368.816 115.967 368.616 116.3C368.416 116.567 368.249 116.767 368.116 116.9C367.316 117.967 366.249 119.067 364.916 120.2C363.582 121.267 362.149 122.167 360.616 122.9C359.149 123.634 357.716 124 356.316 124Z" fill="black"/>
<path d="M304.448 125.5C304.048 125.5 303.848 125.333 303.848 125C305.648 121.933 307.215 118.8 308.548 115.6C309.881 112.333 311.181 109.067 312.448 105.8L313.548 102.9C313.548 102.7 313.348 102.633 312.948 102.7C312.615 102.767 312.448 102.667 312.448 102.4C312.448 102.267 312.715 101.767 313.248 100.9C313.848 99.9667 314.448 99.0333 315.048 98.1C315.648 97.1 316.015 96.5 316.148 96.3C316.415 95.9 317.015 95.5 317.948 95.1C318.881 94.7 319.581 94.5 320.048 94.5C320.715 94.5 321.048 94.8 321.048 95.4C321.048 95.6 320.715 96.4667 320.048 98C319.448 99.4667 318.715 101.233 317.848 103.3C316.981 105.3 316.181 107.2 315.448 109C314.715 110.733 314.248 111.967 314.048 112.7C314.581 112.033 315.448 111.067 316.648 109.8C317.848 108.467 319.215 107.033 320.748 105.5C322.281 103.967 323.848 102.5 325.448 101.1C327.048 99.7 328.481 98.5667 329.748 97.7C331.081 96.7667 332.115 96.3 332.848 96.3C333.448 96.3 333.815 96.5667 333.948 97.1C334.148 97.5667 334.248 98.0333 334.248 98.5C334.248 99.7667 333.948 101.367 333.348 103.3C332.815 105.233 332.181 107.167 331.448 109.1C330.715 111.033 330.081 112.6 329.548 113.8C330.881 112.667 332.315 111.367 333.848 109.9C335.448 108.367 336.981 106.8 338.448 105.2C339.915 103.6 341.115 102.1 342.048 100.7C342.581 100.033 343.215 99.7 343.948 99.7C345.348 99.7 346.048 100.367 346.048 101.7C346.048 102.367 345.815 103.367 345.348 104.7C344.881 106.033 344.348 106.867 343.748 107.2C343.415 108.6 343.115 110.067 342.848 111.6C342.581 113.067 342.448 114.567 342.448 116.1C342.448 116.7 342.515 117.433 342.648 118.3C342.781 119.1 343.048 119.833 343.448 120.5C343.848 121.1 344.448 121.4 345.248 121.4C346.181 121.4 347.148 121.1 348.148 120.5C349.148 119.9 350.115 119.2 351.048 118.4C351.981 117.533 352.781 116.8 353.448 116.2C354.115 115.6 354.548 115.3 354.748 115.3C354.881 115.3 354.948 115.367 354.948 115.5C354.948 115.7 354.881 115.967 354.748 116.3C354.615 116.567 354.481 116.767 354.348 116.9C353.348 118.567 351.815 120.167 349.748 121.7C347.748 123.233 345.715 124 343.648 124C341.448 124 339.915 123.3 339.048 121.9C338.181 120.5 337.748 118.833 337.748 116.9C337.748 114.833 338.048 112.767 338.648 110.7C339.315 108.567 339.981 106.567 340.648 104.7C338.981 106.767 337.181 108.8 335.248 110.8C333.315 112.733 331.381 114.6 329.448 116.4C328.981 117.867 328.081 119.4 326.748 121C325.481 122.6 323.981 123.4 322.248 123.4C322.181 123.4 322.015 123.367 321.748 123.3C321.548 123.233 321.448 123.1 321.448 122.9C321.448 122.9 321.448 122.867 321.448 122.8C321.448 122.733 321.481 122.7 321.548 122.7C322.015 121.433 322.615 119.9 323.348 118.1C324.148 116.3 324.948 114.4 325.748 112.4C326.615 110.4 327.315 108.5 327.848 106.7C328.448 104.9 328.748 103.4 328.748 102.2C328.748 102 328.715 101.767 328.648 101.5C328.648 101.233 328.481 101.1 328.148 101.1C327.548 101.1 326.681 101.6 325.548 102.6C324.481 103.533 323.281 104.767 321.948 106.3C320.615 107.767 319.281 109.3 317.948 110.9C316.681 112.5 315.548 113.967 314.548 115.3C313.548 116.567 312.881 117.467 312.548 118C311.481 119.533 310.515 121.133 309.648 122.8C309.515 123.133 309.081 123.533 308.348 124C307.681 124.4 306.948 124.733 306.148 125C305.415 125.333 304.848 125.5 304.448 125.5Z" fill="black"/>
<path d="M295.414 124.8C293.614 124.8 292.414 124.1 291.814 122.7C291.214 121.233 290.914 119.766 290.914 118.3C290.914 116.633 291.048 114.966 291.314 113.3C291.581 111.633 291.881 110 292.214 108.4C291.548 109.533 290.481 111 289.014 112.8C287.548 114.6 285.914 116.433 284.114 118.3C282.314 120.1 280.481 121.633 278.614 122.9C276.814 124.1 275.214 124.7 273.814 124.7C273.014 124.7 272.481 124.433 272.214 123.9C272.014 123.366 271.914 122.766 271.914 122.1C271.914 120.7 272.248 118.933 272.914 116.8C273.581 114.666 274.514 112.433 275.714 110.1C276.914 107.7 278.248 105.5 279.714 103.5C281.248 101.5 282.814 99.8998 284.414 98.6998C286.081 97.4331 287.748 96.8665 289.414 96.9998C290.148 96.5998 290.948 96.2331 291.814 95.8998C292.681 95.5665 293.548 95.3998 294.414 95.3998C295.081 95.3998 295.748 95.4665 296.414 95.5998C297.148 95.6665 297.848 95.7665 298.514 95.8998C298.848 95.7665 299.214 95.6331 299.614 95.4998C300.014 95.3665 300.414 95.2998 300.814 95.2998C301.548 95.2998 301.914 95.6331 301.914 96.2998C301.914 96.6331 301.714 97.2998 301.314 98.2998C300.981 99.2331 300.581 100.133 300.114 101C299.714 101.8 299.381 102.266 299.114 102.4C298.514 103.6 297.948 105.166 297.414 107.1C296.881 108.966 296.448 110.9 296.114 112.9C295.781 114.9 295.614 116.6 295.614 118C295.614 118.733 295.714 119.566 295.914 120.5C296.181 121.366 296.814 121.8 297.814 121.8C298.948 121.8 300.081 121.366 301.214 120.5C302.414 119.566 303.448 118.666 304.314 117.8C305.181 116.866 305.681 116.4 305.814 116.4C305.948 116.4 306.014 116.466 306.014 116.6C306.014 117.2 305.681 117.9 305.014 118.7C304.348 119.5 303.614 120.266 302.814 121C302.014 121.666 301.414 122.166 301.014 122.5C300.214 123.1 299.314 123.633 298.314 124.1C297.381 124.566 296.414 124.8 295.414 124.8ZM277.314 121.3C277.648 121.3 278.048 121.166 278.514 120.9C278.981 120.566 279.348 120.3 279.614 120.1C283.614 117.233 286.748 113.933 289.014 110.2C291.281 106.466 293.481 102.466 295.614 98.1998C295.348 98.0665 295.048 97.9665 294.714 97.8998C294.381 97.8331 294.048 97.7998 293.714 97.7998C292.448 97.7998 291.181 98.1331 289.914 98.7998C288.714 99.4665 287.714 100.266 286.914 101.2C285.648 102.533 284.348 104.3 283.014 106.5C281.748 108.633 280.581 110.866 279.514 113.2C278.448 115.466 277.648 117.5 277.114 119.3C277.048 119.5 276.981 119.7 276.914 119.9C276.848 120.1 276.814 120.333 276.814 120.6C276.814 121.066 276.981 121.3 277.314 121.3Z" fill="black"/>
<path d="M245.928 125.5C245.528 125.5 245.328 125.333 245.328 125C245.662 124.467 245.995 123.933 246.328 123.4C246.728 122.867 247.062 122.367 247.328 121.9C248.528 119.567 249.695 117.233 250.828 114.9C251.962 112.567 253.162 110.267 254.428 108C254.362 107.6 254.228 107.067 254.028 106.4C253.895 105.733 253.828 105.233 253.828 104.9C253.828 104.033 254.195 103.433 254.928 103.1C255.662 102.7 256.328 102.433 256.928 102.3C259.195 97.1667 261.562 92.1 264.028 87.1C266.562 82.1 269.328 77.2667 272.328 72.6C272.128 72.2 272.028 71.7333 272.028 71.2C272.028 71.0667 272.028 70.9333 272.028 70.8C272.095 70.6667 272.162 70.5333 272.228 70.4L275.928 64.7C276.328 64.3 276.995 64 277.928 63.8C278.928 63.6 279.695 63.5 280.228 63.5C280.495 63.5 280.995 63.5667 281.728 63.7C282.462 63.7667 282.828 64.0333 282.828 64.5C282.828 64.5667 282.795 64.6333 282.728 64.7C282.728 64.7667 282.728 64.8 282.728 64.8C282.062 65.8667 281.362 66.9 280.628 67.9C279.895 68.9 279.162 69.9 278.428 70.9C275.762 74.9 273.228 79 270.828 83.2C268.428 87.3333 266.062 91.5 263.728 95.7C263.262 96.6333 262.595 97.9 261.728 99.5C260.928 101.033 260.195 102.6 259.528 104.2C258.928 105.733 258.628 107.033 258.628 108.1V108.4C259.895 107.2 261.528 105.733 263.528 104C265.595 102.2 267.662 100.467 269.728 98.8C271.862 97.1333 273.628 95.9333 275.028 95.2C275.562 94.9333 276.162 94.8 276.828 94.8C277.095 94.8 277.428 94.8667 277.828 95C278.295 95.0667 278.528 95.3 278.528 95.7C278.528 96.1667 278.228 96.6667 277.628 97.2C277.028 97.7333 276.362 98.2333 275.628 98.7C274.895 99.1 274.362 99.4 274.028 99.6C271.562 101.067 268.995 102.733 266.328 104.6C263.662 106.4 261.262 108.233 259.128 110.1C259.328 110.833 259.662 111.833 260.128 113.1C260.662 114.3 261.295 115.567 262.028 116.9C262.762 118.167 263.528 119.267 264.328 120.2C265.195 121.067 266.062 121.5 266.928 121.5C267.795 121.5 268.528 121.167 269.128 120.5C269.795 119.767 270.362 118.967 270.828 118.1C271.362 117.167 271.795 116.367 272.128 115.7C272.462 114.967 272.728 114.6 272.928 114.6C273.062 114.6 273.128 114.7 273.128 114.9C273.195 115.1 273.228 115.233 273.228 115.3C273.228 115.5 273.162 115.8 273.028 116.2C272.628 117.4 272.162 118.633 271.628 119.9C271.095 121.167 270.362 122.233 269.428 123.1C268.562 123.967 267.362 124.4 265.828 124.4C264.228 124.4 262.762 123.7 261.428 122.3C260.162 120.833 259.128 119.167 258.328 117.3C257.528 115.367 256.995 113.733 256.728 112.4C255.862 113.4 255.028 114.467 254.228 115.6C253.428 116.733 252.662 117.867 251.928 119C251.928 119.067 251.928 119.167 251.928 119.3C251.995 119.367 252.028 119.467 252.028 119.6C252.028 120.467 251.695 121.367 251.028 122.3C250.428 123.233 249.662 124 248.728 124.6C247.795 125.2 246.862 125.5 245.928 125.5Z" fill="black"/>
<path d="M237.895 124.8C236.095 124.8 234.895 124.1 234.295 122.7C233.695 121.233 233.395 119.766 233.395 118.3C233.395 116.633 233.528 114.966 233.795 113.3C234.061 111.633 234.361 110 234.695 108.4C234.028 109.533 232.961 111 231.495 112.8C230.028 114.6 228.395 116.433 226.595 118.3C224.795 120.1 222.961 121.633 221.095 122.9C219.295 124.1 217.695 124.7 216.295 124.7C215.495 124.7 214.961 124.433 214.695 123.9C214.495 123.366 214.395 122.766 214.395 122.1C214.395 120.7 214.728 118.933 215.395 116.8C216.061 114.666 216.995 112.433 218.195 110.1C219.395 107.7 220.728 105.5 222.195 103.5C223.728 101.5 225.295 99.8998 226.895 98.6998C228.561 97.4331 230.228 96.8665 231.895 96.9998C232.628 96.5998 233.428 96.2331 234.295 95.8998C235.161 95.5665 236.028 95.3998 236.895 95.3998C237.561 95.3998 238.228 95.4665 238.895 95.5998C239.628 95.6665 240.328 95.7665 240.995 95.8998C241.328 95.7665 241.695 95.6331 242.095 95.4998C242.495 95.3665 242.895 95.2998 243.295 95.2998C244.028 95.2998 244.395 95.6331 244.395 96.2998C244.395 96.6331 244.195 97.2998 243.795 98.2998C243.461 99.2331 243.061 100.133 242.595 101C242.195 101.8 241.861 102.266 241.595 102.4C240.995 103.6 240.428 105.166 239.895 107.1C239.361 108.966 238.928 110.9 238.595 112.9C238.261 114.9 238.095 116.6 238.095 118C238.095 118.733 238.195 119.566 238.395 120.5C238.661 121.366 239.295 121.8 240.295 121.8C241.428 121.8 242.561 121.366 243.695 120.5C244.895 119.566 245.928 118.666 246.795 117.8C247.661 116.866 248.161 116.4 248.295 116.4C248.428 116.4 248.495 116.466 248.495 116.6C248.495 117.2 248.161 117.9 247.495 118.7C246.828 119.5 246.095 120.266 245.295 121C244.495 121.666 243.895 122.166 243.495 122.5C242.695 123.1 241.795 123.633 240.795 124.1C239.861 124.566 238.895 124.8 237.895 124.8ZM219.795 121.3C220.128 121.3 220.528 121.166 220.995 120.9C221.461 120.566 221.828 120.3 222.095 120.1C226.095 117.233 229.228 113.933 231.495 110.2C233.761 106.466 235.961 102.466 238.095 98.1998C237.828 98.0665 237.528 97.9665 237.195 97.8998C236.861 97.8331 236.528 97.7998 236.195 97.7998C234.928 97.7998 233.661 98.1331 232.395 98.7998C231.195 99.4665 230.195 100.266 229.395 101.2C228.128 102.533 226.828 104.3 225.495 106.5C224.228 108.633 223.061 110.866 221.995 113.2C220.928 115.466 220.128 117.5 219.595 119.3C219.528 119.5 219.461 119.7 219.395 119.9C219.328 120.1 219.295 120.333 219.295 120.6C219.295 121.066 219.461 121.3 219.795 121.3Z" fill="black"/>
<path d="M173.359 124.2C172.225 124.2 171.425 123.9 170.959 123.3C170.492 122.7 170.259 121.867 170.259 120.8C170.259 117.933 170.992 115.033 172.459 112.1C173.992 109.167 175.425 106.5 176.759 104.1H176.459C176.059 104.1 175.859 103.933 175.859 103.6C175.859 103.4 175.925 103.233 176.059 103.1C176.925 101.5 177.659 100.133 178.259 99C178.859 97.8 179.659 96.9 180.659 96.3C181.659 95.7 183.192 95.4 185.259 95.4C185.659 95.4 185.859 95.6 185.859 96C185.859 96.4667 185.492 97.3667 184.759 98.7C184.025 99.9667 183.225 101.233 182.359 102.5C181.492 103.767 180.892 104.667 180.559 105.2C180.025 106.067 179.325 107.4 178.459 109.2C177.592 110.933 176.825 112.7 176.159 114.5C175.559 116.233 175.259 117.6 175.259 118.6C175.259 118.933 175.325 119.267 175.459 119.6C175.592 119.867 175.859 120 176.259 120C176.859 120 177.592 119.7 178.459 119.1C179.325 118.433 179.992 117.933 180.459 117.6C183.059 115.4 185.492 112.867 187.759 110C190.092 107.133 192.125 104.267 193.859 101.4C193.925 101.267 193.959 101.067 193.959 100.8C194.025 100.533 194.092 100.367 194.159 100.3C194.359 99.5667 194.625 98.8333 194.959 98.1C195.359 97.3 195.925 96.6667 196.659 96.2C197.125 95.8667 197.825 95.6 198.759 95.4C199.692 95.2 200.459 95.1 201.059 95.1C201.325 95.1 201.625 95.1667 201.959 95.3C202.359 95.3667 202.559 95.5667 202.559 95.9C202.559 96.2333 202.259 96.7667 201.659 97.5C201.125 98.2333 200.559 98.9667 199.959 99.7C199.359 100.367 198.925 100.933 198.659 101.4C198.125 102.4 197.625 103.867 197.159 105.8C196.692 107.667 196.325 109.567 196.059 111.5C195.859 113.433 195.759 115 195.759 116.2C195.759 116.8 195.792 117.5 195.859 118.3C195.992 119.1 196.225 119.833 196.559 120.5C196.892 121.1 197.459 121.4 198.259 121.4C199.592 121.4 200.959 120.8 202.359 119.6C203.759 118.333 205.092 116.8 206.359 115C207.692 113.2 208.859 111.433 209.859 109.7C210.859 107.9 211.559 106.5 211.959 105.5C212.492 104.167 212.925 102.8 213.259 101.4C213.592 100 213.759 98.5667 213.759 97.1C213.759 95.1 213.292 93.2667 212.359 91.6C212.292 91.4667 212.225 91.3333 212.159 91.2C212.092 91 212.059 90.8333 212.059 90.7C212.059 90.2333 212.359 90 212.959 90C214.092 90 214.959 90.3667 215.559 91.1C216.159 91.8333 216.592 92.7333 216.859 93.8C217.125 94.8 217.259 95.7333 217.259 96.6C217.259 97.8 217.125 99.0333 216.859 100.3C216.592 101.5 216.225 102.667 215.759 103.8C215.092 105.4 214.059 107.333 212.659 109.6C211.259 111.867 209.625 114.1 207.759 116.3C205.892 118.5 203.925 120.333 201.859 121.8C199.859 123.267 197.892 124 195.959 124C194.092 124 192.825 123.367 192.159 122.1C191.492 120.767 191.159 119.267 191.159 117.6C191.159 115.8 191.325 114 191.659 112.2C191.992 110.4 192.225 108.567 192.359 106.7C191.559 107.767 190.359 109.267 188.759 111.2C187.225 113.133 185.492 115.1 183.559 117.1C181.692 119.1 179.859 120.8 178.059 122.2C176.259 123.533 174.692 124.2 173.359 124.2Z" fill="black"/>
<path d="M161.625 124.8C159.825 124.8 158.625 124.1 158.025 122.7C157.425 121.233 157.125 119.766 157.125 118.3C157.125 116.633 157.259 114.966 157.525 113.3C157.792 111.633 158.092 110 158.425 108.4C157.759 109.533 156.692 111 155.225 112.8C153.759 114.6 152.125 116.433 150.325 118.3C148.525 120.1 146.692 121.633 144.825 122.9C143.025 124.1 141.425 124.7 140.025 124.7C139.225 124.7 138.692 124.433 138.425 123.9C138.225 123.366 138.125 122.766 138.125 122.1C138.125 120.7 138.459 118.933 139.125 116.8C139.792 114.666 140.725 112.433 141.925 110.1C143.125 107.7 144.459 105.5 145.925 103.5C147.459 101.5 149.025 99.8998 150.625 98.6998C152.292 97.4331 153.959 96.8665 155.625 96.9998C156.359 96.5998 157.159 96.2331 158.025 95.8998C158.892 95.5665 159.759 95.3998 160.625 95.3998C161.292 95.3998 161.959 95.4665 162.625 95.5998C163.359 95.6665 164.059 95.7665 164.725 95.8998C165.059 95.7665 165.425 95.6331 165.825 95.4998C166.225 95.3665 166.625 95.2998 167.025 95.2998C167.759 95.2998 168.125 95.6331 168.125 96.2998C168.125 96.6331 167.925 97.2998 167.525 98.2998C167.192 99.2331 166.792 100.133 166.325 101C165.925 101.8 165.592 102.266 165.325 102.4C164.725 103.6 164.159 105.166 163.625 107.1C163.092 108.966 162.659 110.9 162.325 112.9C161.992 114.9 161.825 116.6 161.825 118C161.825 118.733 161.925 119.566 162.125 120.5C162.392 121.366 163.025 121.8 164.025 121.8C165.159 121.8 166.292 121.366 167.425 120.5C168.625 119.566 169.659 118.666 170.525 117.8C171.392 116.866 171.892 116.4 172.025 116.4C172.159 116.4 172.225 116.466 172.225 116.6C172.225 117.2 171.892 117.9 171.225 118.7C170.559 119.5 169.825 120.266 169.025 121C168.225 121.666 167.625 122.166 167.225 122.5C166.425 123.1 165.525 123.633 164.525 124.1C163.592 124.566 162.625 124.8 161.625 124.8ZM143.525 121.3C143.859 121.3 144.259 121.166 144.725 120.9C145.192 120.566 145.559 120.3 145.825 120.1C149.825 117.233 152.959 113.933 155.225 110.2C157.492 106.466 159.692 102.466 161.825 98.1998C161.559 98.0665 161.259 97.9665 160.925 97.8998C160.592 97.8331 160.259 97.7998 159.925 97.7998C158.659 97.7998 157.392 98.1331 156.125 98.7998C154.925 99.4665 153.925 100.266 153.125 101.2C151.859 102.533 150.559 104.3 149.225 106.5C147.959 108.633 146.792 110.866 145.725 113.2C144.659 115.466 143.859 117.5 143.325 119.3C143.259 119.5 143.192 119.7 143.125 119.9C143.059 120.1 143.025 120.333 143.025 120.6C143.025 121.066 143.192 121.3 143.525 121.3Z" fill="black"/>
<path d="M179.875 144.6C174.942 144.6 169.342 143.533 163.075 141.4C156.809 139.267 150.275 136.4 143.475 132.8C136.675 129.333 129.942 125.6 123.275 121.6C116.742 117.467 110.609 113.467 104.875 109.6C99.1419 105.733 94.3419 102.4 90.4752 99.5999C90.0752 100.133 89.1419 101.267 87.6752 103C86.3419 104.733 85.4085 105.6 84.8752 105.6C84.8752 105.6 84.8085 105.6 84.6752 105.6C84.6752 105.467 84.6752 105.333 84.6752 105.2C84.6752 104.533 85.1419 103.333 86.0752 101.6C87.1419 99.8666 87.9419 98.7332 88.4752 98.1999L84.4752 95.1999C81.4085 99.5999 77.7419 104.533 73.4752 110C69.2085 115.333 64.5419 120.467 59.4752 125.4C54.4085 130.333 49.0085 134.4 43.2752 137.6C37.5419 140.8 31.6752 142.4 25.6752 142.4C17.5419 142.4 11.2752 140.333 6.87521 136.2C2.47521 132.2 0.275208 126.067 0.275208 117.8C0.275208 116.733 0.275208 115.667 0.275208 114.6C0.408541 113.533 0.541874 112.467 0.675207 111.4C0.808541 110.867 1.07521 109.6 1.47521 107.6C1.87521 105.467 2.40854 103.467 3.07521 101.6C3.87521 99.5999 4.60854 98.5999 5.27521 98.5999C5.54187 98.5999 5.67521 98.8666 5.67521 99.3999C5.80854 99.9332 5.87521 100.267 5.87521 100.4C5.87521 102 5.67521 103.6 5.27521 105.2C5.00854 106.8 4.87521 108.467 4.87521 110.2C4.87521 114.6 5.47521 119.133 6.67521 123.8C8.00854 128.333 10.2085 132.133 13.2752 135.2C16.3419 138.4 20.5419 140 25.8752 140C31.0752 140 36.2752 138.2 41.4752 134.6C46.8085 131 51.8085 126.533 56.4752 121.2C61.2752 115.867 65.5419 110.467 69.2752 105C73.1419 99.3999 76.3419 94.6666 78.8752 90.7999C75.1419 87.8666 70.8085 84.2666 65.8752 79.9999C60.9419 75.5999 56.1419 70.8666 51.4752 65.7999C46.8085 60.5999 42.9419 55.3332 39.8752 49.9999C36.8085 44.5332 35.2752 39.3332 35.2752 34.3999C35.2752 29.4666 36.9419 25.3999 40.2752 22.1999C43.7419 18.8666 48.2752 16.2666 53.8752 14.3999C59.4752 12.3999 65.6752 10.9332 72.4752 9.9999C79.2752 9.06657 86.0752 8.46657 92.8752 8.1999C99.8085 7.79991 106.142 7.59991 111.875 7.59991C114.942 7.59991 117.742 7.66658 120.275 7.79991C122.942 7.79991 125.209 7.79991 127.075 7.79991C129.075 7.79991 131.075 7.79991 133.075 7.79991C135.075 7.66658 137.075 7.59991 139.075 7.59991C139.875 7.59991 140.275 7.86658 140.275 8.39991C140.275 9.33324 139.675 10.4666 138.475 11.7999C137.409 12.9999 136.609 13.9332 136.075 14.5999C134.342 16.5999 132.409 19.1999 130.275 22.3999C128.275 25.4666 126.342 28.5999 124.475 31.7999C122.609 34.9999 120.942 37.7999 119.475 40.1999C114.542 48.1999 109.609 56.2666 104.675 64.3999C99.7419 72.5332 94.6086 80.5332 89.2752 88.3999L93.4752 91.9999C98.4085 86.1332 104.075 79.6666 110.475 72.5999C116.875 65.3999 123.742 58.1999 131.075 50.9999C138.542 43.6666 146.275 36.7999 154.275 30.3999C162.275 23.9999 170.342 18.5999 178.475 14.1999C186.742 9.79991 194.742 6.93324 202.475 5.59991C203.142 5.46657 203.809 5.3999 204.475 5.3999C205.275 5.3999 206.009 5.3999 206.675 5.3999C208.675 5.3999 210.809 5.66657 213.075 6.1999C215.342 6.73324 217.275 7.66657 218.875 8.9999C220.475 10.3332 221.275 12.2666 221.275 14.7999C221.275 15.9999 221.075 17.1332 220.675 18.1999C220.275 19.3999 219.342 20.7332 217.875 22.1999C216.409 23.6666 214.809 24.9332 213.075 25.9999C211.475 26.9332 210.009 27.3999 208.675 27.3999C208.409 27.3999 208.275 27.3332 208.275 27.1999C208.275 26.7999 208.809 26.1332 209.875 25.1999C210.942 24.2666 211.942 23.0666 212.875 21.5999C213.942 19.9999 214.475 18.2666 214.475 16.3999C214.475 14.2666 213.675 12.7999 212.075 11.9999C210.609 11.0666 208.942 10.5999 207.075 10.5999C202.142 10.5999 196.409 12.1332 189.875 15.1999C183.475 18.1332 176.675 22.1332 169.475 27.1999C162.275 32.1332 155.009 37.6666 147.675 43.7999C140.475 49.9332 133.542 56.1332 126.875 62.3999C120.209 68.6666 114.142 74.5332 108.675 79.9999C103.342 85.4666 99.0086 90.0666 95.6752 93.7999C102.742 99.5332 110.409 105.4 118.675 111.4C126.942 117.4 135.542 122.8 144.475 127.6C153.409 132.533 162.275 136.4 171.075 139.2C172.009 139.467 173.009 139.733 174.075 140C175.275 140.267 176.342 140.4 177.275 140.4C177.675 140.4 178.142 140.333 178.675 140.2C179.209 140.067 179.475 139.733 179.475 139.2C179.475 138.133 178.675 137 177.075 135.8C175.475 134.6 174.675 133.533 174.675 132.6C174.675 132.067 174.942 131.8 175.475 131.8C176.142 131.8 177.275 132.467 178.875 133.8C180.609 135.267 182.209 136.8 183.675 138.4C185.142 140.133 185.875 141.4 185.875 142.2C185.875 143.4 185.009 144.067 183.275 144.2C181.675 144.467 180.542 144.6 179.875 144.6ZM83.6752 83.3999C86.8752 78.1999 90.0086 72.9332 93.0752 67.5999C96.2752 62.2666 99.4086 56.9332 102.475 51.5999C104.742 47.8666 106.942 44.1332 109.075 40.3999C111.209 36.6666 113.475 33.0666 115.875 29.5999V28.7999C115.875 27.7332 116.409 26.3332 117.475 24.5999C118.675 22.7332 119.942 20.9332 121.275 19.1999C122.742 17.3332 123.742 15.9999 124.275 15.1999C121.209 15.0666 118.142 14.9999 115.075 14.9999C112.009 14.9999 108.942 14.9999 105.875 14.9999C97.4752 14.9999 89.0752 15.1999 80.6752 15.5999C77.8752 15.7332 74.4752 16.1332 70.4752 16.7999C66.4752 17.3332 62.5419 18.2666 58.6752 19.5999C54.8085 20.9332 51.6085 22.7999 49.0752 25.1999C46.5419 27.5999 45.2752 30.7999 45.2752 34.7999C45.2752 38.7999 46.6752 43.1332 49.4752 47.7999C52.2752 52.3332 55.7419 56.8666 59.8752 61.3999C64.1419 65.7999 68.4085 69.9332 72.6752 73.7999C77.0752 77.6666 80.7419 80.8666 83.6752 83.3999Z" fill="black"/>
</svg>
