<svg width="490" height="340" viewBox="0 0 490 340" fill="none" xmlns="http://www.w3.org/2000/svg">
<g filter="url(#filter0_d_205_3800)">
<rect x="20" y="20" width="450" height="300" fill="black"/>
</g>
<rect x="30" y="30" width="430" height="280" fill="white"/>
<path d="M164.991 155.6C170.911 155.6 174.351 159.44 174.351 165.52C174.351 173.24 170.431 176.4 164.951 176.4C159.031 176.4 155.591 172.52 155.591 166.44C155.591 158.72 159.511 155.6 164.991 155.6ZM165.151 174.04C169.191 174.04 171.071 171.16 171.071 166.2C171.071 160.76 169.071 157.96 164.791 157.96C160.751 157.96 158.831 160.8 158.831 165.76C158.831 171.2 160.871 174.04 165.151 174.04ZM204.866 158.2V170.52C204.866 173.12 205.826 173.96 208.026 173.96C208.906 173.96 209.746 173.92 210.826 173.6V175.6C209.506 176.08 208.386 176.2 207.066 176.2C203.466 176.2 201.746 174.48 201.746 171.04V158.2H197.146V156.6L201.746 156V150.48L204.866 149.04V156H210.306V158.2H204.866ZM255.92 174.2V176H246.4V174.2L249.4 173.8V163.4C249.4 159.88 247.84 158.12 244.68 158.12C242.72 158.12 240.68 159.12 239.28 160.64V173.8L242.08 174.2V176H232.76V174.2L236.16 173.8V147.4H232.56V145.48L239.28 144.8V158.4C241.12 156.48 243.28 155.64 245.76 155.64C250.24 155.64 252.52 158.16 252.52 163.04V173.8L255.92 174.2ZM295.707 172.96V175.36C293.867 176.08 291.667 176.4 289.067 176.4C282.427 176.4 279.107 173 279.107 166.76C279.107 159.88 282.507 155.6 288.427 155.6C293.387 155.6 296.587 158.88 296.587 163.44V166.44H282.347C282.347 171.4 284.827 173.92 289.907 173.92C292.027 173.92 294.227 173.56 295.707 172.96ZM293.307 164.12V163.72C293.307 160.08 291.427 158 288.147 158C284.787 158 282.947 159.96 282.467 164.12H293.307ZM326.142 160.92H326.222C327.342 157.56 329.742 155.6 332.942 155.6C333.662 155.6 334.102 155.64 334.822 155.84V161.84H332.502L332.182 158.2C328.662 158.32 326.702 160.92 326.702 165.64V173.8L331.302 174.2V176H320.182V174.2L323.582 173.8V158.2L320.182 157.8V156H326.142V160.92Z" fill="black"/>
<defs>
<filter id="filter0_d_205_3800" x="0" y="0" width="490" height="340" filterUnits="userSpaceOnUse" color-interpolation-filters="sRGB">
<feFlood flood-opacity="0" result="BackgroundImageFix"/>
<feColorMatrix in="SourceAlpha" type="matrix" values="0 0 0 0 0 0 0 0 0 0 0 0 0 0 0 0 0 0 127 0" result="hardAlpha"/>
<feOffset/>
<feGaussianBlur stdDeviation="10"/>
<feComposite in2="hardAlpha" operator="out"/>
<feColorMatrix type="matrix" values="0 0 0 0 0 0 0 0 0 0 0 0 0 0 0 0 0 0 0.25 0"/>
<feBlend mode="normal" in2="BackgroundImageFix" result="effect1_dropShadow_205_3800"/>
<feBlend mode="normal" in="SourceGraphic" in2="effect1_dropShadow_205_3800" result="shape"/>
</filter>
</defs>
</svg>
